M48
;DRILL file {KiCad 4.0.6} date Monday, 05 June 2017 'PMt' 21:59:40
;FORMAT={-:-/ absolute / metric / decimal}
FMAT,2
METRIC,TZ
T1C0.400
T2C0.800
T3C0.899
T4C1.016
T5C3.048
%
G90
G05
M71
T1
X129.286Y-115.316
T2
X140.97Y-76.835
X140.97Y-84.455
X140.97Y-88.9
X140.97Y-96.52
X140.97Y-100.965
X140.97Y-108.585
X140.97Y-113.03
X140.97Y-120.65
X143.51Y-76.835
X143.51Y-84.455
X143.51Y-88.9
X143.51Y-96.52
X143.51Y-100.965
X143.51Y-108.585
X143.51Y-113.03
X143.51Y-120.65
X146.05Y-76.835
X146.05Y-84.455
X146.05Y-88.9
X146.05Y-96.52
X146.05Y-100.965
X146.05Y-108.585
X146.05Y-113.03
X146.05Y-120.65
X148.59Y-76.835
X148.59Y-84.455
X148.59Y-88.9
X148.59Y-96.52
X148.59Y-100.965
X148.59Y-108.585
X148.59Y-113.03
X148.59Y-120.65
X153.67Y-78.105
X153.67Y-80.645
X153.67Y-83.185
X153.67Y-85.725
X153.67Y-88.265
X153.67Y-90.805
X153.67Y-93.345
X153.67Y-95.885
X153.67Y-101.6
X153.67Y-104.14
X153.67Y-106.68
X153.67Y-109.22
X153.67Y-111.76
X153.67Y-114.3
X153.67Y-116.84
X153.67Y-119.38
X161.29Y-78.105
X161.29Y-80.645
X161.29Y-83.185
X161.29Y-85.725
X161.29Y-88.265
X161.29Y-90.805
X161.29Y-93.345
X161.29Y-95.885
X161.29Y-101.6
X161.29Y-104.14
X161.29Y-106.68
X161.29Y-109.22
X161.29Y-111.76
X161.29Y-114.3
X161.29Y-116.84
X161.29Y-119.38
T3
X129.794Y-84.455
X129.794Y-86.995
X129.794Y-89.535
X129.794Y-92.075
X132.334Y-85.725
X132.334Y-88.265
X132.334Y-90.805
X132.334Y-93.345
T4
X120.65Y-101.6
X120.65Y-104.14
X120.65Y-106.68
X120.65Y-109.22
X120.65Y-111.76
X120.65Y-114.3
X169.545Y-112.141
X169.545Y-114.681
X169.545Y-117.221
X169.545Y-119.761
X172.085Y-112.141
X172.085Y-114.681
X172.085Y-117.221
X172.085Y-119.761
X172.974Y-78.105
X172.974Y-80.645
X172.974Y-83.185
X172.974Y-85.725
X172.974Y-88.265
X172.974Y-90.805
X172.974Y-93.345
X172.974Y-95.885
X172.974Y-98.425
X172.974Y-100.965
X172.974Y-103.505
X172.974Y-106.045
X175.514Y-78.105
X175.514Y-80.645
X175.514Y-83.185
X175.514Y-85.725
X175.514Y-88.265
X175.514Y-90.805
X175.514Y-93.345
X175.514Y-95.885
X175.514Y-98.425
X175.514Y-100.965
X175.514Y-103.505
X175.514Y-106.045
T5
X119.507Y-77.47
X119.634Y-120.142
X180.213Y-120.015
X180.34Y-77.47
T0
M30
