G04 #@! TF.FileFunction,Copper,L2,Bot,Signal*
%FSLAX46Y46*%
G04 Gerber Fmt 4.6, Leading zero omitted, Abs format (unit mm)*
G04 Created by KiCad (PCBNEW 4.0.6) date Tuesday, 06 June 2017 'AMt' 07:55:03*
%MOMM*%
%LPD*%
G01*
G04 APERTURE LIST*
%ADD10C,0.100000*%
%ADD11C,4.064000*%
%ADD12R,2.032000X1.727200*%
%ADD13O,2.032000X1.727200*%
%ADD14R,1.727200X1.727200*%
%ADD15O,1.727200X1.727200*%
%ADD16O,1.600000X1.600000*%
%ADD17C,3.649980*%
%ADD18R,1.501140X1.501140*%
%ADD19C,1.501140*%
%ADD20R,1.250000X1.500000*%
%ADD21C,0.600000*%
%ADD22C,0.500000*%
%ADD23C,0.250000*%
%ADD24C,0.254000*%
G04 APERTURE END LIST*
D10*
D11*
X180340000Y-77470000D03*
X180213000Y-120015000D03*
X119634000Y-120142000D03*
D12*
X120650000Y-101600000D03*
D13*
X120650000Y-104140000D03*
X120650000Y-106680000D03*
X120650000Y-109220000D03*
X120650000Y-111760000D03*
X120650000Y-114300000D03*
D14*
X172974000Y-78105000D03*
D15*
X175514000Y-78105000D03*
X172974000Y-80645000D03*
X175514000Y-80645000D03*
X172974000Y-83185000D03*
X175514000Y-83185000D03*
X172974000Y-85725000D03*
X175514000Y-85725000D03*
X172974000Y-88265000D03*
X175514000Y-88265000D03*
X172974000Y-90805000D03*
X175514000Y-90805000D03*
X172974000Y-93345000D03*
X175514000Y-93345000D03*
X172974000Y-95885000D03*
X175514000Y-95885000D03*
X172974000Y-98425000D03*
X175514000Y-98425000D03*
X172974000Y-100965000D03*
X175514000Y-100965000D03*
X172974000Y-103505000D03*
X175514000Y-103505000D03*
X172974000Y-106045000D03*
X175514000Y-106045000D03*
D16*
X140970000Y-84455000D03*
X143510000Y-84455000D03*
X146050000Y-84455000D03*
X148590000Y-84455000D03*
X148590000Y-76835000D03*
X146050000Y-76835000D03*
X143510000Y-76835000D03*
X140970000Y-76835000D03*
X140970000Y-96520000D03*
X143510000Y-96520000D03*
X146050000Y-96520000D03*
X148590000Y-96520000D03*
X148590000Y-88900000D03*
X146050000Y-88900000D03*
X143510000Y-88900000D03*
X140970000Y-88900000D03*
X140970000Y-108585000D03*
X143510000Y-108585000D03*
X146050000Y-108585000D03*
X148590000Y-108585000D03*
X148590000Y-100965000D03*
X146050000Y-100965000D03*
X143510000Y-100965000D03*
X140970000Y-100965000D03*
X140970000Y-120650000D03*
X143510000Y-120650000D03*
X146050000Y-120650000D03*
X148590000Y-120650000D03*
X148590000Y-113030000D03*
X146050000Y-113030000D03*
X143510000Y-113030000D03*
X140970000Y-113030000D03*
X153670000Y-78105000D03*
X153670000Y-80645000D03*
X153670000Y-83185000D03*
X153670000Y-85725000D03*
X153670000Y-88265000D03*
X153670000Y-90805000D03*
X153670000Y-93345000D03*
X153670000Y-95885000D03*
X161290000Y-95885000D03*
X161290000Y-93345000D03*
X161290000Y-90805000D03*
X161290000Y-88265000D03*
X161290000Y-85725000D03*
X161290000Y-83185000D03*
X161290000Y-80645000D03*
X161290000Y-78105000D03*
X153670000Y-101600000D03*
X153670000Y-104140000D03*
X153670000Y-106680000D03*
X153670000Y-109220000D03*
X153670000Y-111760000D03*
X153670000Y-114300000D03*
X153670000Y-116840000D03*
X153670000Y-119380000D03*
X161290000Y-119380000D03*
X161290000Y-116840000D03*
X161290000Y-114300000D03*
X161290000Y-111760000D03*
X161290000Y-109220000D03*
X161290000Y-106680000D03*
X161290000Y-104140000D03*
X161290000Y-101600000D03*
D14*
X169545000Y-112141000D03*
D15*
X172085000Y-112141000D03*
X169545000Y-114681000D03*
X172085000Y-114681000D03*
X169545000Y-117221000D03*
X172085000Y-117221000D03*
X169545000Y-119761000D03*
X172085000Y-119761000D03*
D17*
X123444000Y-94838520D03*
X123444000Y-82969100D03*
D18*
X129794000Y-84455000D03*
D19*
X132334000Y-85725000D03*
X129794000Y-86995000D03*
X132334000Y-88265000D03*
X129794000Y-89535000D03*
X132334000Y-90805000D03*
X129794000Y-92075000D03*
X132334000Y-93345000D03*
D11*
X119507000Y-77470000D03*
D20*
X140970000Y-93960000D03*
X140970000Y-91460000D03*
X140970000Y-118090000D03*
X140970000Y-115590000D03*
X140970000Y-106025000D03*
X140970000Y-103525000D03*
X140970000Y-81895000D03*
X140970000Y-79395000D03*
D21*
X129286000Y-115316000D03*
D22*
X140970000Y-84455000D02*
X140970000Y-81895000D01*
X140970000Y-96520000D02*
X140970000Y-93960000D01*
X140970000Y-108585000D02*
X140970000Y-106025000D01*
X140970000Y-120650000D02*
X140970000Y-118090000D01*
X140970000Y-106045000D02*
X141097000Y-106045000D01*
X120650000Y-104140000D02*
X126238000Y-98552000D01*
X126238000Y-93091000D02*
X129794000Y-89535000D01*
X126238000Y-98552000D02*
X126238000Y-93091000D01*
X175514000Y-106045000D02*
X175514000Y-118745000D01*
X142748000Y-122428000D02*
X140970000Y-120650000D01*
X172720000Y-122428000D02*
X142748000Y-122428000D01*
X175514000Y-118745000D02*
X172720000Y-122428000D01*
X129794000Y-89535000D02*
X131064000Y-89535000D01*
X131064000Y-89535000D02*
X132334000Y-90805000D01*
X132334000Y-90805000D02*
X134620000Y-90805000D01*
X134620000Y-90805000D02*
X140970000Y-84455000D01*
X175514000Y-78105000D02*
X175514000Y-80645000D01*
X175514000Y-80645000D02*
X175514000Y-83185000D01*
X175514000Y-83185000D02*
X175514000Y-85725000D01*
X175514000Y-85725000D02*
X175514000Y-88265000D01*
X175514000Y-88265000D02*
X175514000Y-90805000D01*
X175514000Y-90805000D02*
X175514000Y-93345000D01*
X175514000Y-93345000D02*
X175514000Y-95885000D01*
X175514000Y-95885000D02*
X175514000Y-98425000D01*
X175514000Y-98425000D02*
X175514000Y-100965000D01*
X175514000Y-100965000D02*
X175514000Y-103505000D01*
X175514000Y-103505000D02*
X175514000Y-106045000D01*
X140970000Y-84455000D02*
X140970000Y-86360000D01*
X139065000Y-94615000D02*
X140970000Y-96520000D01*
X139065000Y-88265000D02*
X139065000Y-94615000D01*
X140970000Y-86360000D02*
X139065000Y-88265000D01*
X140970000Y-96520000D02*
X140970000Y-98425000D01*
X140970000Y-98425000D02*
X139065000Y-100330000D01*
X139065000Y-100330000D02*
X139065000Y-106680000D01*
X139065000Y-106680000D02*
X140970000Y-108585000D01*
X140970000Y-108585000D02*
X140970000Y-110490000D01*
X139065000Y-118745000D02*
X140970000Y-120650000D01*
X139065000Y-112395000D02*
X139065000Y-118745000D01*
X140970000Y-110490000D02*
X139065000Y-112395000D01*
D23*
X140970000Y-88900000D02*
X142240000Y-87757000D01*
X142240000Y-77978000D02*
X140970000Y-76835000D01*
X142240000Y-87757000D02*
X142240000Y-77978000D01*
D22*
X120650000Y-106680000D02*
X129286000Y-115316000D01*
X140970000Y-76835000D02*
X140970000Y-79395000D01*
X140970000Y-91460000D02*
X140970000Y-88900000D01*
X140970000Y-100965000D02*
X140970000Y-103525000D01*
X140970000Y-115590000D02*
X140970000Y-113030000D01*
X140970000Y-76835000D02*
X135128000Y-82677000D01*
X135128000Y-82677000D02*
X135128000Y-85471000D01*
X135128000Y-85471000D02*
X132334000Y-88265000D01*
X120650000Y-106680000D02*
X118618000Y-104648000D01*
X124460000Y-86995000D02*
X129794000Y-86995000D01*
X118618000Y-92837000D02*
X124460000Y-86995000D01*
X118618000Y-104648000D02*
X118618000Y-92837000D01*
X129794000Y-86995000D02*
X131064000Y-86995000D01*
X131064000Y-86995000D02*
X132334000Y-88265000D01*
X153670000Y-95885000D02*
X153797000Y-95885000D01*
X153797000Y-95885000D02*
X155321000Y-94361000D01*
X155321000Y-94361000D02*
X155321000Y-77089000D01*
X155321000Y-77089000D02*
X153543000Y-75311000D01*
X153543000Y-75311000D02*
X142494000Y-75311000D01*
X142494000Y-75311000D02*
X140970000Y-76835000D01*
X153670000Y-119380000D02*
X153797000Y-119380000D01*
X153797000Y-119380000D02*
X155321000Y-117856000D01*
X155321000Y-117856000D02*
X155321000Y-97536000D01*
X155321000Y-97536000D02*
X153670000Y-95885000D01*
D23*
X140970000Y-113030000D02*
X142240000Y-111760000D01*
X142240000Y-102235000D02*
X140970000Y-100965000D01*
X142240000Y-111760000D02*
X142240000Y-102235000D01*
X140970000Y-100965000D02*
X142240000Y-99695000D01*
X142240000Y-99695000D02*
X142240000Y-90170000D01*
X142240000Y-90170000D02*
X140970000Y-88900000D01*
X143510000Y-84455000D02*
X147320000Y-80645000D01*
X147320000Y-80645000D02*
X153670000Y-80645000D01*
X146050000Y-84455000D02*
X147320000Y-83185000D01*
X147320000Y-83185000D02*
X153670000Y-83185000D01*
X148590000Y-76835000D02*
X152400000Y-76835000D01*
X152400000Y-76835000D02*
X153670000Y-78105000D01*
X143510000Y-96520000D02*
X149860000Y-90170000D01*
X151765000Y-90170000D02*
X153670000Y-88265000D01*
X149860000Y-90170000D02*
X151765000Y-90170000D01*
X146050000Y-96520000D02*
X151130000Y-91440000D01*
X153035000Y-91440000D02*
X153670000Y-90805000D01*
X151130000Y-91440000D02*
X153035000Y-91440000D01*
X148590000Y-88900000D02*
X150495000Y-88900000D01*
X150495000Y-88900000D02*
X153670000Y-85725000D01*
X143510000Y-108585000D02*
X147955000Y-104140000D01*
X147955000Y-104140000D02*
X153670000Y-104140000D01*
X146050000Y-108585000D02*
X147955000Y-106680000D01*
X147955000Y-106680000D02*
X153670000Y-106680000D01*
X148590000Y-100965000D02*
X153035000Y-100965000D01*
X153035000Y-100965000D02*
X153670000Y-101600000D01*
X143510000Y-120650000D02*
X149733000Y-114427000D01*
X151003000Y-114427000D02*
X153670000Y-111760000D01*
X149733000Y-114427000D02*
X151003000Y-114427000D01*
X146050000Y-120650000D02*
X151003000Y-115697000D01*
X152273000Y-115697000D02*
X153670000Y-114300000D01*
X151003000Y-115697000D02*
X152273000Y-115697000D01*
X148590000Y-113030000D02*
X149860000Y-113030000D01*
X149860000Y-113030000D02*
X153670000Y-109220000D01*
D24*
G36*
X181152101Y-74390769D02*
X183406547Y-76532491D01*
X183440000Y-76850773D01*
X183440000Y-121163021D01*
X181143554Y-123115000D01*
X173274069Y-123115000D01*
X173298456Y-123097787D01*
X173319715Y-123075451D01*
X173343601Y-123055970D01*
X173379112Y-123013044D01*
X173417535Y-122972675D01*
X173425072Y-122962882D01*
X175491276Y-120239249D01*
X177542495Y-120239249D01*
X177636911Y-120753682D01*
X177829450Y-121239979D01*
X178112777Y-121679616D01*
X178476101Y-122055850D01*
X178905583Y-122354347D01*
X179384864Y-122563740D01*
X179895689Y-122676052D01*
X180418600Y-122687006D01*
X180933679Y-122596183D01*
X181421309Y-122407044D01*
X181862914Y-122126793D01*
X182241674Y-121766104D01*
X182543163Y-121338717D01*
X182755897Y-120860909D01*
X182871772Y-120350881D01*
X182880114Y-119753487D01*
X182778524Y-119240423D01*
X182579215Y-118756861D01*
X182289777Y-118321222D01*
X181921235Y-117950098D01*
X181487627Y-117657626D01*
X181005469Y-117454946D01*
X180493126Y-117349777D01*
X179970113Y-117346125D01*
X179456352Y-117444131D01*
X178971411Y-117640059D01*
X178533762Y-117926449D01*
X178160074Y-118292391D01*
X177864582Y-118723946D01*
X177658541Y-119204678D01*
X177549797Y-119716274D01*
X177542495Y-120239249D01*
X175491276Y-120239249D01*
X176219072Y-119279882D01*
X176230367Y-119261512D01*
X176244225Y-119244996D01*
X176275517Y-119188076D01*
X176309536Y-119132746D01*
X176317045Y-119112537D01*
X176327435Y-119093639D01*
X176347078Y-119031717D01*
X176369699Y-118970841D01*
X176373140Y-118949558D01*
X176379661Y-118929002D01*
X176386901Y-118864451D01*
X176397269Y-118800333D01*
X176396511Y-118778784D01*
X176398914Y-118757357D01*
X176399000Y-118745000D01*
X176399000Y-107253713D01*
X176577216Y-107108363D01*
X176763647Y-106883006D01*
X176902755Y-106625731D01*
X176989242Y-106346335D01*
X177019814Y-106055462D01*
X176993307Y-105764190D01*
X176910729Y-105483615D01*
X176775226Y-105224422D01*
X176591960Y-104996485D01*
X176399000Y-104834572D01*
X176399000Y-104713713D01*
X176577216Y-104568363D01*
X176763647Y-104343006D01*
X176902755Y-104085731D01*
X176989242Y-103806335D01*
X177019814Y-103515462D01*
X176993307Y-103224190D01*
X176910729Y-102943615D01*
X176775226Y-102684422D01*
X176591960Y-102456485D01*
X176399000Y-102294572D01*
X176399000Y-102173713D01*
X176577216Y-102028363D01*
X176763647Y-101803006D01*
X176902755Y-101545731D01*
X176989242Y-101266335D01*
X177019814Y-100975462D01*
X176993307Y-100684190D01*
X176910729Y-100403615D01*
X176775226Y-100144422D01*
X176591960Y-99916485D01*
X176399000Y-99754572D01*
X176399000Y-99633713D01*
X176577216Y-99488363D01*
X176763647Y-99263006D01*
X176902755Y-99005731D01*
X176989242Y-98726335D01*
X177019814Y-98435462D01*
X176993307Y-98144190D01*
X176910729Y-97863615D01*
X176775226Y-97604422D01*
X176591960Y-97376485D01*
X176399000Y-97214572D01*
X176399000Y-97093713D01*
X176577216Y-96948363D01*
X176763647Y-96723006D01*
X176902755Y-96465731D01*
X176989242Y-96186335D01*
X177019814Y-95895462D01*
X176993307Y-95604190D01*
X176910729Y-95323615D01*
X176775226Y-95064422D01*
X176591960Y-94836485D01*
X176399000Y-94674572D01*
X176399000Y-94553713D01*
X176577216Y-94408363D01*
X176763647Y-94183006D01*
X176902755Y-93925731D01*
X176989242Y-93646335D01*
X177019814Y-93355462D01*
X176993307Y-93064190D01*
X176910729Y-92783615D01*
X176775226Y-92524422D01*
X176591960Y-92296485D01*
X176399000Y-92134572D01*
X176399000Y-92013713D01*
X176577216Y-91868363D01*
X176763647Y-91643006D01*
X176902755Y-91385731D01*
X176989242Y-91106335D01*
X177019814Y-90815462D01*
X176993307Y-90524190D01*
X176910729Y-90243615D01*
X176775226Y-89984422D01*
X176591960Y-89756485D01*
X176399000Y-89594572D01*
X176399000Y-89473713D01*
X176577216Y-89328363D01*
X176763647Y-89103006D01*
X176902755Y-88845731D01*
X176989242Y-88566335D01*
X177019814Y-88275462D01*
X176993307Y-87984190D01*
X176910729Y-87703615D01*
X176775226Y-87444422D01*
X176591960Y-87216485D01*
X176399000Y-87054572D01*
X176399000Y-86933713D01*
X176577216Y-86788363D01*
X176763647Y-86563006D01*
X176902755Y-86305731D01*
X176989242Y-86026335D01*
X177019814Y-85735462D01*
X176993307Y-85444190D01*
X176910729Y-85163615D01*
X176775226Y-84904422D01*
X176591960Y-84676485D01*
X176399000Y-84514572D01*
X176399000Y-84393713D01*
X176577216Y-84248363D01*
X176763647Y-84023006D01*
X176902755Y-83765731D01*
X176989242Y-83486335D01*
X177019814Y-83195462D01*
X176993307Y-82904190D01*
X176910729Y-82623615D01*
X176775226Y-82364422D01*
X176591960Y-82136485D01*
X176399000Y-81974572D01*
X176399000Y-81853713D01*
X176577216Y-81708363D01*
X176763647Y-81483006D01*
X176902755Y-81225731D01*
X176989242Y-80946335D01*
X177019814Y-80655462D01*
X176993307Y-80364190D01*
X176910729Y-80083615D01*
X176775226Y-79824422D01*
X176591960Y-79596485D01*
X176399000Y-79434572D01*
X176399000Y-79313713D01*
X176577216Y-79168363D01*
X176763647Y-78943006D01*
X176902755Y-78685731D01*
X176989242Y-78406335D01*
X177019814Y-78115462D01*
X176993307Y-77824190D01*
X176955064Y-77694249D01*
X177669495Y-77694249D01*
X177763911Y-78208682D01*
X177956450Y-78694979D01*
X178239777Y-79134616D01*
X178603101Y-79510850D01*
X179032583Y-79809347D01*
X179511864Y-80018740D01*
X180022689Y-80131052D01*
X180545600Y-80142006D01*
X181060679Y-80051183D01*
X181548309Y-79862044D01*
X181989914Y-79581793D01*
X182368674Y-79221104D01*
X182670163Y-78793717D01*
X182882897Y-78315909D01*
X182998772Y-77805881D01*
X183007114Y-77208487D01*
X182905524Y-76695423D01*
X182706215Y-76211861D01*
X182416777Y-75776222D01*
X182048235Y-75405098D01*
X181614627Y-75112626D01*
X181132469Y-74909946D01*
X180620126Y-74804777D01*
X180097113Y-74801125D01*
X179583352Y-74899131D01*
X179098411Y-75095059D01*
X178660762Y-75381449D01*
X178287074Y-75747391D01*
X177991582Y-76178946D01*
X177785541Y-76659678D01*
X177676797Y-77171274D01*
X177669495Y-77694249D01*
X176955064Y-77694249D01*
X176910729Y-77543615D01*
X176775226Y-77284422D01*
X176591960Y-77056485D01*
X176367911Y-76868485D01*
X176111612Y-76727584D01*
X175832827Y-76639148D01*
X175542175Y-76606546D01*
X175521251Y-76606400D01*
X175506749Y-76606400D01*
X175215669Y-76634941D01*
X174935677Y-76719475D01*
X174677436Y-76856784D01*
X174450784Y-77041637D01*
X174440799Y-77053707D01*
X174414494Y-76968766D01*
X174315700Y-76818841D01*
X174179050Y-76702375D01*
X174015363Y-76628590D01*
X173837600Y-76603328D01*
X172110400Y-76603328D01*
X172009279Y-76611392D01*
X171837766Y-76664506D01*
X171687841Y-76763300D01*
X171571375Y-76899950D01*
X171497590Y-77063637D01*
X171472328Y-77241400D01*
X171472328Y-78968600D01*
X171480392Y-79069721D01*
X171533506Y-79241234D01*
X171632300Y-79391159D01*
X171768950Y-79507625D01*
X171918742Y-79575147D01*
X171910784Y-79581637D01*
X171724353Y-79806994D01*
X171585245Y-80064269D01*
X171498758Y-80343665D01*
X171468186Y-80634538D01*
X171494693Y-80925810D01*
X171577271Y-81206385D01*
X171712774Y-81465578D01*
X171896040Y-81693515D01*
X172120089Y-81881515D01*
X172179724Y-81914299D01*
X172137436Y-81936784D01*
X171910784Y-82121637D01*
X171724353Y-82346994D01*
X171585245Y-82604269D01*
X171498758Y-82883665D01*
X171468186Y-83174538D01*
X171494693Y-83465810D01*
X171577271Y-83746385D01*
X171712774Y-84005578D01*
X171896040Y-84233515D01*
X172120089Y-84421515D01*
X172179724Y-84454299D01*
X172137436Y-84476784D01*
X171910784Y-84661637D01*
X171724353Y-84886994D01*
X171585245Y-85144269D01*
X171498758Y-85423665D01*
X171468186Y-85714538D01*
X171494693Y-86005810D01*
X171577271Y-86286385D01*
X171712774Y-86545578D01*
X171896040Y-86773515D01*
X172120089Y-86961515D01*
X172179724Y-86994299D01*
X172137436Y-87016784D01*
X171910784Y-87201637D01*
X171724353Y-87426994D01*
X171585245Y-87684269D01*
X171498758Y-87963665D01*
X171468186Y-88254538D01*
X171494693Y-88545810D01*
X171577271Y-88826385D01*
X171712774Y-89085578D01*
X171896040Y-89313515D01*
X172120089Y-89501515D01*
X172179724Y-89534299D01*
X172137436Y-89556784D01*
X171910784Y-89741637D01*
X171724353Y-89966994D01*
X171585245Y-90224269D01*
X171498758Y-90503665D01*
X171468186Y-90794538D01*
X171494693Y-91085810D01*
X171577271Y-91366385D01*
X171712774Y-91625578D01*
X171896040Y-91853515D01*
X172120089Y-92041515D01*
X172179724Y-92074299D01*
X172137436Y-92096784D01*
X171910784Y-92281637D01*
X171724353Y-92506994D01*
X171585245Y-92764269D01*
X171498758Y-93043665D01*
X171468186Y-93334538D01*
X171494693Y-93625810D01*
X171577271Y-93906385D01*
X171712774Y-94165578D01*
X171896040Y-94393515D01*
X172120089Y-94581515D01*
X172179724Y-94614299D01*
X172137436Y-94636784D01*
X171910784Y-94821637D01*
X171724353Y-95046994D01*
X171585245Y-95304269D01*
X171498758Y-95583665D01*
X171468186Y-95874538D01*
X171494693Y-96165810D01*
X171577271Y-96446385D01*
X171712774Y-96705578D01*
X171896040Y-96933515D01*
X172120089Y-97121515D01*
X172179724Y-97154299D01*
X172137436Y-97176784D01*
X171910784Y-97361637D01*
X171724353Y-97586994D01*
X171585245Y-97844269D01*
X171498758Y-98123665D01*
X171468186Y-98414538D01*
X171494693Y-98705810D01*
X171577271Y-98986385D01*
X171712774Y-99245578D01*
X171896040Y-99473515D01*
X172120089Y-99661515D01*
X172179724Y-99694299D01*
X172137436Y-99716784D01*
X171910784Y-99901637D01*
X171724353Y-100126994D01*
X171585245Y-100384269D01*
X171498758Y-100663665D01*
X171468186Y-100954538D01*
X171494693Y-101245810D01*
X171577271Y-101526385D01*
X171712774Y-101785578D01*
X171896040Y-102013515D01*
X172120089Y-102201515D01*
X172179724Y-102234299D01*
X172137436Y-102256784D01*
X171910784Y-102441637D01*
X171724353Y-102666994D01*
X171585245Y-102924269D01*
X171498758Y-103203665D01*
X171468186Y-103494538D01*
X171494693Y-103785810D01*
X171577271Y-104066385D01*
X171712774Y-104325578D01*
X171896040Y-104553515D01*
X172120089Y-104741515D01*
X172179724Y-104774299D01*
X172137436Y-104796784D01*
X171910784Y-104981637D01*
X171724353Y-105206994D01*
X171585245Y-105464269D01*
X171498758Y-105743665D01*
X171468186Y-106034538D01*
X171494693Y-106325810D01*
X171577271Y-106606385D01*
X171712774Y-106865578D01*
X171896040Y-107093515D01*
X172120089Y-107281515D01*
X172376388Y-107422416D01*
X172655173Y-107510852D01*
X172945825Y-107543454D01*
X172966749Y-107543600D01*
X172981251Y-107543600D01*
X173272331Y-107515059D01*
X173552323Y-107430525D01*
X173810564Y-107293216D01*
X174037216Y-107108363D01*
X174223647Y-106883006D01*
X174243088Y-106847051D01*
X174252774Y-106865578D01*
X174436040Y-107093515D01*
X174629000Y-107255428D01*
X174629000Y-118447296D01*
X173585403Y-119822947D01*
X173590814Y-119771462D01*
X173564307Y-119480190D01*
X173481729Y-119199615D01*
X173346226Y-118940422D01*
X173162960Y-118712485D01*
X172938911Y-118524485D01*
X172879276Y-118491701D01*
X172921564Y-118469216D01*
X173148216Y-118284363D01*
X173334647Y-118059006D01*
X173473755Y-117801731D01*
X173560242Y-117522335D01*
X173590814Y-117231462D01*
X173564307Y-116940190D01*
X173481729Y-116659615D01*
X173346226Y-116400422D01*
X173162960Y-116172485D01*
X172938911Y-115984485D01*
X172879276Y-115951701D01*
X172921564Y-115929216D01*
X173148216Y-115744363D01*
X173334647Y-115519006D01*
X173473755Y-115261731D01*
X173560242Y-114982335D01*
X173590814Y-114691462D01*
X173564307Y-114400190D01*
X173481729Y-114119615D01*
X173346226Y-113860422D01*
X173162960Y-113632485D01*
X172938911Y-113444485D01*
X172879276Y-113411701D01*
X172921564Y-113389216D01*
X173148216Y-113204363D01*
X173334647Y-112979006D01*
X173473755Y-112721731D01*
X173560242Y-112442335D01*
X173590814Y-112151462D01*
X173564307Y-111860190D01*
X173481729Y-111579615D01*
X173346226Y-111320422D01*
X173162960Y-111092485D01*
X172938911Y-110904485D01*
X172682612Y-110763584D01*
X172403827Y-110675148D01*
X172113175Y-110642546D01*
X172092251Y-110642400D01*
X172077749Y-110642400D01*
X171786669Y-110670941D01*
X171506677Y-110755475D01*
X171248436Y-110892784D01*
X171021784Y-111077637D01*
X171011799Y-111089707D01*
X170985494Y-111004766D01*
X170886700Y-110854841D01*
X170750050Y-110738375D01*
X170586363Y-110664590D01*
X170408600Y-110639328D01*
X168681400Y-110639328D01*
X168580279Y-110647392D01*
X168408766Y-110700506D01*
X168258841Y-110799300D01*
X168142375Y-110935950D01*
X168068590Y-111099637D01*
X168043328Y-111277400D01*
X168043328Y-113004600D01*
X168051392Y-113105721D01*
X168104506Y-113277234D01*
X168203300Y-113427159D01*
X168339950Y-113543625D01*
X168489742Y-113611147D01*
X168481784Y-113617637D01*
X168295353Y-113842994D01*
X168156245Y-114100269D01*
X168069758Y-114379665D01*
X168039186Y-114670538D01*
X168065693Y-114961810D01*
X168148271Y-115242385D01*
X168283774Y-115501578D01*
X168467040Y-115729515D01*
X168691089Y-115917515D01*
X168750724Y-115950299D01*
X168708436Y-115972784D01*
X168481784Y-116157637D01*
X168295353Y-116382994D01*
X168156245Y-116640269D01*
X168069758Y-116919665D01*
X168039186Y-117210538D01*
X168065693Y-117501810D01*
X168148271Y-117782385D01*
X168283774Y-118041578D01*
X168467040Y-118269515D01*
X168691089Y-118457515D01*
X168750724Y-118490299D01*
X168708436Y-118512784D01*
X168481784Y-118697637D01*
X168295353Y-118922994D01*
X168156245Y-119180269D01*
X168069758Y-119459665D01*
X168039186Y-119750538D01*
X168065693Y-120041810D01*
X168148271Y-120322385D01*
X168283774Y-120581578D01*
X168467040Y-120809515D01*
X168691089Y-120997515D01*
X168947388Y-121138416D01*
X169226173Y-121226852D01*
X169516825Y-121259454D01*
X169537749Y-121259600D01*
X169552251Y-121259600D01*
X169843331Y-121231059D01*
X170123323Y-121146525D01*
X170381564Y-121009216D01*
X170608216Y-120824363D01*
X170794647Y-120599006D01*
X170814088Y-120563051D01*
X170823774Y-120581578D01*
X171007040Y-120809515D01*
X171231089Y-120997515D01*
X171487388Y-121138416D01*
X171766173Y-121226852D01*
X172056825Y-121259454D01*
X172077749Y-121259600D01*
X172092251Y-121259600D01*
X172383331Y-121231059D01*
X172556944Y-121178643D01*
X172280535Y-121543000D01*
X149710829Y-121543000D01*
X149774038Y-121467671D01*
X149908959Y-121222250D01*
X149993642Y-120955296D01*
X150024860Y-120676979D01*
X150025000Y-120656943D01*
X150025000Y-120643057D01*
X149997671Y-120364331D01*
X149916724Y-120096221D01*
X149785242Y-119848940D01*
X149687454Y-119729039D01*
X152278096Y-119729039D01*
X152318754Y-119863087D01*
X152438963Y-120117420D01*
X152606481Y-120343414D01*
X152814869Y-120532385D01*
X153056119Y-120677070D01*
X153320960Y-120771909D01*
X153543000Y-120650624D01*
X153543000Y-119507000D01*
X153797000Y-119507000D01*
X153797000Y-120650624D01*
X154019040Y-120771909D01*
X154283881Y-120677070D01*
X154525131Y-120532385D01*
X154733519Y-120343414D01*
X154901037Y-120117420D01*
X155021246Y-119863087D01*
X155061904Y-119729039D01*
X154939915Y-119507000D01*
X153797000Y-119507000D01*
X153543000Y-119507000D01*
X152400085Y-119507000D01*
X152278096Y-119729039D01*
X149687454Y-119729039D01*
X149608234Y-119631907D01*
X149392442Y-119453388D01*
X149146085Y-119320183D01*
X148878547Y-119237367D01*
X148600018Y-119208092D01*
X148563375Y-119211427D01*
X151317802Y-116457000D01*
X152273000Y-116457000D01*
X152287031Y-116455624D01*
X152257367Y-116551453D01*
X152228092Y-116829982D01*
X152253475Y-117108892D01*
X152332548Y-117377560D01*
X152462300Y-117625753D01*
X152637789Y-117844017D01*
X152852329Y-118024038D01*
X153009888Y-118110656D01*
X152814869Y-118227615D01*
X152606481Y-118416586D01*
X152438963Y-118642580D01*
X152318754Y-118896913D01*
X152278096Y-119030961D01*
X152400085Y-119253000D01*
X153543000Y-119253000D01*
X153543000Y-119233000D01*
X153797000Y-119233000D01*
X153797000Y-119253000D01*
X154939915Y-119253000D01*
X155061904Y-119030961D01*
X155021246Y-118896913D01*
X154901037Y-118642580D01*
X154733519Y-118416586D01*
X154525131Y-118227615D01*
X154329696Y-118110407D01*
X154471060Y-118035242D01*
X154688093Y-117858234D01*
X154866612Y-117642442D01*
X154999817Y-117396085D01*
X155082633Y-117128547D01*
X155111908Y-116850018D01*
X155086525Y-116571108D01*
X155007452Y-116302440D01*
X154877700Y-116054247D01*
X154702211Y-115835983D01*
X154487671Y-115655962D01*
X154330891Y-115569772D01*
X154471060Y-115495242D01*
X154688093Y-115318234D01*
X154866612Y-115102442D01*
X154999817Y-114856085D01*
X155082633Y-114588547D01*
X155111908Y-114310018D01*
X155086525Y-114031108D01*
X155007452Y-113762440D01*
X154877700Y-113514247D01*
X154702211Y-113295983D01*
X154487671Y-113115962D01*
X154330891Y-113029772D01*
X154471060Y-112955242D01*
X154688093Y-112778234D01*
X154866612Y-112562442D01*
X154999817Y-112316085D01*
X155082633Y-112048547D01*
X155111908Y-111770018D01*
X155086525Y-111491108D01*
X155007452Y-111222440D01*
X154877700Y-110974247D01*
X154702211Y-110755983D01*
X154487671Y-110575962D01*
X154330891Y-110489772D01*
X154471060Y-110415242D01*
X154688093Y-110238234D01*
X154866612Y-110022442D01*
X154999817Y-109776085D01*
X155082633Y-109508547D01*
X155111908Y-109230018D01*
X155086525Y-108951108D01*
X155007452Y-108682440D01*
X154877700Y-108434247D01*
X154702211Y-108215983D01*
X154487671Y-108035962D01*
X154330891Y-107949772D01*
X154471060Y-107875242D01*
X154688093Y-107698234D01*
X154866612Y-107482442D01*
X154999817Y-107236085D01*
X155082633Y-106968547D01*
X155111908Y-106690018D01*
X155086525Y-106411108D01*
X155007452Y-106142440D01*
X154877700Y-105894247D01*
X154702211Y-105675983D01*
X154487671Y-105495962D01*
X154330891Y-105409772D01*
X154471060Y-105335242D01*
X154688093Y-105158234D01*
X154866612Y-104942442D01*
X154999817Y-104696085D01*
X155082633Y-104428547D01*
X155111908Y-104150018D01*
X155086525Y-103871108D01*
X155007452Y-103602440D01*
X154877700Y-103354247D01*
X154702211Y-103135983D01*
X154487671Y-102955962D01*
X154330891Y-102869772D01*
X154471060Y-102795242D01*
X154688093Y-102618234D01*
X154866612Y-102402442D01*
X154999817Y-102156085D01*
X155082633Y-101888547D01*
X155111908Y-101610018D01*
X155110085Y-101589982D01*
X159848092Y-101589982D01*
X159873475Y-101868892D01*
X159952548Y-102137560D01*
X160082300Y-102385753D01*
X160257789Y-102604017D01*
X160472329Y-102784038D01*
X160629109Y-102870228D01*
X160488940Y-102944758D01*
X160271907Y-103121766D01*
X160093388Y-103337558D01*
X159960183Y-103583915D01*
X159877367Y-103851453D01*
X159848092Y-104129982D01*
X159873475Y-104408892D01*
X159952548Y-104677560D01*
X160082300Y-104925753D01*
X160257789Y-105144017D01*
X160472329Y-105324038D01*
X160629109Y-105410228D01*
X160488940Y-105484758D01*
X160271907Y-105661766D01*
X160093388Y-105877558D01*
X159960183Y-106123915D01*
X159877367Y-106391453D01*
X159848092Y-106669982D01*
X159873475Y-106948892D01*
X159952548Y-107217560D01*
X160082300Y-107465753D01*
X160257789Y-107684017D01*
X160472329Y-107864038D01*
X160629109Y-107950228D01*
X160488940Y-108024758D01*
X160271907Y-108201766D01*
X160093388Y-108417558D01*
X159960183Y-108663915D01*
X159877367Y-108931453D01*
X159848092Y-109209982D01*
X159873475Y-109488892D01*
X159952548Y-109757560D01*
X160082300Y-110005753D01*
X160257789Y-110224017D01*
X160472329Y-110404038D01*
X160629109Y-110490228D01*
X160488940Y-110564758D01*
X160271907Y-110741766D01*
X160093388Y-110957558D01*
X159960183Y-111203915D01*
X159877367Y-111471453D01*
X159848092Y-111749982D01*
X159873475Y-112028892D01*
X159952548Y-112297560D01*
X160082300Y-112545753D01*
X160257789Y-112764017D01*
X160472329Y-112944038D01*
X160629109Y-113030228D01*
X160488940Y-113104758D01*
X160271907Y-113281766D01*
X160093388Y-113497558D01*
X159960183Y-113743915D01*
X159877367Y-114011453D01*
X159848092Y-114289982D01*
X159873475Y-114568892D01*
X159952548Y-114837560D01*
X160082300Y-115085753D01*
X160257789Y-115304017D01*
X160472329Y-115484038D01*
X160629109Y-115570228D01*
X160488940Y-115644758D01*
X160271907Y-115821766D01*
X160093388Y-116037558D01*
X159960183Y-116283915D01*
X159877367Y-116551453D01*
X159848092Y-116829982D01*
X159873475Y-117108892D01*
X159952548Y-117377560D01*
X160082300Y-117625753D01*
X160257789Y-117844017D01*
X160472329Y-118024038D01*
X160629109Y-118110228D01*
X160488940Y-118184758D01*
X160271907Y-118361766D01*
X160093388Y-118577558D01*
X159960183Y-118823915D01*
X159877367Y-119091453D01*
X159848092Y-119369982D01*
X159873475Y-119648892D01*
X159952548Y-119917560D01*
X160082300Y-120165753D01*
X160257789Y-120384017D01*
X160472329Y-120564038D01*
X160717750Y-120698959D01*
X160984704Y-120783642D01*
X161263021Y-120814860D01*
X161283057Y-120815000D01*
X161296943Y-120815000D01*
X161575669Y-120787671D01*
X161843779Y-120706724D01*
X162091060Y-120575242D01*
X162308093Y-120398234D01*
X162486612Y-120182442D01*
X162619817Y-119936085D01*
X162702633Y-119668547D01*
X162731908Y-119390018D01*
X162706525Y-119111108D01*
X162627452Y-118842440D01*
X162497700Y-118594247D01*
X162322211Y-118375983D01*
X162107671Y-118195962D01*
X161950891Y-118109772D01*
X162091060Y-118035242D01*
X162308093Y-117858234D01*
X162486612Y-117642442D01*
X162619817Y-117396085D01*
X162702633Y-117128547D01*
X162731908Y-116850018D01*
X162706525Y-116571108D01*
X162627452Y-116302440D01*
X162497700Y-116054247D01*
X162322211Y-115835983D01*
X162107671Y-115655962D01*
X161950891Y-115569772D01*
X162091060Y-115495242D01*
X162308093Y-115318234D01*
X162486612Y-115102442D01*
X162619817Y-114856085D01*
X162702633Y-114588547D01*
X162731908Y-114310018D01*
X162706525Y-114031108D01*
X162627452Y-113762440D01*
X162497700Y-113514247D01*
X162322211Y-113295983D01*
X162107671Y-113115962D01*
X161950891Y-113029772D01*
X162091060Y-112955242D01*
X162308093Y-112778234D01*
X162486612Y-112562442D01*
X162619817Y-112316085D01*
X162702633Y-112048547D01*
X162731908Y-111770018D01*
X162706525Y-111491108D01*
X162627452Y-111222440D01*
X162497700Y-110974247D01*
X162322211Y-110755983D01*
X162107671Y-110575962D01*
X161950891Y-110489772D01*
X162091060Y-110415242D01*
X162308093Y-110238234D01*
X162486612Y-110022442D01*
X162619817Y-109776085D01*
X162702633Y-109508547D01*
X162731908Y-109230018D01*
X162706525Y-108951108D01*
X162627452Y-108682440D01*
X162497700Y-108434247D01*
X162322211Y-108215983D01*
X162107671Y-108035962D01*
X161950891Y-107949772D01*
X162091060Y-107875242D01*
X162308093Y-107698234D01*
X162486612Y-107482442D01*
X162619817Y-107236085D01*
X162702633Y-106968547D01*
X162731908Y-106690018D01*
X162706525Y-106411108D01*
X162627452Y-106142440D01*
X162497700Y-105894247D01*
X162322211Y-105675983D01*
X162107671Y-105495962D01*
X161950891Y-105409772D01*
X162091060Y-105335242D01*
X162308093Y-105158234D01*
X162486612Y-104942442D01*
X162619817Y-104696085D01*
X162702633Y-104428547D01*
X162731908Y-104150018D01*
X162706525Y-103871108D01*
X162627452Y-103602440D01*
X162497700Y-103354247D01*
X162322211Y-103135983D01*
X162107671Y-102955962D01*
X161950891Y-102869772D01*
X162091060Y-102795242D01*
X162308093Y-102618234D01*
X162486612Y-102402442D01*
X162619817Y-102156085D01*
X162702633Y-101888547D01*
X162731908Y-101610018D01*
X162706525Y-101331108D01*
X162627452Y-101062440D01*
X162497700Y-100814247D01*
X162322211Y-100595983D01*
X162107671Y-100415962D01*
X161862250Y-100281041D01*
X161595296Y-100196358D01*
X161316979Y-100165140D01*
X161296943Y-100165000D01*
X161283057Y-100165000D01*
X161004331Y-100192329D01*
X160736221Y-100273276D01*
X160488940Y-100404758D01*
X160271907Y-100581766D01*
X160093388Y-100797558D01*
X159960183Y-101043915D01*
X159877367Y-101311453D01*
X159848092Y-101589982D01*
X155110085Y-101589982D01*
X155086525Y-101331108D01*
X155007452Y-101062440D01*
X154877700Y-100814247D01*
X154702211Y-100595983D01*
X154487671Y-100415962D01*
X154242250Y-100281041D01*
X153975296Y-100196358D01*
X153696979Y-100165140D01*
X153676943Y-100165000D01*
X153663057Y-100165000D01*
X153384331Y-100192329D01*
X153239018Y-100236202D01*
X153193013Y-100221608D01*
X153189041Y-100221162D01*
X153185219Y-100219994D01*
X153115351Y-100212897D01*
X153045611Y-100205074D01*
X153037806Y-100205020D01*
X153037653Y-100205004D01*
X153037510Y-100205018D01*
X153035000Y-100205000D01*
X149807074Y-100205000D01*
X149785242Y-100163940D01*
X149608234Y-99946907D01*
X149392442Y-99768388D01*
X149146085Y-99635183D01*
X148878547Y-99552367D01*
X148600018Y-99523092D01*
X148321108Y-99548475D01*
X148052440Y-99627548D01*
X147804247Y-99757300D01*
X147585983Y-99932789D01*
X147405962Y-100147329D01*
X147319772Y-100304109D01*
X147245242Y-100163940D01*
X147068234Y-99946907D01*
X146852442Y-99768388D01*
X146606085Y-99635183D01*
X146338547Y-99552367D01*
X146060018Y-99523092D01*
X145781108Y-99548475D01*
X145512440Y-99627548D01*
X145264247Y-99757300D01*
X145045983Y-99932789D01*
X144865962Y-100147329D01*
X144779772Y-100304109D01*
X144705242Y-100163940D01*
X144528234Y-99946907D01*
X144312442Y-99768388D01*
X144066085Y-99635183D01*
X143798547Y-99552367D01*
X143520018Y-99523092D01*
X143241108Y-99548475D01*
X142972440Y-99627548D01*
X142724247Y-99757300D01*
X142505983Y-99932789D01*
X142325962Y-100147329D01*
X142239344Y-100304888D01*
X142122385Y-100109869D01*
X141933414Y-99901481D01*
X141707420Y-99733963D01*
X141453087Y-99613754D01*
X141319039Y-99573096D01*
X141097002Y-99695084D01*
X141097002Y-99549577D01*
X141595790Y-99050789D01*
X141647696Y-98987598D01*
X141700225Y-98924996D01*
X141702466Y-98920919D01*
X141705421Y-98917322D01*
X141744043Y-98845292D01*
X141783435Y-98773639D01*
X141784843Y-98769200D01*
X141787041Y-98765101D01*
X141810927Y-98686974D01*
X141835661Y-98609002D01*
X141836180Y-98604374D01*
X141837540Y-98599926D01*
X141845794Y-98518661D01*
X141854914Y-98437357D01*
X141854977Y-98428253D01*
X141854994Y-98428089D01*
X141854980Y-98427936D01*
X141855000Y-98425000D01*
X141855000Y-97647903D01*
X141974017Y-97552211D01*
X142154038Y-97337671D01*
X142240228Y-97180891D01*
X142314758Y-97321060D01*
X142491766Y-97538093D01*
X142707558Y-97716612D01*
X142953915Y-97849817D01*
X143221453Y-97932633D01*
X143499982Y-97961908D01*
X143778892Y-97936525D01*
X144047560Y-97857452D01*
X144295753Y-97727700D01*
X144514017Y-97552211D01*
X144694038Y-97337671D01*
X144780228Y-97180891D01*
X144854758Y-97321060D01*
X145031766Y-97538093D01*
X145247558Y-97716612D01*
X145493915Y-97849817D01*
X145761453Y-97932633D01*
X146039982Y-97961908D01*
X146318892Y-97936525D01*
X146587560Y-97857452D01*
X146835753Y-97727700D01*
X147054017Y-97552211D01*
X147234038Y-97337671D01*
X147320228Y-97180891D01*
X147394758Y-97321060D01*
X147571766Y-97538093D01*
X147787558Y-97716612D01*
X148033915Y-97849817D01*
X148301453Y-97932633D01*
X148579982Y-97961908D01*
X148858892Y-97936525D01*
X149127560Y-97857452D01*
X149375753Y-97727700D01*
X149594017Y-97552211D01*
X149774038Y-97337671D01*
X149908959Y-97092250D01*
X149993642Y-96825296D01*
X150024860Y-96546979D01*
X150025000Y-96526943D01*
X150025000Y-96513057D01*
X149997671Y-96234331D01*
X149997583Y-96234039D01*
X152278096Y-96234039D01*
X152318754Y-96368087D01*
X152438963Y-96622420D01*
X152606481Y-96848414D01*
X152814869Y-97037385D01*
X153056119Y-97182070D01*
X153320960Y-97276909D01*
X153543000Y-97155624D01*
X153543000Y-96012000D01*
X153797000Y-96012000D01*
X153797000Y-97155624D01*
X154019040Y-97276909D01*
X154283881Y-97182070D01*
X154525131Y-97037385D01*
X154733519Y-96848414D01*
X154901037Y-96622420D01*
X155021246Y-96368087D01*
X155061904Y-96234039D01*
X154939915Y-96012000D01*
X153797000Y-96012000D01*
X153543000Y-96012000D01*
X152400085Y-96012000D01*
X152278096Y-96234039D01*
X149997583Y-96234039D01*
X149916724Y-95966221D01*
X149785242Y-95718940D01*
X149608234Y-95501907D01*
X149392442Y-95323388D01*
X149146085Y-95190183D01*
X148878547Y-95107367D01*
X148600018Y-95078092D01*
X148563375Y-95081427D01*
X151444802Y-92200000D01*
X152807337Y-92200000D01*
X152651907Y-92326766D01*
X152473388Y-92542558D01*
X152340183Y-92788915D01*
X152257367Y-93056453D01*
X152228092Y-93334982D01*
X152253475Y-93613892D01*
X152332548Y-93882560D01*
X152462300Y-94130753D01*
X152637789Y-94349017D01*
X152852329Y-94529038D01*
X153009888Y-94615656D01*
X152814869Y-94732615D01*
X152606481Y-94921586D01*
X152438963Y-95147580D01*
X152318754Y-95401913D01*
X152278096Y-95535961D01*
X152400085Y-95758000D01*
X153543000Y-95758000D01*
X153543000Y-95738000D01*
X153797000Y-95738000D01*
X153797000Y-95758000D01*
X154939915Y-95758000D01*
X155061904Y-95535961D01*
X155021246Y-95401913D01*
X154901037Y-95147580D01*
X154733519Y-94921586D01*
X154525131Y-94732615D01*
X154329696Y-94615407D01*
X154471060Y-94540242D01*
X154688093Y-94363234D01*
X154866612Y-94147442D01*
X154999817Y-93901085D01*
X155082633Y-93633547D01*
X155111908Y-93355018D01*
X155086525Y-93076108D01*
X155007452Y-92807440D01*
X154877700Y-92559247D01*
X154702211Y-92340983D01*
X154487671Y-92160962D01*
X154330891Y-92074772D01*
X154471060Y-92000242D01*
X154688093Y-91823234D01*
X154866612Y-91607442D01*
X154999817Y-91361085D01*
X155082633Y-91093547D01*
X155111908Y-90815018D01*
X155086525Y-90536108D01*
X155007452Y-90267440D01*
X154877700Y-90019247D01*
X154702211Y-89800983D01*
X154487671Y-89620962D01*
X154330891Y-89534772D01*
X154471060Y-89460242D01*
X154688093Y-89283234D01*
X154866612Y-89067442D01*
X154999817Y-88821085D01*
X155082633Y-88553547D01*
X155111908Y-88275018D01*
X155086525Y-87996108D01*
X155007452Y-87727440D01*
X154877700Y-87479247D01*
X154702211Y-87260983D01*
X154487671Y-87080962D01*
X154330891Y-86994772D01*
X154471060Y-86920242D01*
X154688093Y-86743234D01*
X154866612Y-86527442D01*
X154999817Y-86281085D01*
X155082633Y-86013547D01*
X155111908Y-85735018D01*
X155086525Y-85456108D01*
X155007452Y-85187440D01*
X154877700Y-84939247D01*
X154702211Y-84720983D01*
X154487671Y-84540962D01*
X154330891Y-84454772D01*
X154471060Y-84380242D01*
X154688093Y-84203234D01*
X154866612Y-83987442D01*
X154999817Y-83741085D01*
X155082633Y-83473547D01*
X155111908Y-83195018D01*
X155086525Y-82916108D01*
X155007452Y-82647440D01*
X154877700Y-82399247D01*
X154702211Y-82180983D01*
X154487671Y-82000962D01*
X154330891Y-81914772D01*
X154471060Y-81840242D01*
X154688093Y-81663234D01*
X154866612Y-81447442D01*
X154999817Y-81201085D01*
X155082633Y-80933547D01*
X155111908Y-80655018D01*
X155086525Y-80376108D01*
X155007452Y-80107440D01*
X154877700Y-79859247D01*
X154702211Y-79640983D01*
X154487671Y-79460962D01*
X154330891Y-79374772D01*
X154471060Y-79300242D01*
X154688093Y-79123234D01*
X154866612Y-78907442D01*
X154999817Y-78661085D01*
X155082633Y-78393547D01*
X155111908Y-78115018D01*
X155110085Y-78094982D01*
X159848092Y-78094982D01*
X159873475Y-78373892D01*
X159952548Y-78642560D01*
X160082300Y-78890753D01*
X160257789Y-79109017D01*
X160472329Y-79289038D01*
X160629109Y-79375228D01*
X160488940Y-79449758D01*
X160271907Y-79626766D01*
X160093388Y-79842558D01*
X159960183Y-80088915D01*
X159877367Y-80356453D01*
X159848092Y-80634982D01*
X159873475Y-80913892D01*
X159952548Y-81182560D01*
X160082300Y-81430753D01*
X160257789Y-81649017D01*
X160472329Y-81829038D01*
X160629109Y-81915228D01*
X160488940Y-81989758D01*
X160271907Y-82166766D01*
X160093388Y-82382558D01*
X159960183Y-82628915D01*
X159877367Y-82896453D01*
X159848092Y-83174982D01*
X159873475Y-83453892D01*
X159952548Y-83722560D01*
X160082300Y-83970753D01*
X160257789Y-84189017D01*
X160472329Y-84369038D01*
X160629109Y-84455228D01*
X160488940Y-84529758D01*
X160271907Y-84706766D01*
X160093388Y-84922558D01*
X159960183Y-85168915D01*
X159877367Y-85436453D01*
X159848092Y-85714982D01*
X159873475Y-85993892D01*
X159952548Y-86262560D01*
X160082300Y-86510753D01*
X160257789Y-86729017D01*
X160472329Y-86909038D01*
X160629109Y-86995228D01*
X160488940Y-87069758D01*
X160271907Y-87246766D01*
X160093388Y-87462558D01*
X159960183Y-87708915D01*
X159877367Y-87976453D01*
X159848092Y-88254982D01*
X159873475Y-88533892D01*
X159952548Y-88802560D01*
X160082300Y-89050753D01*
X160257789Y-89269017D01*
X160472329Y-89449038D01*
X160629109Y-89535228D01*
X160488940Y-89609758D01*
X160271907Y-89786766D01*
X160093388Y-90002558D01*
X159960183Y-90248915D01*
X159877367Y-90516453D01*
X159848092Y-90794982D01*
X159873475Y-91073892D01*
X159952548Y-91342560D01*
X160082300Y-91590753D01*
X160257789Y-91809017D01*
X160472329Y-91989038D01*
X160629109Y-92075228D01*
X160488940Y-92149758D01*
X160271907Y-92326766D01*
X160093388Y-92542558D01*
X159960183Y-92788915D01*
X159877367Y-93056453D01*
X159848092Y-93334982D01*
X159873475Y-93613892D01*
X159952548Y-93882560D01*
X160082300Y-94130753D01*
X160257789Y-94349017D01*
X160472329Y-94529038D01*
X160629109Y-94615228D01*
X160488940Y-94689758D01*
X160271907Y-94866766D01*
X160093388Y-95082558D01*
X159960183Y-95328915D01*
X159877367Y-95596453D01*
X159848092Y-95874982D01*
X159873475Y-96153892D01*
X159952548Y-96422560D01*
X160082300Y-96670753D01*
X160257789Y-96889017D01*
X160472329Y-97069038D01*
X160717750Y-97203959D01*
X160984704Y-97288642D01*
X161263021Y-97319860D01*
X161283057Y-97320000D01*
X161296943Y-97320000D01*
X161575669Y-97292671D01*
X161843779Y-97211724D01*
X162091060Y-97080242D01*
X162308093Y-96903234D01*
X162486612Y-96687442D01*
X162619817Y-96441085D01*
X162702633Y-96173547D01*
X162731908Y-95895018D01*
X162706525Y-95616108D01*
X162627452Y-95347440D01*
X162497700Y-95099247D01*
X162322211Y-94880983D01*
X162107671Y-94700962D01*
X161950891Y-94614772D01*
X162091060Y-94540242D01*
X162308093Y-94363234D01*
X162486612Y-94147442D01*
X162619817Y-93901085D01*
X162702633Y-93633547D01*
X162731908Y-93355018D01*
X162706525Y-93076108D01*
X162627452Y-92807440D01*
X162497700Y-92559247D01*
X162322211Y-92340983D01*
X162107671Y-92160962D01*
X161950891Y-92074772D01*
X162091060Y-92000242D01*
X162308093Y-91823234D01*
X162486612Y-91607442D01*
X162619817Y-91361085D01*
X162702633Y-91093547D01*
X162731908Y-90815018D01*
X162706525Y-90536108D01*
X162627452Y-90267440D01*
X162497700Y-90019247D01*
X162322211Y-89800983D01*
X162107671Y-89620962D01*
X161950891Y-89534772D01*
X162091060Y-89460242D01*
X162308093Y-89283234D01*
X162486612Y-89067442D01*
X162619817Y-88821085D01*
X162702633Y-88553547D01*
X162731908Y-88275018D01*
X162706525Y-87996108D01*
X162627452Y-87727440D01*
X162497700Y-87479247D01*
X162322211Y-87260983D01*
X162107671Y-87080962D01*
X161950891Y-86994772D01*
X162091060Y-86920242D01*
X162308093Y-86743234D01*
X162486612Y-86527442D01*
X162619817Y-86281085D01*
X162702633Y-86013547D01*
X162731908Y-85735018D01*
X162706525Y-85456108D01*
X162627452Y-85187440D01*
X162497700Y-84939247D01*
X162322211Y-84720983D01*
X162107671Y-84540962D01*
X161950891Y-84454772D01*
X162091060Y-84380242D01*
X162308093Y-84203234D01*
X162486612Y-83987442D01*
X162619817Y-83741085D01*
X162702633Y-83473547D01*
X162731908Y-83195018D01*
X162706525Y-82916108D01*
X162627452Y-82647440D01*
X162497700Y-82399247D01*
X162322211Y-82180983D01*
X162107671Y-82000962D01*
X161950891Y-81914772D01*
X162091060Y-81840242D01*
X162308093Y-81663234D01*
X162486612Y-81447442D01*
X162619817Y-81201085D01*
X162702633Y-80933547D01*
X162731908Y-80655018D01*
X162706525Y-80376108D01*
X162627452Y-80107440D01*
X162497700Y-79859247D01*
X162322211Y-79640983D01*
X162107671Y-79460962D01*
X161950891Y-79374772D01*
X162091060Y-79300242D01*
X162308093Y-79123234D01*
X162486612Y-78907442D01*
X162619817Y-78661085D01*
X162702633Y-78393547D01*
X162731908Y-78115018D01*
X162706525Y-77836108D01*
X162627452Y-77567440D01*
X162497700Y-77319247D01*
X162322211Y-77100983D01*
X162107671Y-76920962D01*
X161862250Y-76786041D01*
X161595296Y-76701358D01*
X161316979Y-76670140D01*
X161296943Y-76670000D01*
X161283057Y-76670000D01*
X161004331Y-76697329D01*
X160736221Y-76778276D01*
X160488940Y-76909758D01*
X160271907Y-77086766D01*
X160093388Y-77302558D01*
X159960183Y-77548915D01*
X159877367Y-77816453D01*
X159848092Y-78094982D01*
X155110085Y-78094982D01*
X155086525Y-77836108D01*
X155007452Y-77567440D01*
X154877700Y-77319247D01*
X154702211Y-77100983D01*
X154487671Y-76920962D01*
X154242250Y-76786041D01*
X153975296Y-76701358D01*
X153696979Y-76670140D01*
X153676943Y-76670000D01*
X153663057Y-76670000D01*
X153384331Y-76697329D01*
X153348077Y-76708275D01*
X152937401Y-76297599D01*
X152883145Y-76253032D01*
X152829375Y-76207914D01*
X152825874Y-76205989D01*
X152822785Y-76203452D01*
X152760933Y-76170287D01*
X152699396Y-76136457D01*
X152695584Y-76135248D01*
X152692065Y-76133361D01*
X152624969Y-76112848D01*
X152558013Y-76091608D01*
X152554041Y-76091162D01*
X152550219Y-76089994D01*
X152480351Y-76082897D01*
X152410611Y-76075074D01*
X152402806Y-76075020D01*
X152402653Y-76075004D01*
X152402510Y-76075018D01*
X152400000Y-76075000D01*
X149807074Y-76075000D01*
X149785242Y-76033940D01*
X149608234Y-75816907D01*
X149392442Y-75638388D01*
X149146085Y-75505183D01*
X148878547Y-75422367D01*
X148600018Y-75393092D01*
X148321108Y-75418475D01*
X148052440Y-75497548D01*
X147804247Y-75627300D01*
X147585983Y-75802789D01*
X147405962Y-76017329D01*
X147319772Y-76174109D01*
X147245242Y-76033940D01*
X147068234Y-75816907D01*
X146852442Y-75638388D01*
X146606085Y-75505183D01*
X146338547Y-75422367D01*
X146060018Y-75393092D01*
X145781108Y-75418475D01*
X145512440Y-75497548D01*
X145264247Y-75627300D01*
X145045983Y-75802789D01*
X144865962Y-76017329D01*
X144779772Y-76174109D01*
X144705242Y-76033940D01*
X144528234Y-75816907D01*
X144312442Y-75638388D01*
X144066085Y-75505183D01*
X143798547Y-75422367D01*
X143520018Y-75393092D01*
X143241108Y-75418475D01*
X142972440Y-75497548D01*
X142724247Y-75627300D01*
X142505983Y-75802789D01*
X142325962Y-76017329D01*
X142239344Y-76174888D01*
X142122385Y-75979869D01*
X141933414Y-75771481D01*
X141707420Y-75603963D01*
X141453087Y-75483754D01*
X141319039Y-75443096D01*
X141097000Y-75565085D01*
X141097000Y-76708000D01*
X141117000Y-76708000D01*
X141117000Y-76962000D01*
X141097000Y-76962000D01*
X141097000Y-78104915D01*
X141138200Y-78127550D01*
X141097000Y-78168750D01*
X141097000Y-79268000D01*
X142071250Y-79268000D01*
X142230000Y-79109250D01*
X142230000Y-78582458D01*
X142205597Y-78459777D01*
X142157730Y-78344215D01*
X142088237Y-78240211D01*
X141999789Y-78151763D01*
X141895785Y-78082270D01*
X141780223Y-78034403D01*
X141756471Y-78029678D01*
X141933414Y-77898519D01*
X142122385Y-77690131D01*
X142239593Y-77494696D01*
X142314758Y-77636060D01*
X142491766Y-77853093D01*
X142707558Y-78031612D01*
X142953915Y-78164817D01*
X143221453Y-78247633D01*
X143499982Y-78276908D01*
X143778892Y-78251525D01*
X144047560Y-78172452D01*
X144295753Y-78042700D01*
X144514017Y-77867211D01*
X144694038Y-77652671D01*
X144780228Y-77495891D01*
X144854758Y-77636060D01*
X145031766Y-77853093D01*
X145247558Y-78031612D01*
X145493915Y-78164817D01*
X145761453Y-78247633D01*
X146039982Y-78276908D01*
X146318892Y-78251525D01*
X146587560Y-78172452D01*
X146835753Y-78042700D01*
X147054017Y-77867211D01*
X147234038Y-77652671D01*
X147320228Y-77495891D01*
X147394758Y-77636060D01*
X147571766Y-77853093D01*
X147787558Y-78031612D01*
X148033915Y-78164817D01*
X148301453Y-78247633D01*
X148579982Y-78276908D01*
X148858892Y-78251525D01*
X149127560Y-78172452D01*
X149375753Y-78042700D01*
X149594017Y-77867211D01*
X149774038Y-77652671D01*
X149805743Y-77595000D01*
X152085198Y-77595000D01*
X152269017Y-77778819D01*
X152257367Y-77816453D01*
X152228092Y-78094982D01*
X152253475Y-78373892D01*
X152332548Y-78642560D01*
X152462300Y-78890753D01*
X152637789Y-79109017D01*
X152852329Y-79289038D01*
X153009109Y-79375228D01*
X152868940Y-79449758D01*
X152651907Y-79626766D01*
X152473388Y-79842558D01*
X152450440Y-79885000D01*
X147320000Y-79885000D01*
X147250119Y-79891852D01*
X147180197Y-79897969D01*
X147176359Y-79899084D01*
X147172382Y-79899474D01*
X147105212Y-79919754D01*
X147037761Y-79939350D01*
X147034210Y-79941191D01*
X147030387Y-79942345D01*
X146968426Y-79975290D01*
X146906075Y-80007610D01*
X146902952Y-80010103D01*
X146899422Y-80011980D01*
X146844989Y-80056375D01*
X146790155Y-80100148D01*
X146784596Y-80105630D01*
X146784478Y-80105726D01*
X146784388Y-80105835D01*
X146782599Y-80107599D01*
X143836181Y-83054017D01*
X143798547Y-83042367D01*
X143520018Y-83013092D01*
X143241108Y-83038475D01*
X142972440Y-83117548D01*
X142724247Y-83247300D01*
X142505983Y-83422789D01*
X142325962Y-83637329D01*
X142239772Y-83794109D01*
X142165242Y-83653940D01*
X141988234Y-83436907D01*
X141855000Y-83326686D01*
X141855000Y-83225806D01*
X141867634Y-83221894D01*
X142017559Y-83123100D01*
X142134025Y-82986450D01*
X142207810Y-82822763D01*
X142233072Y-82645000D01*
X142233072Y-81145000D01*
X142225008Y-81043879D01*
X142171894Y-80872366D01*
X142073100Y-80722441D01*
X141985503Y-80647783D01*
X141999789Y-80638237D01*
X142088237Y-80549789D01*
X142157730Y-80445785D01*
X142205597Y-80330223D01*
X142230000Y-80207542D01*
X142230000Y-79680750D01*
X142071250Y-79522000D01*
X141097000Y-79522000D01*
X141097000Y-79542000D01*
X140843000Y-79542000D01*
X140843000Y-79522000D01*
X139868750Y-79522000D01*
X139710000Y-79680750D01*
X139710000Y-80207542D01*
X139734403Y-80330223D01*
X139782270Y-80445785D01*
X139851763Y-80549789D01*
X139940211Y-80638237D01*
X139952985Y-80646773D01*
X139922441Y-80666900D01*
X139805975Y-80803550D01*
X139732190Y-80967237D01*
X139706928Y-81145000D01*
X139706928Y-82645000D01*
X139714992Y-82746121D01*
X139768106Y-82917634D01*
X139866900Y-83067559D01*
X140003550Y-83184025D01*
X140085000Y-83220740D01*
X140085000Y-83327097D01*
X139965983Y-83422789D01*
X139785962Y-83637329D01*
X139651041Y-83882750D01*
X139566358Y-84149704D01*
X139535140Y-84428021D01*
X139535000Y-84448057D01*
X139535000Y-84461943D01*
X139550758Y-84622662D01*
X134253420Y-89920000D01*
X133407928Y-89920000D01*
X133221469Y-89732234D01*
X132996199Y-89580288D01*
X132892192Y-89536568D01*
X132933032Y-89521817D01*
X133046201Y-89461326D01*
X133111796Y-89222401D01*
X132334000Y-88444605D01*
X132319858Y-88458748D01*
X132140253Y-88279143D01*
X132154395Y-88265000D01*
X132513605Y-88265000D01*
X133291401Y-89042796D01*
X133530326Y-88977201D01*
X133646283Y-88730125D01*
X133711809Y-88465173D01*
X133724387Y-88192530D01*
X133683533Y-87922671D01*
X133590817Y-87665968D01*
X133530326Y-87552799D01*
X133291401Y-87487204D01*
X132513605Y-88265000D01*
X132154395Y-88265000D01*
X131376599Y-87487204D01*
X131137674Y-87552799D01*
X131021717Y-87799875D01*
X130956191Y-88064827D01*
X130943613Y-88337470D01*
X130984467Y-88607329D01*
X130999879Y-88650000D01*
X130867928Y-88650000D01*
X130681469Y-88462234D01*
X130456199Y-88310288D01*
X130352192Y-88266568D01*
X130393032Y-88251817D01*
X130506201Y-88191326D01*
X130571796Y-87952401D01*
X129794000Y-87174605D01*
X129016204Y-87952401D01*
X129081799Y-88191326D01*
X129238636Y-88264932D01*
X129148965Y-88301162D01*
X128921596Y-88449948D01*
X128727456Y-88640064D01*
X128573941Y-88864267D01*
X128466897Y-89114018D01*
X128410403Y-89379805D01*
X128406609Y-89651502D01*
X128409603Y-89667817D01*
X125612210Y-92465210D01*
X125560284Y-92528426D01*
X125507775Y-92591004D01*
X125505534Y-92595081D01*
X125502579Y-92598678D01*
X125463957Y-92670708D01*
X125424565Y-92742361D01*
X125423157Y-92746800D01*
X125420959Y-92750899D01*
X125397073Y-92829026D01*
X125372339Y-92906998D01*
X125371820Y-92911626D01*
X125370460Y-92916074D01*
X125362206Y-92997339D01*
X125353086Y-93078643D01*
X125353023Y-93087747D01*
X125353006Y-93087911D01*
X125353020Y-93088064D01*
X125353000Y-93091000D01*
X125353000Y-93269585D01*
X125019644Y-92933894D01*
X124619692Y-92664123D01*
X124174959Y-92477174D01*
X123702383Y-92380168D01*
X123219966Y-92376800D01*
X122746082Y-92467199D01*
X122298782Y-92647920D01*
X121895102Y-92912080D01*
X121550420Y-93249618D01*
X121277864Y-93647676D01*
X121087815Y-94091094D01*
X120987512Y-94562981D01*
X120980776Y-95045363D01*
X121067864Y-95519866D01*
X121245458Y-95968417D01*
X121506794Y-96373931D01*
X121841917Y-96720961D01*
X122238063Y-96996290D01*
X122680143Y-97189430D01*
X123151318Y-97293024D01*
X123633641Y-97303128D01*
X124108741Y-97219355D01*
X124558521Y-97044897D01*
X124965849Y-96786398D01*
X125315211Y-96453706D01*
X125353000Y-96400136D01*
X125353000Y-98185421D01*
X122304072Y-101234348D01*
X122304072Y-100736400D01*
X122296008Y-100635279D01*
X122242894Y-100463766D01*
X122144100Y-100313841D01*
X122007450Y-100197375D01*
X121843763Y-100123590D01*
X121666000Y-100098328D01*
X119634000Y-100098328D01*
X119532879Y-100106392D01*
X119361366Y-100159506D01*
X119211441Y-100258300D01*
X119094975Y-100394950D01*
X119021190Y-100558637D01*
X118995928Y-100736400D01*
X118995928Y-102463600D01*
X119003992Y-102564721D01*
X119057106Y-102736234D01*
X119155900Y-102886159D01*
X119292550Y-103002625D01*
X119441867Y-103069933D01*
X119433647Y-103076637D01*
X119247216Y-103301994D01*
X119108108Y-103559269D01*
X119021621Y-103838665D01*
X118991049Y-104129538D01*
X119017556Y-104420810D01*
X119100134Y-104701385D01*
X119235637Y-104960578D01*
X119418903Y-105188515D01*
X119642952Y-105376515D01*
X119704872Y-105410556D01*
X119498271Y-105561514D01*
X119299267Y-105777965D01*
X119146314Y-106029081D01*
X119045291Y-106305211D01*
X119042642Y-106320974D01*
X119163783Y-106553000D01*
X120523000Y-106553000D01*
X120523000Y-106533000D01*
X120777000Y-106533000D01*
X120777000Y-106553000D01*
X122136217Y-106553000D01*
X122257358Y-106320974D01*
X122254709Y-106305211D01*
X122153686Y-106029081D01*
X122000733Y-105777965D01*
X121801729Y-105561514D01*
X121596205Y-105411343D01*
X121639701Y-105388216D01*
X121866353Y-105203363D01*
X122052784Y-104978006D01*
X122191892Y-104720731D01*
X122278379Y-104441335D01*
X122308951Y-104150462D01*
X122282444Y-103859190D01*
X122259693Y-103781887D01*
X126863789Y-99177790D01*
X126915669Y-99114630D01*
X126968225Y-99051996D01*
X126970468Y-99047915D01*
X126973420Y-99044322D01*
X127012013Y-98972347D01*
X127051435Y-98900639D01*
X127052844Y-98896198D01*
X127055040Y-98892102D01*
X127078917Y-98814006D01*
X127103661Y-98736002D01*
X127104180Y-98731374D01*
X127105540Y-98726926D01*
X127113795Y-98645656D01*
X127122914Y-98564357D01*
X127122977Y-98555254D01*
X127122994Y-98555090D01*
X127122980Y-98554937D01*
X127123000Y-98552000D01*
X127123000Y-93457580D01*
X128406857Y-92173722D01*
X128406609Y-92191502D01*
X128455660Y-92458763D01*
X128555689Y-92711406D01*
X128702884Y-92939808D01*
X128891640Y-93135270D01*
X129114766Y-93290347D01*
X129363764Y-93399131D01*
X129629149Y-93457480D01*
X129900814Y-93463171D01*
X130168410Y-93415986D01*
X130421745Y-93317724D01*
X130651169Y-93172127D01*
X130847945Y-92984741D01*
X131004575Y-92762702D01*
X131115095Y-92514470D01*
X131175296Y-92249498D01*
X131179629Y-91939138D01*
X131126851Y-91672589D01*
X131023305Y-91421367D01*
X130872935Y-91195042D01*
X130681469Y-91002234D01*
X130456199Y-90850288D01*
X130349884Y-90805597D01*
X130421745Y-90777724D01*
X130651169Y-90632127D01*
X130783516Y-90506096D01*
X130950084Y-90672663D01*
X130946609Y-90921502D01*
X130995660Y-91188763D01*
X131095689Y-91441406D01*
X131242884Y-91669808D01*
X131431640Y-91865270D01*
X131654766Y-92020347D01*
X131779193Y-92074707D01*
X131688965Y-92111162D01*
X131461596Y-92259948D01*
X131267456Y-92450064D01*
X131113941Y-92674267D01*
X131006897Y-92924018D01*
X130950403Y-93189805D01*
X130946609Y-93461502D01*
X130995660Y-93728763D01*
X131095689Y-93981406D01*
X131242884Y-94209808D01*
X131431640Y-94405270D01*
X131654766Y-94560347D01*
X131903764Y-94669131D01*
X132169149Y-94727480D01*
X132440814Y-94733171D01*
X132708410Y-94685986D01*
X132961745Y-94587724D01*
X133191169Y-94442127D01*
X133387945Y-94254741D01*
X133544575Y-94032702D01*
X133655095Y-93784470D01*
X133715296Y-93519498D01*
X133719629Y-93209138D01*
X133666851Y-92942589D01*
X133563305Y-92691367D01*
X133412935Y-92465042D01*
X133221469Y-92272234D01*
X132996199Y-92120288D01*
X132889884Y-92075597D01*
X132961745Y-92047724D01*
X133191169Y-91902127D01*
X133387945Y-91714741D01*
X133405398Y-91690000D01*
X134620000Y-91690000D01*
X134701356Y-91682023D01*
X134782796Y-91674898D01*
X134787267Y-91673599D01*
X134791897Y-91673145D01*
X134870131Y-91649525D01*
X134948660Y-91626710D01*
X134952793Y-91624568D01*
X134957247Y-91623223D01*
X135029388Y-91584865D01*
X135102006Y-91547224D01*
X135105646Y-91544318D01*
X135109752Y-91542135D01*
X135173071Y-91490493D01*
X135236991Y-91439466D01*
X135243474Y-91433073D01*
X135243601Y-91432970D01*
X135243698Y-91432853D01*
X135245790Y-91430790D01*
X138180000Y-88496580D01*
X138180000Y-94615000D01*
X138187977Y-94696356D01*
X138195102Y-94777796D01*
X138196401Y-94782267D01*
X138196855Y-94786897D01*
X138220475Y-94865131D01*
X138243290Y-94943660D01*
X138245432Y-94947793D01*
X138246777Y-94952247D01*
X138285135Y-95024388D01*
X138322776Y-95097006D01*
X138325682Y-95100646D01*
X138327865Y-95104752D01*
X138379507Y-95168071D01*
X138430534Y-95231991D01*
X138436927Y-95238474D01*
X138437030Y-95238601D01*
X138437147Y-95238698D01*
X138439210Y-95240790D01*
X139550904Y-96352483D01*
X139535140Y-96493021D01*
X139535000Y-96513057D01*
X139535000Y-96526943D01*
X139562329Y-96805669D01*
X139643276Y-97073779D01*
X139774758Y-97321060D01*
X139951766Y-97538093D01*
X140085000Y-97648314D01*
X140085000Y-98058421D01*
X138439210Y-99704210D01*
X138387284Y-99767426D01*
X138334775Y-99830004D01*
X138332534Y-99834081D01*
X138329579Y-99837678D01*
X138290957Y-99909708D01*
X138251565Y-99981361D01*
X138250157Y-99985800D01*
X138247959Y-99989899D01*
X138224073Y-100068026D01*
X138199339Y-100145998D01*
X138198820Y-100150626D01*
X138197460Y-100155074D01*
X138189206Y-100236339D01*
X138180086Y-100317643D01*
X138180023Y-100326747D01*
X138180006Y-100326911D01*
X138180020Y-100327064D01*
X138180000Y-100330000D01*
X138180000Y-106680000D01*
X138187977Y-106761356D01*
X138195102Y-106842796D01*
X138196401Y-106847267D01*
X138196855Y-106851897D01*
X138220475Y-106930131D01*
X138243290Y-107008660D01*
X138245432Y-107012793D01*
X138246777Y-107017247D01*
X138285135Y-107089388D01*
X138322776Y-107162006D01*
X138325682Y-107165646D01*
X138327865Y-107169752D01*
X138379507Y-107233071D01*
X138430534Y-107296991D01*
X138436927Y-107303474D01*
X138437030Y-107303601D01*
X138437147Y-107303698D01*
X138439210Y-107305790D01*
X139550904Y-108417483D01*
X139535140Y-108558021D01*
X139535000Y-108578057D01*
X139535000Y-108591943D01*
X139562329Y-108870669D01*
X139643276Y-109138779D01*
X139774758Y-109386060D01*
X139951766Y-109603093D01*
X140085000Y-109713314D01*
X140085000Y-110123421D01*
X138439210Y-111769210D01*
X138387284Y-111832426D01*
X138334775Y-111895004D01*
X138332534Y-111899081D01*
X138329579Y-111902678D01*
X138290957Y-111974708D01*
X138251565Y-112046361D01*
X138250157Y-112050800D01*
X138247959Y-112054899D01*
X138224073Y-112133026D01*
X138199339Y-112210998D01*
X138198820Y-112215626D01*
X138197460Y-112220074D01*
X138189206Y-112301339D01*
X138180086Y-112382643D01*
X138180023Y-112391747D01*
X138180006Y-112391911D01*
X138180020Y-112392064D01*
X138180000Y-112395000D01*
X138180000Y-118745000D01*
X138187977Y-118826356D01*
X138195102Y-118907796D01*
X138196401Y-118912267D01*
X138196855Y-118916897D01*
X138220475Y-118995131D01*
X138243290Y-119073660D01*
X138245432Y-119077793D01*
X138246777Y-119082247D01*
X138285135Y-119154388D01*
X138322776Y-119227006D01*
X138325682Y-119230646D01*
X138327865Y-119234752D01*
X138379507Y-119298071D01*
X138430534Y-119361991D01*
X138436927Y-119368474D01*
X138437030Y-119368601D01*
X138437147Y-119368698D01*
X138439210Y-119370790D01*
X139550904Y-120482483D01*
X139535140Y-120623021D01*
X139535000Y-120643057D01*
X139535000Y-120656943D01*
X139562329Y-120935669D01*
X139643276Y-121203779D01*
X139774758Y-121451060D01*
X139951766Y-121668093D01*
X140167558Y-121846612D01*
X140413915Y-121979817D01*
X140681453Y-122062633D01*
X140959982Y-122091908D01*
X141143616Y-122075196D01*
X142122211Y-123053790D01*
X142185380Y-123105677D01*
X142196490Y-123115000D01*
X118779729Y-123115000D01*
X118689127Y-123106117D01*
X116312745Y-120945770D01*
X116280000Y-120634228D01*
X116280000Y-120366249D01*
X116963495Y-120366249D01*
X117057911Y-120880682D01*
X117250450Y-121366979D01*
X117533777Y-121806616D01*
X117897101Y-122182850D01*
X118326583Y-122481347D01*
X118805864Y-122690740D01*
X119316689Y-122803052D01*
X119839600Y-122814006D01*
X120354679Y-122723183D01*
X120842309Y-122534044D01*
X121283914Y-122253793D01*
X121662674Y-121893104D01*
X121964163Y-121465717D01*
X122176897Y-120987909D01*
X122292772Y-120477881D01*
X122301114Y-119880487D01*
X122199524Y-119367423D01*
X122000215Y-118883861D01*
X121710777Y-118448222D01*
X121342235Y-118077098D01*
X120908627Y-117784626D01*
X120426469Y-117581946D01*
X119914126Y-117476777D01*
X119391113Y-117473125D01*
X118877352Y-117571131D01*
X118392411Y-117767059D01*
X117954762Y-118053449D01*
X117581074Y-118419391D01*
X117285582Y-118850946D01*
X117079541Y-119331678D01*
X116970797Y-119843274D01*
X116963495Y-120366249D01*
X116280000Y-120366249D01*
X116280000Y-109209538D01*
X118991049Y-109209538D01*
X119017556Y-109500810D01*
X119100134Y-109781385D01*
X119235637Y-110040578D01*
X119418903Y-110268515D01*
X119642952Y-110456515D01*
X119702587Y-110489299D01*
X119660299Y-110511784D01*
X119433647Y-110696637D01*
X119247216Y-110921994D01*
X119108108Y-111179269D01*
X119021621Y-111458665D01*
X118991049Y-111749538D01*
X119017556Y-112040810D01*
X119100134Y-112321385D01*
X119235637Y-112580578D01*
X119418903Y-112808515D01*
X119642952Y-112996515D01*
X119702587Y-113029299D01*
X119660299Y-113051784D01*
X119433647Y-113236637D01*
X119247216Y-113461994D01*
X119108108Y-113719269D01*
X119021621Y-113998665D01*
X118991049Y-114289538D01*
X119017556Y-114580810D01*
X119100134Y-114861385D01*
X119235637Y-115120578D01*
X119418903Y-115348515D01*
X119642952Y-115536515D01*
X119899251Y-115677416D01*
X120178036Y-115765852D01*
X120468688Y-115798454D01*
X120489612Y-115798600D01*
X120810388Y-115798600D01*
X121101468Y-115770059D01*
X121381460Y-115685525D01*
X121639701Y-115548216D01*
X121866353Y-115363363D01*
X122052784Y-115138006D01*
X122191892Y-114880731D01*
X122278379Y-114601335D01*
X122308951Y-114310462D01*
X122282444Y-114019190D01*
X122199866Y-113738615D01*
X122064363Y-113479422D01*
X121881097Y-113251485D01*
X121657048Y-113063485D01*
X121597413Y-113030701D01*
X121639701Y-113008216D01*
X121866353Y-112823363D01*
X122052784Y-112598006D01*
X122191892Y-112340731D01*
X122278379Y-112061335D01*
X122308951Y-111770462D01*
X122282444Y-111479190D01*
X122199866Y-111198615D01*
X122064363Y-110939422D01*
X121881097Y-110711485D01*
X121657048Y-110523485D01*
X121597413Y-110490701D01*
X121639701Y-110468216D01*
X121866353Y-110283363D01*
X122052784Y-110058006D01*
X122191892Y-109800731D01*
X122278379Y-109521335D01*
X122308951Y-109230462D01*
X122282444Y-108939190D01*
X122199866Y-108658615D01*
X122064363Y-108399422D01*
X121881097Y-108171485D01*
X121657048Y-107983485D01*
X121595128Y-107949444D01*
X121801729Y-107798486D01*
X122000733Y-107582035D01*
X122153686Y-107330919D01*
X122254709Y-107054789D01*
X122257358Y-107039026D01*
X122136217Y-106807000D01*
X120777000Y-106807000D01*
X120777000Y-106827000D01*
X120523000Y-106827000D01*
X120523000Y-106807000D01*
X119163783Y-106807000D01*
X119042642Y-107039026D01*
X119045291Y-107054789D01*
X119146314Y-107330919D01*
X119299267Y-107582035D01*
X119498271Y-107798486D01*
X119703795Y-107948657D01*
X119660299Y-107971784D01*
X119433647Y-108156637D01*
X119247216Y-108381994D01*
X119108108Y-108639269D01*
X119021621Y-108918665D01*
X118991049Y-109209538D01*
X116280000Y-109209538D01*
X116280000Y-87067470D01*
X128403613Y-87067470D01*
X128444467Y-87337329D01*
X128537183Y-87594032D01*
X128597674Y-87707201D01*
X128836599Y-87772796D01*
X129614395Y-86995000D01*
X129973605Y-86995000D01*
X130751401Y-87772796D01*
X130990326Y-87707201D01*
X131106283Y-87460125D01*
X131171809Y-87195173D01*
X131184387Y-86922530D01*
X131143533Y-86652671D01*
X131050817Y-86395968D01*
X130990326Y-86282799D01*
X130751401Y-86217204D01*
X129973605Y-86995000D01*
X129614395Y-86995000D01*
X128836599Y-86217204D01*
X128597674Y-86282799D01*
X128481717Y-86529875D01*
X128416191Y-86794827D01*
X128403613Y-87067470D01*
X116280000Y-87067470D01*
X116280000Y-83175943D01*
X120980776Y-83175943D01*
X121067864Y-83650446D01*
X121245458Y-84098997D01*
X121506794Y-84504511D01*
X121841917Y-84851541D01*
X122238063Y-85126870D01*
X122680143Y-85320010D01*
X123151318Y-85423604D01*
X123633641Y-85433708D01*
X124108741Y-85349935D01*
X124558521Y-85175477D01*
X124965849Y-84916978D01*
X125315211Y-84584286D01*
X125593298Y-84190071D01*
X125789520Y-83749351D01*
X125799725Y-83704430D01*
X128405358Y-83704430D01*
X128405358Y-85205570D01*
X128413422Y-85306691D01*
X128466536Y-85478204D01*
X128565330Y-85628129D01*
X128701980Y-85744595D01*
X128865667Y-85818380D01*
X129043430Y-85843642D01*
X129069453Y-85843642D01*
X129016204Y-86037599D01*
X129794000Y-86815395D01*
X130571796Y-86037599D01*
X130518547Y-85843642D01*
X130544570Y-85843642D01*
X130645691Y-85835578D01*
X130817204Y-85782464D01*
X130948643Y-85695852D01*
X130946609Y-85841502D01*
X130995660Y-86108763D01*
X131095689Y-86361406D01*
X131242884Y-86589808D01*
X131431640Y-86785270D01*
X131654766Y-86940347D01*
X131776063Y-86993340D01*
X131734968Y-87008183D01*
X131621799Y-87068674D01*
X131556204Y-87307599D01*
X132334000Y-88085395D01*
X133111796Y-87307599D01*
X133046201Y-87068674D01*
X132890217Y-86995468D01*
X132961745Y-86967724D01*
X133191169Y-86822127D01*
X133387945Y-86634741D01*
X133544575Y-86412702D01*
X133655095Y-86164470D01*
X133715296Y-85899498D01*
X133719629Y-85589138D01*
X133666851Y-85322589D01*
X133563305Y-85071367D01*
X133412935Y-84845042D01*
X133221469Y-84652234D01*
X132996199Y-84500288D01*
X132745707Y-84394991D01*
X132479532Y-84340353D01*
X132207815Y-84338456D01*
X131940903Y-84389372D01*
X131688965Y-84491162D01*
X131461596Y-84639948D01*
X131267456Y-84830064D01*
X131182642Y-84953932D01*
X131182642Y-83704430D01*
X131174578Y-83603309D01*
X131121464Y-83431796D01*
X131022670Y-83281871D01*
X130886020Y-83165405D01*
X130722333Y-83091620D01*
X130544570Y-83066358D01*
X129043430Y-83066358D01*
X128942309Y-83074422D01*
X128770796Y-83127536D01*
X128620871Y-83226330D01*
X128504405Y-83362980D01*
X128430620Y-83526667D01*
X128405358Y-83704430D01*
X125799725Y-83704430D01*
X125896401Y-83278910D01*
X125904096Y-82727886D01*
X125810391Y-82254644D01*
X125626552Y-81808617D01*
X125359580Y-81406791D01*
X125019644Y-81064474D01*
X124619692Y-80794703D01*
X124174959Y-80607754D01*
X123702383Y-80510748D01*
X123219966Y-80507380D01*
X122746082Y-80597779D01*
X122298782Y-80778500D01*
X121895102Y-81042660D01*
X121550420Y-81380198D01*
X121277864Y-81778256D01*
X121087815Y-82221674D01*
X120987512Y-82693561D01*
X120980776Y-83175943D01*
X116280000Y-83175943D01*
X116280000Y-77694249D01*
X116836495Y-77694249D01*
X116930911Y-78208682D01*
X117123450Y-78694979D01*
X117406777Y-79134616D01*
X117770101Y-79510850D01*
X118199583Y-79809347D01*
X118678864Y-80018740D01*
X119189689Y-80131052D01*
X119712600Y-80142006D01*
X120227679Y-80051183D01*
X120715309Y-79862044D01*
X121156914Y-79581793D01*
X121535674Y-79221104D01*
X121837163Y-78793717D01*
X122049897Y-78315909D01*
X122165772Y-77805881D01*
X122174114Y-77208487D01*
X122169274Y-77184040D01*
X139578091Y-77184040D01*
X139672930Y-77448881D01*
X139817615Y-77690131D01*
X140006586Y-77898519D01*
X140183529Y-78029678D01*
X140159777Y-78034403D01*
X140044215Y-78082270D01*
X139940211Y-78151763D01*
X139851763Y-78240211D01*
X139782270Y-78344215D01*
X139734403Y-78459777D01*
X139710000Y-78582458D01*
X139710000Y-79109250D01*
X139868750Y-79268000D01*
X140843000Y-79268000D01*
X140843000Y-78168750D01*
X140801800Y-78127550D01*
X140843000Y-78104915D01*
X140843000Y-76962000D01*
X139699376Y-76962000D01*
X139578091Y-77184040D01*
X122169274Y-77184040D01*
X122072524Y-76695423D01*
X121986190Y-76485960D01*
X139578091Y-76485960D01*
X139699376Y-76708000D01*
X140843000Y-76708000D01*
X140843000Y-75565085D01*
X140620961Y-75443096D01*
X140486913Y-75483754D01*
X140232580Y-75603963D01*
X140006586Y-75771481D01*
X139817615Y-75979869D01*
X139672930Y-76221119D01*
X139578091Y-76485960D01*
X121986190Y-76485960D01*
X121873215Y-76211861D01*
X121583777Y-75776222D01*
X121215235Y-75405098D01*
X120781627Y-75112626D01*
X120299469Y-74909946D01*
X119787126Y-74804777D01*
X119264113Y-74801125D01*
X118750352Y-74899131D01*
X118265411Y-75095059D01*
X117827762Y-75381449D01*
X117454074Y-75747391D01*
X117158582Y-76178946D01*
X116952541Y-76659678D01*
X116843797Y-77171274D01*
X116836495Y-77694249D01*
X116280000Y-77694249D01*
X116280000Y-76869719D01*
X116286850Y-76799858D01*
X118583228Y-74388661D01*
X118760773Y-74370000D01*
X180940281Y-74370000D01*
X181152101Y-74390769D01*
X181152101Y-74390769D01*
G37*
X181152101Y-74390769D02*
X183406547Y-76532491D01*
X183440000Y-76850773D01*
X183440000Y-121163021D01*
X181143554Y-123115000D01*
X173274069Y-123115000D01*
X173298456Y-123097787D01*
X173319715Y-123075451D01*
X173343601Y-123055970D01*
X173379112Y-123013044D01*
X173417535Y-122972675D01*
X173425072Y-122962882D01*
X175491276Y-120239249D01*
X177542495Y-120239249D01*
X177636911Y-120753682D01*
X177829450Y-121239979D01*
X178112777Y-121679616D01*
X178476101Y-122055850D01*
X178905583Y-122354347D01*
X179384864Y-122563740D01*
X179895689Y-122676052D01*
X180418600Y-122687006D01*
X180933679Y-122596183D01*
X181421309Y-122407044D01*
X181862914Y-122126793D01*
X182241674Y-121766104D01*
X182543163Y-121338717D01*
X182755897Y-120860909D01*
X182871772Y-120350881D01*
X182880114Y-119753487D01*
X182778524Y-119240423D01*
X182579215Y-118756861D01*
X182289777Y-118321222D01*
X181921235Y-117950098D01*
X181487627Y-117657626D01*
X181005469Y-117454946D01*
X180493126Y-117349777D01*
X179970113Y-117346125D01*
X179456352Y-117444131D01*
X178971411Y-117640059D01*
X178533762Y-117926449D01*
X178160074Y-118292391D01*
X177864582Y-118723946D01*
X177658541Y-119204678D01*
X177549797Y-119716274D01*
X177542495Y-120239249D01*
X175491276Y-120239249D01*
X176219072Y-119279882D01*
X176230367Y-119261512D01*
X176244225Y-119244996D01*
X176275517Y-119188076D01*
X176309536Y-119132746D01*
X176317045Y-119112537D01*
X176327435Y-119093639D01*
X176347078Y-119031717D01*
X176369699Y-118970841D01*
X176373140Y-118949558D01*
X176379661Y-118929002D01*
X176386901Y-118864451D01*
X176397269Y-118800333D01*
X176396511Y-118778784D01*
X176398914Y-118757357D01*
X176399000Y-118745000D01*
X176399000Y-107253713D01*
X176577216Y-107108363D01*
X176763647Y-106883006D01*
X176902755Y-106625731D01*
X176989242Y-106346335D01*
X177019814Y-106055462D01*
X176993307Y-105764190D01*
X176910729Y-105483615D01*
X176775226Y-105224422D01*
X176591960Y-104996485D01*
X176399000Y-104834572D01*
X176399000Y-104713713D01*
X176577216Y-104568363D01*
X176763647Y-104343006D01*
X176902755Y-104085731D01*
X176989242Y-103806335D01*
X177019814Y-103515462D01*
X176993307Y-103224190D01*
X176910729Y-102943615D01*
X176775226Y-102684422D01*
X176591960Y-102456485D01*
X176399000Y-102294572D01*
X176399000Y-102173713D01*
X176577216Y-102028363D01*
X176763647Y-101803006D01*
X176902755Y-101545731D01*
X176989242Y-101266335D01*
X177019814Y-100975462D01*
X176993307Y-100684190D01*
X176910729Y-100403615D01*
X176775226Y-100144422D01*
X176591960Y-99916485D01*
X176399000Y-99754572D01*
X176399000Y-99633713D01*
X176577216Y-99488363D01*
X176763647Y-99263006D01*
X176902755Y-99005731D01*
X176989242Y-98726335D01*
X177019814Y-98435462D01*
X176993307Y-98144190D01*
X176910729Y-97863615D01*
X176775226Y-97604422D01*
X176591960Y-97376485D01*
X176399000Y-97214572D01*
X176399000Y-97093713D01*
X176577216Y-96948363D01*
X176763647Y-96723006D01*
X176902755Y-96465731D01*
X176989242Y-96186335D01*
X177019814Y-95895462D01*
X176993307Y-95604190D01*
X176910729Y-95323615D01*
X176775226Y-95064422D01*
X176591960Y-94836485D01*
X176399000Y-94674572D01*
X176399000Y-94553713D01*
X176577216Y-94408363D01*
X176763647Y-94183006D01*
X176902755Y-93925731D01*
X176989242Y-93646335D01*
X177019814Y-93355462D01*
X176993307Y-93064190D01*
X176910729Y-92783615D01*
X176775226Y-92524422D01*
X176591960Y-92296485D01*
X176399000Y-92134572D01*
X176399000Y-92013713D01*
X176577216Y-91868363D01*
X176763647Y-91643006D01*
X176902755Y-91385731D01*
X176989242Y-91106335D01*
X177019814Y-90815462D01*
X176993307Y-90524190D01*
X176910729Y-90243615D01*
X176775226Y-89984422D01*
X176591960Y-89756485D01*
X176399000Y-89594572D01*
X176399000Y-89473713D01*
X176577216Y-89328363D01*
X176763647Y-89103006D01*
X176902755Y-88845731D01*
X176989242Y-88566335D01*
X177019814Y-88275462D01*
X176993307Y-87984190D01*
X176910729Y-87703615D01*
X176775226Y-87444422D01*
X176591960Y-87216485D01*
X176399000Y-87054572D01*
X176399000Y-86933713D01*
X176577216Y-86788363D01*
X176763647Y-86563006D01*
X176902755Y-86305731D01*
X176989242Y-86026335D01*
X177019814Y-85735462D01*
X176993307Y-85444190D01*
X176910729Y-85163615D01*
X176775226Y-84904422D01*
X176591960Y-84676485D01*
X176399000Y-84514572D01*
X176399000Y-84393713D01*
X176577216Y-84248363D01*
X176763647Y-84023006D01*
X176902755Y-83765731D01*
X176989242Y-83486335D01*
X177019814Y-83195462D01*
X176993307Y-82904190D01*
X176910729Y-82623615D01*
X176775226Y-82364422D01*
X176591960Y-82136485D01*
X176399000Y-81974572D01*
X176399000Y-81853713D01*
X176577216Y-81708363D01*
X176763647Y-81483006D01*
X176902755Y-81225731D01*
X176989242Y-80946335D01*
X177019814Y-80655462D01*
X176993307Y-80364190D01*
X176910729Y-80083615D01*
X176775226Y-79824422D01*
X176591960Y-79596485D01*
X176399000Y-79434572D01*
X176399000Y-79313713D01*
X176577216Y-79168363D01*
X176763647Y-78943006D01*
X176902755Y-78685731D01*
X176989242Y-78406335D01*
X177019814Y-78115462D01*
X176993307Y-77824190D01*
X176955064Y-77694249D01*
X177669495Y-77694249D01*
X177763911Y-78208682D01*
X177956450Y-78694979D01*
X178239777Y-79134616D01*
X178603101Y-79510850D01*
X179032583Y-79809347D01*
X179511864Y-80018740D01*
X180022689Y-80131052D01*
X180545600Y-80142006D01*
X181060679Y-80051183D01*
X181548309Y-79862044D01*
X181989914Y-79581793D01*
X182368674Y-79221104D01*
X182670163Y-78793717D01*
X182882897Y-78315909D01*
X182998772Y-77805881D01*
X183007114Y-77208487D01*
X182905524Y-76695423D01*
X182706215Y-76211861D01*
X182416777Y-75776222D01*
X182048235Y-75405098D01*
X181614627Y-75112626D01*
X181132469Y-74909946D01*
X180620126Y-74804777D01*
X180097113Y-74801125D01*
X179583352Y-74899131D01*
X179098411Y-75095059D01*
X178660762Y-75381449D01*
X178287074Y-75747391D01*
X177991582Y-76178946D01*
X177785541Y-76659678D01*
X177676797Y-77171274D01*
X177669495Y-77694249D01*
X176955064Y-77694249D01*
X176910729Y-77543615D01*
X176775226Y-77284422D01*
X176591960Y-77056485D01*
X176367911Y-76868485D01*
X176111612Y-76727584D01*
X175832827Y-76639148D01*
X175542175Y-76606546D01*
X175521251Y-76606400D01*
X175506749Y-76606400D01*
X175215669Y-76634941D01*
X174935677Y-76719475D01*
X174677436Y-76856784D01*
X174450784Y-77041637D01*
X174440799Y-77053707D01*
X174414494Y-76968766D01*
X174315700Y-76818841D01*
X174179050Y-76702375D01*
X174015363Y-76628590D01*
X173837600Y-76603328D01*
X172110400Y-76603328D01*
X172009279Y-76611392D01*
X171837766Y-76664506D01*
X171687841Y-76763300D01*
X171571375Y-76899950D01*
X171497590Y-77063637D01*
X171472328Y-77241400D01*
X171472328Y-78968600D01*
X171480392Y-79069721D01*
X171533506Y-79241234D01*
X171632300Y-79391159D01*
X171768950Y-79507625D01*
X171918742Y-79575147D01*
X171910784Y-79581637D01*
X171724353Y-79806994D01*
X171585245Y-80064269D01*
X171498758Y-80343665D01*
X171468186Y-80634538D01*
X171494693Y-80925810D01*
X171577271Y-81206385D01*
X171712774Y-81465578D01*
X171896040Y-81693515D01*
X172120089Y-81881515D01*
X172179724Y-81914299D01*
X172137436Y-81936784D01*
X171910784Y-82121637D01*
X171724353Y-82346994D01*
X171585245Y-82604269D01*
X171498758Y-82883665D01*
X171468186Y-83174538D01*
X171494693Y-83465810D01*
X171577271Y-83746385D01*
X171712774Y-84005578D01*
X171896040Y-84233515D01*
X172120089Y-84421515D01*
X172179724Y-84454299D01*
X172137436Y-84476784D01*
X171910784Y-84661637D01*
X171724353Y-84886994D01*
X171585245Y-85144269D01*
X171498758Y-85423665D01*
X171468186Y-85714538D01*
X171494693Y-86005810D01*
X171577271Y-86286385D01*
X171712774Y-86545578D01*
X171896040Y-86773515D01*
X172120089Y-86961515D01*
X172179724Y-86994299D01*
X172137436Y-87016784D01*
X171910784Y-87201637D01*
X171724353Y-87426994D01*
X171585245Y-87684269D01*
X171498758Y-87963665D01*
X171468186Y-88254538D01*
X171494693Y-88545810D01*
X171577271Y-88826385D01*
X171712774Y-89085578D01*
X171896040Y-89313515D01*
X172120089Y-89501515D01*
X172179724Y-89534299D01*
X172137436Y-89556784D01*
X171910784Y-89741637D01*
X171724353Y-89966994D01*
X171585245Y-90224269D01*
X171498758Y-90503665D01*
X171468186Y-90794538D01*
X171494693Y-91085810D01*
X171577271Y-91366385D01*
X171712774Y-91625578D01*
X171896040Y-91853515D01*
X172120089Y-92041515D01*
X172179724Y-92074299D01*
X172137436Y-92096784D01*
X171910784Y-92281637D01*
X171724353Y-92506994D01*
X171585245Y-92764269D01*
X171498758Y-93043665D01*
X171468186Y-93334538D01*
X171494693Y-93625810D01*
X171577271Y-93906385D01*
X171712774Y-94165578D01*
X171896040Y-94393515D01*
X172120089Y-94581515D01*
X172179724Y-94614299D01*
X172137436Y-94636784D01*
X171910784Y-94821637D01*
X171724353Y-95046994D01*
X171585245Y-95304269D01*
X171498758Y-95583665D01*
X171468186Y-95874538D01*
X171494693Y-96165810D01*
X171577271Y-96446385D01*
X171712774Y-96705578D01*
X171896040Y-96933515D01*
X172120089Y-97121515D01*
X172179724Y-97154299D01*
X172137436Y-97176784D01*
X171910784Y-97361637D01*
X171724353Y-97586994D01*
X171585245Y-97844269D01*
X171498758Y-98123665D01*
X171468186Y-98414538D01*
X171494693Y-98705810D01*
X171577271Y-98986385D01*
X171712774Y-99245578D01*
X171896040Y-99473515D01*
X172120089Y-99661515D01*
X172179724Y-99694299D01*
X172137436Y-99716784D01*
X171910784Y-99901637D01*
X171724353Y-100126994D01*
X171585245Y-100384269D01*
X171498758Y-100663665D01*
X171468186Y-100954538D01*
X171494693Y-101245810D01*
X171577271Y-101526385D01*
X171712774Y-101785578D01*
X171896040Y-102013515D01*
X172120089Y-102201515D01*
X172179724Y-102234299D01*
X172137436Y-102256784D01*
X171910784Y-102441637D01*
X171724353Y-102666994D01*
X171585245Y-102924269D01*
X171498758Y-103203665D01*
X171468186Y-103494538D01*
X171494693Y-103785810D01*
X171577271Y-104066385D01*
X171712774Y-104325578D01*
X171896040Y-104553515D01*
X172120089Y-104741515D01*
X172179724Y-104774299D01*
X172137436Y-104796784D01*
X171910784Y-104981637D01*
X171724353Y-105206994D01*
X171585245Y-105464269D01*
X171498758Y-105743665D01*
X171468186Y-106034538D01*
X171494693Y-106325810D01*
X171577271Y-106606385D01*
X171712774Y-106865578D01*
X171896040Y-107093515D01*
X172120089Y-107281515D01*
X172376388Y-107422416D01*
X172655173Y-107510852D01*
X172945825Y-107543454D01*
X172966749Y-107543600D01*
X172981251Y-107543600D01*
X173272331Y-107515059D01*
X173552323Y-107430525D01*
X173810564Y-107293216D01*
X174037216Y-107108363D01*
X174223647Y-106883006D01*
X174243088Y-106847051D01*
X174252774Y-106865578D01*
X174436040Y-107093515D01*
X174629000Y-107255428D01*
X174629000Y-118447296D01*
X173585403Y-119822947D01*
X173590814Y-119771462D01*
X173564307Y-119480190D01*
X173481729Y-119199615D01*
X173346226Y-118940422D01*
X173162960Y-118712485D01*
X172938911Y-118524485D01*
X172879276Y-118491701D01*
X172921564Y-118469216D01*
X173148216Y-118284363D01*
X173334647Y-118059006D01*
X173473755Y-117801731D01*
X173560242Y-117522335D01*
X173590814Y-117231462D01*
X173564307Y-116940190D01*
X173481729Y-116659615D01*
X173346226Y-116400422D01*
X173162960Y-116172485D01*
X172938911Y-115984485D01*
X172879276Y-115951701D01*
X172921564Y-115929216D01*
X173148216Y-115744363D01*
X173334647Y-115519006D01*
X173473755Y-115261731D01*
X173560242Y-114982335D01*
X173590814Y-114691462D01*
X173564307Y-114400190D01*
X173481729Y-114119615D01*
X173346226Y-113860422D01*
X173162960Y-113632485D01*
X172938911Y-113444485D01*
X172879276Y-113411701D01*
X172921564Y-113389216D01*
X173148216Y-113204363D01*
X173334647Y-112979006D01*
X173473755Y-112721731D01*
X173560242Y-112442335D01*
X173590814Y-112151462D01*
X173564307Y-111860190D01*
X173481729Y-111579615D01*
X173346226Y-111320422D01*
X173162960Y-111092485D01*
X172938911Y-110904485D01*
X172682612Y-110763584D01*
X172403827Y-110675148D01*
X172113175Y-110642546D01*
X172092251Y-110642400D01*
X172077749Y-110642400D01*
X171786669Y-110670941D01*
X171506677Y-110755475D01*
X171248436Y-110892784D01*
X171021784Y-111077637D01*
X171011799Y-111089707D01*
X170985494Y-111004766D01*
X170886700Y-110854841D01*
X170750050Y-110738375D01*
X170586363Y-110664590D01*
X170408600Y-110639328D01*
X168681400Y-110639328D01*
X168580279Y-110647392D01*
X168408766Y-110700506D01*
X168258841Y-110799300D01*
X168142375Y-110935950D01*
X168068590Y-111099637D01*
X168043328Y-111277400D01*
X168043328Y-113004600D01*
X168051392Y-113105721D01*
X168104506Y-113277234D01*
X168203300Y-113427159D01*
X168339950Y-113543625D01*
X168489742Y-113611147D01*
X168481784Y-113617637D01*
X168295353Y-113842994D01*
X168156245Y-114100269D01*
X168069758Y-114379665D01*
X168039186Y-114670538D01*
X168065693Y-114961810D01*
X168148271Y-115242385D01*
X168283774Y-115501578D01*
X168467040Y-115729515D01*
X168691089Y-115917515D01*
X168750724Y-115950299D01*
X168708436Y-115972784D01*
X168481784Y-116157637D01*
X168295353Y-116382994D01*
X168156245Y-116640269D01*
X168069758Y-116919665D01*
X168039186Y-117210538D01*
X168065693Y-117501810D01*
X168148271Y-117782385D01*
X168283774Y-118041578D01*
X168467040Y-118269515D01*
X168691089Y-118457515D01*
X168750724Y-118490299D01*
X168708436Y-118512784D01*
X168481784Y-118697637D01*
X168295353Y-118922994D01*
X168156245Y-119180269D01*
X168069758Y-119459665D01*
X168039186Y-119750538D01*
X168065693Y-120041810D01*
X168148271Y-120322385D01*
X168283774Y-120581578D01*
X168467040Y-120809515D01*
X168691089Y-120997515D01*
X168947388Y-121138416D01*
X169226173Y-121226852D01*
X169516825Y-121259454D01*
X169537749Y-121259600D01*
X169552251Y-121259600D01*
X169843331Y-121231059D01*
X170123323Y-121146525D01*
X170381564Y-121009216D01*
X170608216Y-120824363D01*
X170794647Y-120599006D01*
X170814088Y-120563051D01*
X170823774Y-120581578D01*
X171007040Y-120809515D01*
X171231089Y-120997515D01*
X171487388Y-121138416D01*
X171766173Y-121226852D01*
X172056825Y-121259454D01*
X172077749Y-121259600D01*
X172092251Y-121259600D01*
X172383331Y-121231059D01*
X172556944Y-121178643D01*
X172280535Y-121543000D01*
X149710829Y-121543000D01*
X149774038Y-121467671D01*
X149908959Y-121222250D01*
X149993642Y-120955296D01*
X150024860Y-120676979D01*
X150025000Y-120656943D01*
X150025000Y-120643057D01*
X149997671Y-120364331D01*
X149916724Y-120096221D01*
X149785242Y-119848940D01*
X149687454Y-119729039D01*
X152278096Y-119729039D01*
X152318754Y-119863087D01*
X152438963Y-120117420D01*
X152606481Y-120343414D01*
X152814869Y-120532385D01*
X153056119Y-120677070D01*
X153320960Y-120771909D01*
X153543000Y-120650624D01*
X153543000Y-119507000D01*
X153797000Y-119507000D01*
X153797000Y-120650624D01*
X154019040Y-120771909D01*
X154283881Y-120677070D01*
X154525131Y-120532385D01*
X154733519Y-120343414D01*
X154901037Y-120117420D01*
X155021246Y-119863087D01*
X155061904Y-119729039D01*
X154939915Y-119507000D01*
X153797000Y-119507000D01*
X153543000Y-119507000D01*
X152400085Y-119507000D01*
X152278096Y-119729039D01*
X149687454Y-119729039D01*
X149608234Y-119631907D01*
X149392442Y-119453388D01*
X149146085Y-119320183D01*
X148878547Y-119237367D01*
X148600018Y-119208092D01*
X148563375Y-119211427D01*
X151317802Y-116457000D01*
X152273000Y-116457000D01*
X152287031Y-116455624D01*
X152257367Y-116551453D01*
X152228092Y-116829982D01*
X152253475Y-117108892D01*
X152332548Y-117377560D01*
X152462300Y-117625753D01*
X152637789Y-117844017D01*
X152852329Y-118024038D01*
X153009888Y-118110656D01*
X152814869Y-118227615D01*
X152606481Y-118416586D01*
X152438963Y-118642580D01*
X152318754Y-118896913D01*
X152278096Y-119030961D01*
X152400085Y-119253000D01*
X153543000Y-119253000D01*
X153543000Y-119233000D01*
X153797000Y-119233000D01*
X153797000Y-119253000D01*
X154939915Y-119253000D01*
X155061904Y-119030961D01*
X155021246Y-118896913D01*
X154901037Y-118642580D01*
X154733519Y-118416586D01*
X154525131Y-118227615D01*
X154329696Y-118110407D01*
X154471060Y-118035242D01*
X154688093Y-117858234D01*
X154866612Y-117642442D01*
X154999817Y-117396085D01*
X155082633Y-117128547D01*
X155111908Y-116850018D01*
X155086525Y-116571108D01*
X155007452Y-116302440D01*
X154877700Y-116054247D01*
X154702211Y-115835983D01*
X154487671Y-115655962D01*
X154330891Y-115569772D01*
X154471060Y-115495242D01*
X154688093Y-115318234D01*
X154866612Y-115102442D01*
X154999817Y-114856085D01*
X155082633Y-114588547D01*
X155111908Y-114310018D01*
X155086525Y-114031108D01*
X155007452Y-113762440D01*
X154877700Y-113514247D01*
X154702211Y-113295983D01*
X154487671Y-113115962D01*
X154330891Y-113029772D01*
X154471060Y-112955242D01*
X154688093Y-112778234D01*
X154866612Y-112562442D01*
X154999817Y-112316085D01*
X155082633Y-112048547D01*
X155111908Y-111770018D01*
X155086525Y-111491108D01*
X155007452Y-111222440D01*
X154877700Y-110974247D01*
X154702211Y-110755983D01*
X154487671Y-110575962D01*
X154330891Y-110489772D01*
X154471060Y-110415242D01*
X154688093Y-110238234D01*
X154866612Y-110022442D01*
X154999817Y-109776085D01*
X155082633Y-109508547D01*
X155111908Y-109230018D01*
X155086525Y-108951108D01*
X155007452Y-108682440D01*
X154877700Y-108434247D01*
X154702211Y-108215983D01*
X154487671Y-108035962D01*
X154330891Y-107949772D01*
X154471060Y-107875242D01*
X154688093Y-107698234D01*
X154866612Y-107482442D01*
X154999817Y-107236085D01*
X155082633Y-106968547D01*
X155111908Y-106690018D01*
X155086525Y-106411108D01*
X155007452Y-106142440D01*
X154877700Y-105894247D01*
X154702211Y-105675983D01*
X154487671Y-105495962D01*
X154330891Y-105409772D01*
X154471060Y-105335242D01*
X154688093Y-105158234D01*
X154866612Y-104942442D01*
X154999817Y-104696085D01*
X155082633Y-104428547D01*
X155111908Y-104150018D01*
X155086525Y-103871108D01*
X155007452Y-103602440D01*
X154877700Y-103354247D01*
X154702211Y-103135983D01*
X154487671Y-102955962D01*
X154330891Y-102869772D01*
X154471060Y-102795242D01*
X154688093Y-102618234D01*
X154866612Y-102402442D01*
X154999817Y-102156085D01*
X155082633Y-101888547D01*
X155111908Y-101610018D01*
X155110085Y-101589982D01*
X159848092Y-101589982D01*
X159873475Y-101868892D01*
X159952548Y-102137560D01*
X160082300Y-102385753D01*
X160257789Y-102604017D01*
X160472329Y-102784038D01*
X160629109Y-102870228D01*
X160488940Y-102944758D01*
X160271907Y-103121766D01*
X160093388Y-103337558D01*
X159960183Y-103583915D01*
X159877367Y-103851453D01*
X159848092Y-104129982D01*
X159873475Y-104408892D01*
X159952548Y-104677560D01*
X160082300Y-104925753D01*
X160257789Y-105144017D01*
X160472329Y-105324038D01*
X160629109Y-105410228D01*
X160488940Y-105484758D01*
X160271907Y-105661766D01*
X160093388Y-105877558D01*
X159960183Y-106123915D01*
X159877367Y-106391453D01*
X159848092Y-106669982D01*
X159873475Y-106948892D01*
X159952548Y-107217560D01*
X160082300Y-107465753D01*
X160257789Y-107684017D01*
X160472329Y-107864038D01*
X160629109Y-107950228D01*
X160488940Y-108024758D01*
X160271907Y-108201766D01*
X160093388Y-108417558D01*
X159960183Y-108663915D01*
X159877367Y-108931453D01*
X159848092Y-109209982D01*
X159873475Y-109488892D01*
X159952548Y-109757560D01*
X160082300Y-110005753D01*
X160257789Y-110224017D01*
X160472329Y-110404038D01*
X160629109Y-110490228D01*
X160488940Y-110564758D01*
X160271907Y-110741766D01*
X160093388Y-110957558D01*
X159960183Y-111203915D01*
X159877367Y-111471453D01*
X159848092Y-111749982D01*
X159873475Y-112028892D01*
X159952548Y-112297560D01*
X160082300Y-112545753D01*
X160257789Y-112764017D01*
X160472329Y-112944038D01*
X160629109Y-113030228D01*
X160488940Y-113104758D01*
X160271907Y-113281766D01*
X160093388Y-113497558D01*
X159960183Y-113743915D01*
X159877367Y-114011453D01*
X159848092Y-114289982D01*
X159873475Y-114568892D01*
X159952548Y-114837560D01*
X160082300Y-115085753D01*
X160257789Y-115304017D01*
X160472329Y-115484038D01*
X160629109Y-115570228D01*
X160488940Y-115644758D01*
X160271907Y-115821766D01*
X160093388Y-116037558D01*
X159960183Y-116283915D01*
X159877367Y-116551453D01*
X159848092Y-116829982D01*
X159873475Y-117108892D01*
X159952548Y-117377560D01*
X160082300Y-117625753D01*
X160257789Y-117844017D01*
X160472329Y-118024038D01*
X160629109Y-118110228D01*
X160488940Y-118184758D01*
X160271907Y-118361766D01*
X160093388Y-118577558D01*
X159960183Y-118823915D01*
X159877367Y-119091453D01*
X159848092Y-119369982D01*
X159873475Y-119648892D01*
X159952548Y-119917560D01*
X160082300Y-120165753D01*
X160257789Y-120384017D01*
X160472329Y-120564038D01*
X160717750Y-120698959D01*
X160984704Y-120783642D01*
X161263021Y-120814860D01*
X161283057Y-120815000D01*
X161296943Y-120815000D01*
X161575669Y-120787671D01*
X161843779Y-120706724D01*
X162091060Y-120575242D01*
X162308093Y-120398234D01*
X162486612Y-120182442D01*
X162619817Y-119936085D01*
X162702633Y-119668547D01*
X162731908Y-119390018D01*
X162706525Y-119111108D01*
X162627452Y-118842440D01*
X162497700Y-118594247D01*
X162322211Y-118375983D01*
X162107671Y-118195962D01*
X161950891Y-118109772D01*
X162091060Y-118035242D01*
X162308093Y-117858234D01*
X162486612Y-117642442D01*
X162619817Y-117396085D01*
X162702633Y-117128547D01*
X162731908Y-116850018D01*
X162706525Y-116571108D01*
X162627452Y-116302440D01*
X162497700Y-116054247D01*
X162322211Y-115835983D01*
X162107671Y-115655962D01*
X161950891Y-115569772D01*
X162091060Y-115495242D01*
X162308093Y-115318234D01*
X162486612Y-115102442D01*
X162619817Y-114856085D01*
X162702633Y-114588547D01*
X162731908Y-114310018D01*
X162706525Y-114031108D01*
X162627452Y-113762440D01*
X162497700Y-113514247D01*
X162322211Y-113295983D01*
X162107671Y-113115962D01*
X161950891Y-113029772D01*
X162091060Y-112955242D01*
X162308093Y-112778234D01*
X162486612Y-112562442D01*
X162619817Y-112316085D01*
X162702633Y-112048547D01*
X162731908Y-111770018D01*
X162706525Y-111491108D01*
X162627452Y-111222440D01*
X162497700Y-110974247D01*
X162322211Y-110755983D01*
X162107671Y-110575962D01*
X161950891Y-110489772D01*
X162091060Y-110415242D01*
X162308093Y-110238234D01*
X162486612Y-110022442D01*
X162619817Y-109776085D01*
X162702633Y-109508547D01*
X162731908Y-109230018D01*
X162706525Y-108951108D01*
X162627452Y-108682440D01*
X162497700Y-108434247D01*
X162322211Y-108215983D01*
X162107671Y-108035962D01*
X161950891Y-107949772D01*
X162091060Y-107875242D01*
X162308093Y-107698234D01*
X162486612Y-107482442D01*
X162619817Y-107236085D01*
X162702633Y-106968547D01*
X162731908Y-106690018D01*
X162706525Y-106411108D01*
X162627452Y-106142440D01*
X162497700Y-105894247D01*
X162322211Y-105675983D01*
X162107671Y-105495962D01*
X161950891Y-105409772D01*
X162091060Y-105335242D01*
X162308093Y-105158234D01*
X162486612Y-104942442D01*
X162619817Y-104696085D01*
X162702633Y-104428547D01*
X162731908Y-104150018D01*
X162706525Y-103871108D01*
X162627452Y-103602440D01*
X162497700Y-103354247D01*
X162322211Y-103135983D01*
X162107671Y-102955962D01*
X161950891Y-102869772D01*
X162091060Y-102795242D01*
X162308093Y-102618234D01*
X162486612Y-102402442D01*
X162619817Y-102156085D01*
X162702633Y-101888547D01*
X162731908Y-101610018D01*
X162706525Y-101331108D01*
X162627452Y-101062440D01*
X162497700Y-100814247D01*
X162322211Y-100595983D01*
X162107671Y-100415962D01*
X161862250Y-100281041D01*
X161595296Y-100196358D01*
X161316979Y-100165140D01*
X161296943Y-100165000D01*
X161283057Y-100165000D01*
X161004331Y-100192329D01*
X160736221Y-100273276D01*
X160488940Y-100404758D01*
X160271907Y-100581766D01*
X160093388Y-100797558D01*
X159960183Y-101043915D01*
X159877367Y-101311453D01*
X159848092Y-101589982D01*
X155110085Y-101589982D01*
X155086525Y-101331108D01*
X155007452Y-101062440D01*
X154877700Y-100814247D01*
X154702211Y-100595983D01*
X154487671Y-100415962D01*
X154242250Y-100281041D01*
X153975296Y-100196358D01*
X153696979Y-100165140D01*
X153676943Y-100165000D01*
X153663057Y-100165000D01*
X153384331Y-100192329D01*
X153239018Y-100236202D01*
X153193013Y-100221608D01*
X153189041Y-100221162D01*
X153185219Y-100219994D01*
X153115351Y-100212897D01*
X153045611Y-100205074D01*
X153037806Y-100205020D01*
X153037653Y-100205004D01*
X153037510Y-100205018D01*
X153035000Y-100205000D01*
X149807074Y-100205000D01*
X149785242Y-100163940D01*
X149608234Y-99946907D01*
X149392442Y-99768388D01*
X149146085Y-99635183D01*
X148878547Y-99552367D01*
X148600018Y-99523092D01*
X148321108Y-99548475D01*
X148052440Y-99627548D01*
X147804247Y-99757300D01*
X147585983Y-99932789D01*
X147405962Y-100147329D01*
X147319772Y-100304109D01*
X147245242Y-100163940D01*
X147068234Y-99946907D01*
X146852442Y-99768388D01*
X146606085Y-99635183D01*
X146338547Y-99552367D01*
X146060018Y-99523092D01*
X145781108Y-99548475D01*
X145512440Y-99627548D01*
X145264247Y-99757300D01*
X145045983Y-99932789D01*
X144865962Y-100147329D01*
X144779772Y-100304109D01*
X144705242Y-100163940D01*
X144528234Y-99946907D01*
X144312442Y-99768388D01*
X144066085Y-99635183D01*
X143798547Y-99552367D01*
X143520018Y-99523092D01*
X143241108Y-99548475D01*
X142972440Y-99627548D01*
X142724247Y-99757300D01*
X142505983Y-99932789D01*
X142325962Y-100147329D01*
X142239344Y-100304888D01*
X142122385Y-100109869D01*
X141933414Y-99901481D01*
X141707420Y-99733963D01*
X141453087Y-99613754D01*
X141319039Y-99573096D01*
X141097002Y-99695084D01*
X141097002Y-99549577D01*
X141595790Y-99050789D01*
X141647696Y-98987598D01*
X141700225Y-98924996D01*
X141702466Y-98920919D01*
X141705421Y-98917322D01*
X141744043Y-98845292D01*
X141783435Y-98773639D01*
X141784843Y-98769200D01*
X141787041Y-98765101D01*
X141810927Y-98686974D01*
X141835661Y-98609002D01*
X141836180Y-98604374D01*
X141837540Y-98599926D01*
X141845794Y-98518661D01*
X141854914Y-98437357D01*
X141854977Y-98428253D01*
X141854994Y-98428089D01*
X141854980Y-98427936D01*
X141855000Y-98425000D01*
X141855000Y-97647903D01*
X141974017Y-97552211D01*
X142154038Y-97337671D01*
X142240228Y-97180891D01*
X142314758Y-97321060D01*
X142491766Y-97538093D01*
X142707558Y-97716612D01*
X142953915Y-97849817D01*
X143221453Y-97932633D01*
X143499982Y-97961908D01*
X143778892Y-97936525D01*
X144047560Y-97857452D01*
X144295753Y-97727700D01*
X144514017Y-97552211D01*
X144694038Y-97337671D01*
X144780228Y-97180891D01*
X144854758Y-97321060D01*
X145031766Y-97538093D01*
X145247558Y-97716612D01*
X145493915Y-97849817D01*
X145761453Y-97932633D01*
X146039982Y-97961908D01*
X146318892Y-97936525D01*
X146587560Y-97857452D01*
X146835753Y-97727700D01*
X147054017Y-97552211D01*
X147234038Y-97337671D01*
X147320228Y-97180891D01*
X147394758Y-97321060D01*
X147571766Y-97538093D01*
X147787558Y-97716612D01*
X148033915Y-97849817D01*
X148301453Y-97932633D01*
X148579982Y-97961908D01*
X148858892Y-97936525D01*
X149127560Y-97857452D01*
X149375753Y-97727700D01*
X149594017Y-97552211D01*
X149774038Y-97337671D01*
X149908959Y-97092250D01*
X149993642Y-96825296D01*
X150024860Y-96546979D01*
X150025000Y-96526943D01*
X150025000Y-96513057D01*
X149997671Y-96234331D01*
X149997583Y-96234039D01*
X152278096Y-96234039D01*
X152318754Y-96368087D01*
X152438963Y-96622420D01*
X152606481Y-96848414D01*
X152814869Y-97037385D01*
X153056119Y-97182070D01*
X153320960Y-97276909D01*
X153543000Y-97155624D01*
X153543000Y-96012000D01*
X153797000Y-96012000D01*
X153797000Y-97155624D01*
X154019040Y-97276909D01*
X154283881Y-97182070D01*
X154525131Y-97037385D01*
X154733519Y-96848414D01*
X154901037Y-96622420D01*
X155021246Y-96368087D01*
X155061904Y-96234039D01*
X154939915Y-96012000D01*
X153797000Y-96012000D01*
X153543000Y-96012000D01*
X152400085Y-96012000D01*
X152278096Y-96234039D01*
X149997583Y-96234039D01*
X149916724Y-95966221D01*
X149785242Y-95718940D01*
X149608234Y-95501907D01*
X149392442Y-95323388D01*
X149146085Y-95190183D01*
X148878547Y-95107367D01*
X148600018Y-95078092D01*
X148563375Y-95081427D01*
X151444802Y-92200000D01*
X152807337Y-92200000D01*
X152651907Y-92326766D01*
X152473388Y-92542558D01*
X152340183Y-92788915D01*
X152257367Y-93056453D01*
X152228092Y-93334982D01*
X152253475Y-93613892D01*
X152332548Y-93882560D01*
X152462300Y-94130753D01*
X152637789Y-94349017D01*
X152852329Y-94529038D01*
X153009888Y-94615656D01*
X152814869Y-94732615D01*
X152606481Y-94921586D01*
X152438963Y-95147580D01*
X152318754Y-95401913D01*
X152278096Y-95535961D01*
X152400085Y-95758000D01*
X153543000Y-95758000D01*
X153543000Y-95738000D01*
X153797000Y-95738000D01*
X153797000Y-95758000D01*
X154939915Y-95758000D01*
X155061904Y-95535961D01*
X155021246Y-95401913D01*
X154901037Y-95147580D01*
X154733519Y-94921586D01*
X154525131Y-94732615D01*
X154329696Y-94615407D01*
X154471060Y-94540242D01*
X154688093Y-94363234D01*
X154866612Y-94147442D01*
X154999817Y-93901085D01*
X155082633Y-93633547D01*
X155111908Y-93355018D01*
X155086525Y-93076108D01*
X155007452Y-92807440D01*
X154877700Y-92559247D01*
X154702211Y-92340983D01*
X154487671Y-92160962D01*
X154330891Y-92074772D01*
X154471060Y-92000242D01*
X154688093Y-91823234D01*
X154866612Y-91607442D01*
X154999817Y-91361085D01*
X155082633Y-91093547D01*
X155111908Y-90815018D01*
X155086525Y-90536108D01*
X155007452Y-90267440D01*
X154877700Y-90019247D01*
X154702211Y-89800983D01*
X154487671Y-89620962D01*
X154330891Y-89534772D01*
X154471060Y-89460242D01*
X154688093Y-89283234D01*
X154866612Y-89067442D01*
X154999817Y-88821085D01*
X155082633Y-88553547D01*
X155111908Y-88275018D01*
X155086525Y-87996108D01*
X155007452Y-87727440D01*
X154877700Y-87479247D01*
X154702211Y-87260983D01*
X154487671Y-87080962D01*
X154330891Y-86994772D01*
X154471060Y-86920242D01*
X154688093Y-86743234D01*
X154866612Y-86527442D01*
X154999817Y-86281085D01*
X155082633Y-86013547D01*
X155111908Y-85735018D01*
X155086525Y-85456108D01*
X155007452Y-85187440D01*
X154877700Y-84939247D01*
X154702211Y-84720983D01*
X154487671Y-84540962D01*
X154330891Y-84454772D01*
X154471060Y-84380242D01*
X154688093Y-84203234D01*
X154866612Y-83987442D01*
X154999817Y-83741085D01*
X155082633Y-83473547D01*
X155111908Y-83195018D01*
X155086525Y-82916108D01*
X155007452Y-82647440D01*
X154877700Y-82399247D01*
X154702211Y-82180983D01*
X154487671Y-82000962D01*
X154330891Y-81914772D01*
X154471060Y-81840242D01*
X154688093Y-81663234D01*
X154866612Y-81447442D01*
X154999817Y-81201085D01*
X155082633Y-80933547D01*
X155111908Y-80655018D01*
X155086525Y-80376108D01*
X155007452Y-80107440D01*
X154877700Y-79859247D01*
X154702211Y-79640983D01*
X154487671Y-79460962D01*
X154330891Y-79374772D01*
X154471060Y-79300242D01*
X154688093Y-79123234D01*
X154866612Y-78907442D01*
X154999817Y-78661085D01*
X155082633Y-78393547D01*
X155111908Y-78115018D01*
X155110085Y-78094982D01*
X159848092Y-78094982D01*
X159873475Y-78373892D01*
X159952548Y-78642560D01*
X160082300Y-78890753D01*
X160257789Y-79109017D01*
X160472329Y-79289038D01*
X160629109Y-79375228D01*
X160488940Y-79449758D01*
X160271907Y-79626766D01*
X160093388Y-79842558D01*
X159960183Y-80088915D01*
X159877367Y-80356453D01*
X159848092Y-80634982D01*
X159873475Y-80913892D01*
X159952548Y-81182560D01*
X160082300Y-81430753D01*
X160257789Y-81649017D01*
X160472329Y-81829038D01*
X160629109Y-81915228D01*
X160488940Y-81989758D01*
X160271907Y-82166766D01*
X160093388Y-82382558D01*
X159960183Y-82628915D01*
X159877367Y-82896453D01*
X159848092Y-83174982D01*
X159873475Y-83453892D01*
X159952548Y-83722560D01*
X160082300Y-83970753D01*
X160257789Y-84189017D01*
X160472329Y-84369038D01*
X160629109Y-84455228D01*
X160488940Y-84529758D01*
X160271907Y-84706766D01*
X160093388Y-84922558D01*
X159960183Y-85168915D01*
X159877367Y-85436453D01*
X159848092Y-85714982D01*
X159873475Y-85993892D01*
X159952548Y-86262560D01*
X160082300Y-86510753D01*
X160257789Y-86729017D01*
X160472329Y-86909038D01*
X160629109Y-86995228D01*
X160488940Y-87069758D01*
X160271907Y-87246766D01*
X160093388Y-87462558D01*
X159960183Y-87708915D01*
X159877367Y-87976453D01*
X159848092Y-88254982D01*
X159873475Y-88533892D01*
X159952548Y-88802560D01*
X160082300Y-89050753D01*
X160257789Y-89269017D01*
X160472329Y-89449038D01*
X160629109Y-89535228D01*
X160488940Y-89609758D01*
X160271907Y-89786766D01*
X160093388Y-90002558D01*
X159960183Y-90248915D01*
X159877367Y-90516453D01*
X159848092Y-90794982D01*
X159873475Y-91073892D01*
X159952548Y-91342560D01*
X160082300Y-91590753D01*
X160257789Y-91809017D01*
X160472329Y-91989038D01*
X160629109Y-92075228D01*
X160488940Y-92149758D01*
X160271907Y-92326766D01*
X160093388Y-92542558D01*
X159960183Y-92788915D01*
X159877367Y-93056453D01*
X159848092Y-93334982D01*
X159873475Y-93613892D01*
X159952548Y-93882560D01*
X160082300Y-94130753D01*
X160257789Y-94349017D01*
X160472329Y-94529038D01*
X160629109Y-94615228D01*
X160488940Y-94689758D01*
X160271907Y-94866766D01*
X160093388Y-95082558D01*
X159960183Y-95328915D01*
X159877367Y-95596453D01*
X159848092Y-95874982D01*
X159873475Y-96153892D01*
X159952548Y-96422560D01*
X160082300Y-96670753D01*
X160257789Y-96889017D01*
X160472329Y-97069038D01*
X160717750Y-97203959D01*
X160984704Y-97288642D01*
X161263021Y-97319860D01*
X161283057Y-97320000D01*
X161296943Y-97320000D01*
X161575669Y-97292671D01*
X161843779Y-97211724D01*
X162091060Y-97080242D01*
X162308093Y-96903234D01*
X162486612Y-96687442D01*
X162619817Y-96441085D01*
X162702633Y-96173547D01*
X162731908Y-95895018D01*
X162706525Y-95616108D01*
X162627452Y-95347440D01*
X162497700Y-95099247D01*
X162322211Y-94880983D01*
X162107671Y-94700962D01*
X161950891Y-94614772D01*
X162091060Y-94540242D01*
X162308093Y-94363234D01*
X162486612Y-94147442D01*
X162619817Y-93901085D01*
X162702633Y-93633547D01*
X162731908Y-93355018D01*
X162706525Y-93076108D01*
X162627452Y-92807440D01*
X162497700Y-92559247D01*
X162322211Y-92340983D01*
X162107671Y-92160962D01*
X161950891Y-92074772D01*
X162091060Y-92000242D01*
X162308093Y-91823234D01*
X162486612Y-91607442D01*
X162619817Y-91361085D01*
X162702633Y-91093547D01*
X162731908Y-90815018D01*
X162706525Y-90536108D01*
X162627452Y-90267440D01*
X162497700Y-90019247D01*
X162322211Y-89800983D01*
X162107671Y-89620962D01*
X161950891Y-89534772D01*
X162091060Y-89460242D01*
X162308093Y-89283234D01*
X162486612Y-89067442D01*
X162619817Y-88821085D01*
X162702633Y-88553547D01*
X162731908Y-88275018D01*
X162706525Y-87996108D01*
X162627452Y-87727440D01*
X162497700Y-87479247D01*
X162322211Y-87260983D01*
X162107671Y-87080962D01*
X161950891Y-86994772D01*
X162091060Y-86920242D01*
X162308093Y-86743234D01*
X162486612Y-86527442D01*
X162619817Y-86281085D01*
X162702633Y-86013547D01*
X162731908Y-85735018D01*
X162706525Y-85456108D01*
X162627452Y-85187440D01*
X162497700Y-84939247D01*
X162322211Y-84720983D01*
X162107671Y-84540962D01*
X161950891Y-84454772D01*
X162091060Y-84380242D01*
X162308093Y-84203234D01*
X162486612Y-83987442D01*
X162619817Y-83741085D01*
X162702633Y-83473547D01*
X162731908Y-83195018D01*
X162706525Y-82916108D01*
X162627452Y-82647440D01*
X162497700Y-82399247D01*
X162322211Y-82180983D01*
X162107671Y-82000962D01*
X161950891Y-81914772D01*
X162091060Y-81840242D01*
X162308093Y-81663234D01*
X162486612Y-81447442D01*
X162619817Y-81201085D01*
X162702633Y-80933547D01*
X162731908Y-80655018D01*
X162706525Y-80376108D01*
X162627452Y-80107440D01*
X162497700Y-79859247D01*
X162322211Y-79640983D01*
X162107671Y-79460962D01*
X161950891Y-79374772D01*
X162091060Y-79300242D01*
X162308093Y-79123234D01*
X162486612Y-78907442D01*
X162619817Y-78661085D01*
X162702633Y-78393547D01*
X162731908Y-78115018D01*
X162706525Y-77836108D01*
X162627452Y-77567440D01*
X162497700Y-77319247D01*
X162322211Y-77100983D01*
X162107671Y-76920962D01*
X161862250Y-76786041D01*
X161595296Y-76701358D01*
X161316979Y-76670140D01*
X161296943Y-76670000D01*
X161283057Y-76670000D01*
X161004331Y-76697329D01*
X160736221Y-76778276D01*
X160488940Y-76909758D01*
X160271907Y-77086766D01*
X160093388Y-77302558D01*
X159960183Y-77548915D01*
X159877367Y-77816453D01*
X159848092Y-78094982D01*
X155110085Y-78094982D01*
X155086525Y-77836108D01*
X155007452Y-77567440D01*
X154877700Y-77319247D01*
X154702211Y-77100983D01*
X154487671Y-76920962D01*
X154242250Y-76786041D01*
X153975296Y-76701358D01*
X153696979Y-76670140D01*
X153676943Y-76670000D01*
X153663057Y-76670000D01*
X153384331Y-76697329D01*
X153348077Y-76708275D01*
X152937401Y-76297599D01*
X152883145Y-76253032D01*
X152829375Y-76207914D01*
X152825874Y-76205989D01*
X152822785Y-76203452D01*
X152760933Y-76170287D01*
X152699396Y-76136457D01*
X152695584Y-76135248D01*
X152692065Y-76133361D01*
X152624969Y-76112848D01*
X152558013Y-76091608D01*
X152554041Y-76091162D01*
X152550219Y-76089994D01*
X152480351Y-76082897D01*
X152410611Y-76075074D01*
X152402806Y-76075020D01*
X152402653Y-76075004D01*
X152402510Y-76075018D01*
X152400000Y-76075000D01*
X149807074Y-76075000D01*
X149785242Y-76033940D01*
X149608234Y-75816907D01*
X149392442Y-75638388D01*
X149146085Y-75505183D01*
X148878547Y-75422367D01*
X148600018Y-75393092D01*
X148321108Y-75418475D01*
X148052440Y-75497548D01*
X147804247Y-75627300D01*
X147585983Y-75802789D01*
X147405962Y-76017329D01*
X147319772Y-76174109D01*
X147245242Y-76033940D01*
X147068234Y-75816907D01*
X146852442Y-75638388D01*
X146606085Y-75505183D01*
X146338547Y-75422367D01*
X146060018Y-75393092D01*
X145781108Y-75418475D01*
X145512440Y-75497548D01*
X145264247Y-75627300D01*
X145045983Y-75802789D01*
X144865962Y-76017329D01*
X144779772Y-76174109D01*
X144705242Y-76033940D01*
X144528234Y-75816907D01*
X144312442Y-75638388D01*
X144066085Y-75505183D01*
X143798547Y-75422367D01*
X143520018Y-75393092D01*
X143241108Y-75418475D01*
X142972440Y-75497548D01*
X142724247Y-75627300D01*
X142505983Y-75802789D01*
X142325962Y-76017329D01*
X142239344Y-76174888D01*
X142122385Y-75979869D01*
X141933414Y-75771481D01*
X141707420Y-75603963D01*
X141453087Y-75483754D01*
X141319039Y-75443096D01*
X141097000Y-75565085D01*
X141097000Y-76708000D01*
X141117000Y-76708000D01*
X141117000Y-76962000D01*
X141097000Y-76962000D01*
X141097000Y-78104915D01*
X141138200Y-78127550D01*
X141097000Y-78168750D01*
X141097000Y-79268000D01*
X142071250Y-79268000D01*
X142230000Y-79109250D01*
X142230000Y-78582458D01*
X142205597Y-78459777D01*
X142157730Y-78344215D01*
X142088237Y-78240211D01*
X141999789Y-78151763D01*
X141895785Y-78082270D01*
X141780223Y-78034403D01*
X141756471Y-78029678D01*
X141933414Y-77898519D01*
X142122385Y-77690131D01*
X142239593Y-77494696D01*
X142314758Y-77636060D01*
X142491766Y-77853093D01*
X142707558Y-78031612D01*
X142953915Y-78164817D01*
X143221453Y-78247633D01*
X143499982Y-78276908D01*
X143778892Y-78251525D01*
X144047560Y-78172452D01*
X144295753Y-78042700D01*
X144514017Y-77867211D01*
X144694038Y-77652671D01*
X144780228Y-77495891D01*
X144854758Y-77636060D01*
X145031766Y-77853093D01*
X145247558Y-78031612D01*
X145493915Y-78164817D01*
X145761453Y-78247633D01*
X146039982Y-78276908D01*
X146318892Y-78251525D01*
X146587560Y-78172452D01*
X146835753Y-78042700D01*
X147054017Y-77867211D01*
X147234038Y-77652671D01*
X147320228Y-77495891D01*
X147394758Y-77636060D01*
X147571766Y-77853093D01*
X147787558Y-78031612D01*
X148033915Y-78164817D01*
X148301453Y-78247633D01*
X148579982Y-78276908D01*
X148858892Y-78251525D01*
X149127560Y-78172452D01*
X149375753Y-78042700D01*
X149594017Y-77867211D01*
X149774038Y-77652671D01*
X149805743Y-77595000D01*
X152085198Y-77595000D01*
X152269017Y-77778819D01*
X152257367Y-77816453D01*
X152228092Y-78094982D01*
X152253475Y-78373892D01*
X152332548Y-78642560D01*
X152462300Y-78890753D01*
X152637789Y-79109017D01*
X152852329Y-79289038D01*
X153009109Y-79375228D01*
X152868940Y-79449758D01*
X152651907Y-79626766D01*
X152473388Y-79842558D01*
X152450440Y-79885000D01*
X147320000Y-79885000D01*
X147250119Y-79891852D01*
X147180197Y-79897969D01*
X147176359Y-79899084D01*
X147172382Y-79899474D01*
X147105212Y-79919754D01*
X147037761Y-79939350D01*
X147034210Y-79941191D01*
X147030387Y-79942345D01*
X146968426Y-79975290D01*
X146906075Y-80007610D01*
X146902952Y-80010103D01*
X146899422Y-80011980D01*
X146844989Y-80056375D01*
X146790155Y-80100148D01*
X146784596Y-80105630D01*
X146784478Y-80105726D01*
X146784388Y-80105835D01*
X146782599Y-80107599D01*
X143836181Y-83054017D01*
X143798547Y-83042367D01*
X143520018Y-83013092D01*
X143241108Y-83038475D01*
X142972440Y-83117548D01*
X142724247Y-83247300D01*
X142505983Y-83422789D01*
X142325962Y-83637329D01*
X142239772Y-83794109D01*
X142165242Y-83653940D01*
X141988234Y-83436907D01*
X141855000Y-83326686D01*
X141855000Y-83225806D01*
X141867634Y-83221894D01*
X142017559Y-83123100D01*
X142134025Y-82986450D01*
X142207810Y-82822763D01*
X142233072Y-82645000D01*
X142233072Y-81145000D01*
X142225008Y-81043879D01*
X142171894Y-80872366D01*
X142073100Y-80722441D01*
X141985503Y-80647783D01*
X141999789Y-80638237D01*
X142088237Y-80549789D01*
X142157730Y-80445785D01*
X142205597Y-80330223D01*
X142230000Y-80207542D01*
X142230000Y-79680750D01*
X142071250Y-79522000D01*
X141097000Y-79522000D01*
X141097000Y-79542000D01*
X140843000Y-79542000D01*
X140843000Y-79522000D01*
X139868750Y-79522000D01*
X139710000Y-79680750D01*
X139710000Y-80207542D01*
X139734403Y-80330223D01*
X139782270Y-80445785D01*
X139851763Y-80549789D01*
X139940211Y-80638237D01*
X139952985Y-80646773D01*
X139922441Y-80666900D01*
X139805975Y-80803550D01*
X139732190Y-80967237D01*
X139706928Y-81145000D01*
X139706928Y-82645000D01*
X139714992Y-82746121D01*
X139768106Y-82917634D01*
X139866900Y-83067559D01*
X140003550Y-83184025D01*
X140085000Y-83220740D01*
X140085000Y-83327097D01*
X139965983Y-83422789D01*
X139785962Y-83637329D01*
X139651041Y-83882750D01*
X139566358Y-84149704D01*
X139535140Y-84428021D01*
X139535000Y-84448057D01*
X139535000Y-84461943D01*
X139550758Y-84622662D01*
X134253420Y-89920000D01*
X133407928Y-89920000D01*
X133221469Y-89732234D01*
X132996199Y-89580288D01*
X132892192Y-89536568D01*
X132933032Y-89521817D01*
X133046201Y-89461326D01*
X133111796Y-89222401D01*
X132334000Y-88444605D01*
X132319858Y-88458748D01*
X132140253Y-88279143D01*
X132154395Y-88265000D01*
X132513605Y-88265000D01*
X133291401Y-89042796D01*
X133530326Y-88977201D01*
X133646283Y-88730125D01*
X133711809Y-88465173D01*
X133724387Y-88192530D01*
X133683533Y-87922671D01*
X133590817Y-87665968D01*
X133530326Y-87552799D01*
X133291401Y-87487204D01*
X132513605Y-88265000D01*
X132154395Y-88265000D01*
X131376599Y-87487204D01*
X131137674Y-87552799D01*
X131021717Y-87799875D01*
X130956191Y-88064827D01*
X130943613Y-88337470D01*
X130984467Y-88607329D01*
X130999879Y-88650000D01*
X130867928Y-88650000D01*
X130681469Y-88462234D01*
X130456199Y-88310288D01*
X130352192Y-88266568D01*
X130393032Y-88251817D01*
X130506201Y-88191326D01*
X130571796Y-87952401D01*
X129794000Y-87174605D01*
X129016204Y-87952401D01*
X129081799Y-88191326D01*
X129238636Y-88264932D01*
X129148965Y-88301162D01*
X128921596Y-88449948D01*
X128727456Y-88640064D01*
X128573941Y-88864267D01*
X128466897Y-89114018D01*
X128410403Y-89379805D01*
X128406609Y-89651502D01*
X128409603Y-89667817D01*
X125612210Y-92465210D01*
X125560284Y-92528426D01*
X125507775Y-92591004D01*
X125505534Y-92595081D01*
X125502579Y-92598678D01*
X125463957Y-92670708D01*
X125424565Y-92742361D01*
X125423157Y-92746800D01*
X125420959Y-92750899D01*
X125397073Y-92829026D01*
X125372339Y-92906998D01*
X125371820Y-92911626D01*
X125370460Y-92916074D01*
X125362206Y-92997339D01*
X125353086Y-93078643D01*
X125353023Y-93087747D01*
X125353006Y-93087911D01*
X125353020Y-93088064D01*
X125353000Y-93091000D01*
X125353000Y-93269585D01*
X125019644Y-92933894D01*
X124619692Y-92664123D01*
X124174959Y-92477174D01*
X123702383Y-92380168D01*
X123219966Y-92376800D01*
X122746082Y-92467199D01*
X122298782Y-92647920D01*
X121895102Y-92912080D01*
X121550420Y-93249618D01*
X121277864Y-93647676D01*
X121087815Y-94091094D01*
X120987512Y-94562981D01*
X120980776Y-95045363D01*
X121067864Y-95519866D01*
X121245458Y-95968417D01*
X121506794Y-96373931D01*
X121841917Y-96720961D01*
X122238063Y-96996290D01*
X122680143Y-97189430D01*
X123151318Y-97293024D01*
X123633641Y-97303128D01*
X124108741Y-97219355D01*
X124558521Y-97044897D01*
X124965849Y-96786398D01*
X125315211Y-96453706D01*
X125353000Y-96400136D01*
X125353000Y-98185421D01*
X122304072Y-101234348D01*
X122304072Y-100736400D01*
X122296008Y-100635279D01*
X122242894Y-100463766D01*
X122144100Y-100313841D01*
X122007450Y-100197375D01*
X121843763Y-100123590D01*
X121666000Y-100098328D01*
X119634000Y-100098328D01*
X119532879Y-100106392D01*
X119361366Y-100159506D01*
X119211441Y-100258300D01*
X119094975Y-100394950D01*
X119021190Y-100558637D01*
X118995928Y-100736400D01*
X118995928Y-102463600D01*
X119003992Y-102564721D01*
X119057106Y-102736234D01*
X119155900Y-102886159D01*
X119292550Y-103002625D01*
X119441867Y-103069933D01*
X119433647Y-103076637D01*
X119247216Y-103301994D01*
X119108108Y-103559269D01*
X119021621Y-103838665D01*
X118991049Y-104129538D01*
X119017556Y-104420810D01*
X119100134Y-104701385D01*
X119235637Y-104960578D01*
X119418903Y-105188515D01*
X119642952Y-105376515D01*
X119704872Y-105410556D01*
X119498271Y-105561514D01*
X119299267Y-105777965D01*
X119146314Y-106029081D01*
X119045291Y-106305211D01*
X119042642Y-106320974D01*
X119163783Y-106553000D01*
X120523000Y-106553000D01*
X120523000Y-106533000D01*
X120777000Y-106533000D01*
X120777000Y-106553000D01*
X122136217Y-106553000D01*
X122257358Y-106320974D01*
X122254709Y-106305211D01*
X122153686Y-106029081D01*
X122000733Y-105777965D01*
X121801729Y-105561514D01*
X121596205Y-105411343D01*
X121639701Y-105388216D01*
X121866353Y-105203363D01*
X122052784Y-104978006D01*
X122191892Y-104720731D01*
X122278379Y-104441335D01*
X122308951Y-104150462D01*
X122282444Y-103859190D01*
X122259693Y-103781887D01*
X126863789Y-99177790D01*
X126915669Y-99114630D01*
X126968225Y-99051996D01*
X126970468Y-99047915D01*
X126973420Y-99044322D01*
X127012013Y-98972347D01*
X127051435Y-98900639D01*
X127052844Y-98896198D01*
X127055040Y-98892102D01*
X127078917Y-98814006D01*
X127103661Y-98736002D01*
X127104180Y-98731374D01*
X127105540Y-98726926D01*
X127113795Y-98645656D01*
X127122914Y-98564357D01*
X127122977Y-98555254D01*
X127122994Y-98555090D01*
X127122980Y-98554937D01*
X127123000Y-98552000D01*
X127123000Y-93457580D01*
X128406857Y-92173722D01*
X128406609Y-92191502D01*
X128455660Y-92458763D01*
X128555689Y-92711406D01*
X128702884Y-92939808D01*
X128891640Y-93135270D01*
X129114766Y-93290347D01*
X129363764Y-93399131D01*
X129629149Y-93457480D01*
X129900814Y-93463171D01*
X130168410Y-93415986D01*
X130421745Y-93317724D01*
X130651169Y-93172127D01*
X130847945Y-92984741D01*
X131004575Y-92762702D01*
X131115095Y-92514470D01*
X131175296Y-92249498D01*
X131179629Y-91939138D01*
X131126851Y-91672589D01*
X131023305Y-91421367D01*
X130872935Y-91195042D01*
X130681469Y-91002234D01*
X130456199Y-90850288D01*
X130349884Y-90805597D01*
X130421745Y-90777724D01*
X130651169Y-90632127D01*
X130783516Y-90506096D01*
X130950084Y-90672663D01*
X130946609Y-90921502D01*
X130995660Y-91188763D01*
X131095689Y-91441406D01*
X131242884Y-91669808D01*
X131431640Y-91865270D01*
X131654766Y-92020347D01*
X131779193Y-92074707D01*
X131688965Y-92111162D01*
X131461596Y-92259948D01*
X131267456Y-92450064D01*
X131113941Y-92674267D01*
X131006897Y-92924018D01*
X130950403Y-93189805D01*
X130946609Y-93461502D01*
X130995660Y-93728763D01*
X131095689Y-93981406D01*
X131242884Y-94209808D01*
X131431640Y-94405270D01*
X131654766Y-94560347D01*
X131903764Y-94669131D01*
X132169149Y-94727480D01*
X132440814Y-94733171D01*
X132708410Y-94685986D01*
X132961745Y-94587724D01*
X133191169Y-94442127D01*
X133387945Y-94254741D01*
X133544575Y-94032702D01*
X133655095Y-93784470D01*
X133715296Y-93519498D01*
X133719629Y-93209138D01*
X133666851Y-92942589D01*
X133563305Y-92691367D01*
X133412935Y-92465042D01*
X133221469Y-92272234D01*
X132996199Y-92120288D01*
X132889884Y-92075597D01*
X132961745Y-92047724D01*
X133191169Y-91902127D01*
X133387945Y-91714741D01*
X133405398Y-91690000D01*
X134620000Y-91690000D01*
X134701356Y-91682023D01*
X134782796Y-91674898D01*
X134787267Y-91673599D01*
X134791897Y-91673145D01*
X134870131Y-91649525D01*
X134948660Y-91626710D01*
X134952793Y-91624568D01*
X134957247Y-91623223D01*
X135029388Y-91584865D01*
X135102006Y-91547224D01*
X135105646Y-91544318D01*
X135109752Y-91542135D01*
X135173071Y-91490493D01*
X135236991Y-91439466D01*
X135243474Y-91433073D01*
X135243601Y-91432970D01*
X135243698Y-91432853D01*
X135245790Y-91430790D01*
X138180000Y-88496580D01*
X138180000Y-94615000D01*
X138187977Y-94696356D01*
X138195102Y-94777796D01*
X138196401Y-94782267D01*
X138196855Y-94786897D01*
X138220475Y-94865131D01*
X138243290Y-94943660D01*
X138245432Y-94947793D01*
X138246777Y-94952247D01*
X138285135Y-95024388D01*
X138322776Y-95097006D01*
X138325682Y-95100646D01*
X138327865Y-95104752D01*
X138379507Y-95168071D01*
X138430534Y-95231991D01*
X138436927Y-95238474D01*
X138437030Y-95238601D01*
X138437147Y-95238698D01*
X138439210Y-95240790D01*
X139550904Y-96352483D01*
X139535140Y-96493021D01*
X139535000Y-96513057D01*
X139535000Y-96526943D01*
X139562329Y-96805669D01*
X139643276Y-97073779D01*
X139774758Y-97321060D01*
X139951766Y-97538093D01*
X140085000Y-97648314D01*
X140085000Y-98058421D01*
X138439210Y-99704210D01*
X138387284Y-99767426D01*
X138334775Y-99830004D01*
X138332534Y-99834081D01*
X138329579Y-99837678D01*
X138290957Y-99909708D01*
X138251565Y-99981361D01*
X138250157Y-99985800D01*
X138247959Y-99989899D01*
X138224073Y-100068026D01*
X138199339Y-100145998D01*
X138198820Y-100150626D01*
X138197460Y-100155074D01*
X138189206Y-100236339D01*
X138180086Y-100317643D01*
X138180023Y-100326747D01*
X138180006Y-100326911D01*
X138180020Y-100327064D01*
X138180000Y-100330000D01*
X138180000Y-106680000D01*
X138187977Y-106761356D01*
X138195102Y-106842796D01*
X138196401Y-106847267D01*
X138196855Y-106851897D01*
X138220475Y-106930131D01*
X138243290Y-107008660D01*
X138245432Y-107012793D01*
X138246777Y-107017247D01*
X138285135Y-107089388D01*
X138322776Y-107162006D01*
X138325682Y-107165646D01*
X138327865Y-107169752D01*
X138379507Y-107233071D01*
X138430534Y-107296991D01*
X138436927Y-107303474D01*
X138437030Y-107303601D01*
X138437147Y-107303698D01*
X138439210Y-107305790D01*
X139550904Y-108417483D01*
X139535140Y-108558021D01*
X139535000Y-108578057D01*
X139535000Y-108591943D01*
X139562329Y-108870669D01*
X139643276Y-109138779D01*
X139774758Y-109386060D01*
X139951766Y-109603093D01*
X140085000Y-109713314D01*
X140085000Y-110123421D01*
X138439210Y-111769210D01*
X138387284Y-111832426D01*
X138334775Y-111895004D01*
X138332534Y-111899081D01*
X138329579Y-111902678D01*
X138290957Y-111974708D01*
X138251565Y-112046361D01*
X138250157Y-112050800D01*
X138247959Y-112054899D01*
X138224073Y-112133026D01*
X138199339Y-112210998D01*
X138198820Y-112215626D01*
X138197460Y-112220074D01*
X138189206Y-112301339D01*
X138180086Y-112382643D01*
X138180023Y-112391747D01*
X138180006Y-112391911D01*
X138180020Y-112392064D01*
X138180000Y-112395000D01*
X138180000Y-118745000D01*
X138187977Y-118826356D01*
X138195102Y-118907796D01*
X138196401Y-118912267D01*
X138196855Y-118916897D01*
X138220475Y-118995131D01*
X138243290Y-119073660D01*
X138245432Y-119077793D01*
X138246777Y-119082247D01*
X138285135Y-119154388D01*
X138322776Y-119227006D01*
X138325682Y-119230646D01*
X138327865Y-119234752D01*
X138379507Y-119298071D01*
X138430534Y-119361991D01*
X138436927Y-119368474D01*
X138437030Y-119368601D01*
X138437147Y-119368698D01*
X138439210Y-119370790D01*
X139550904Y-120482483D01*
X139535140Y-120623021D01*
X139535000Y-120643057D01*
X139535000Y-120656943D01*
X139562329Y-120935669D01*
X139643276Y-121203779D01*
X139774758Y-121451060D01*
X139951766Y-121668093D01*
X140167558Y-121846612D01*
X140413915Y-121979817D01*
X140681453Y-122062633D01*
X140959982Y-122091908D01*
X141143616Y-122075196D01*
X142122211Y-123053790D01*
X142185380Y-123105677D01*
X142196490Y-123115000D01*
X118779729Y-123115000D01*
X118689127Y-123106117D01*
X116312745Y-120945770D01*
X116280000Y-120634228D01*
X116280000Y-120366249D01*
X116963495Y-120366249D01*
X117057911Y-120880682D01*
X117250450Y-121366979D01*
X117533777Y-121806616D01*
X117897101Y-122182850D01*
X118326583Y-122481347D01*
X118805864Y-122690740D01*
X119316689Y-122803052D01*
X119839600Y-122814006D01*
X120354679Y-122723183D01*
X120842309Y-122534044D01*
X121283914Y-122253793D01*
X121662674Y-121893104D01*
X121964163Y-121465717D01*
X122176897Y-120987909D01*
X122292772Y-120477881D01*
X122301114Y-119880487D01*
X122199524Y-119367423D01*
X122000215Y-118883861D01*
X121710777Y-118448222D01*
X121342235Y-118077098D01*
X120908627Y-117784626D01*
X120426469Y-117581946D01*
X119914126Y-117476777D01*
X119391113Y-117473125D01*
X118877352Y-117571131D01*
X118392411Y-117767059D01*
X117954762Y-118053449D01*
X117581074Y-118419391D01*
X117285582Y-118850946D01*
X117079541Y-119331678D01*
X116970797Y-119843274D01*
X116963495Y-120366249D01*
X116280000Y-120366249D01*
X116280000Y-109209538D01*
X118991049Y-109209538D01*
X119017556Y-109500810D01*
X119100134Y-109781385D01*
X119235637Y-110040578D01*
X119418903Y-110268515D01*
X119642952Y-110456515D01*
X119702587Y-110489299D01*
X119660299Y-110511784D01*
X119433647Y-110696637D01*
X119247216Y-110921994D01*
X119108108Y-111179269D01*
X119021621Y-111458665D01*
X118991049Y-111749538D01*
X119017556Y-112040810D01*
X119100134Y-112321385D01*
X119235637Y-112580578D01*
X119418903Y-112808515D01*
X119642952Y-112996515D01*
X119702587Y-113029299D01*
X119660299Y-113051784D01*
X119433647Y-113236637D01*
X119247216Y-113461994D01*
X119108108Y-113719269D01*
X119021621Y-113998665D01*
X118991049Y-114289538D01*
X119017556Y-114580810D01*
X119100134Y-114861385D01*
X119235637Y-115120578D01*
X119418903Y-115348515D01*
X119642952Y-115536515D01*
X119899251Y-115677416D01*
X120178036Y-115765852D01*
X120468688Y-115798454D01*
X120489612Y-115798600D01*
X120810388Y-115798600D01*
X121101468Y-115770059D01*
X121381460Y-115685525D01*
X121639701Y-115548216D01*
X121866353Y-115363363D01*
X122052784Y-115138006D01*
X122191892Y-114880731D01*
X122278379Y-114601335D01*
X122308951Y-114310462D01*
X122282444Y-114019190D01*
X122199866Y-113738615D01*
X122064363Y-113479422D01*
X121881097Y-113251485D01*
X121657048Y-113063485D01*
X121597413Y-113030701D01*
X121639701Y-113008216D01*
X121866353Y-112823363D01*
X122052784Y-112598006D01*
X122191892Y-112340731D01*
X122278379Y-112061335D01*
X122308951Y-111770462D01*
X122282444Y-111479190D01*
X122199866Y-111198615D01*
X122064363Y-110939422D01*
X121881097Y-110711485D01*
X121657048Y-110523485D01*
X121597413Y-110490701D01*
X121639701Y-110468216D01*
X121866353Y-110283363D01*
X122052784Y-110058006D01*
X122191892Y-109800731D01*
X122278379Y-109521335D01*
X122308951Y-109230462D01*
X122282444Y-108939190D01*
X122199866Y-108658615D01*
X122064363Y-108399422D01*
X121881097Y-108171485D01*
X121657048Y-107983485D01*
X121595128Y-107949444D01*
X121801729Y-107798486D01*
X122000733Y-107582035D01*
X122153686Y-107330919D01*
X122254709Y-107054789D01*
X122257358Y-107039026D01*
X122136217Y-106807000D01*
X120777000Y-106807000D01*
X120777000Y-106827000D01*
X120523000Y-106827000D01*
X120523000Y-106807000D01*
X119163783Y-106807000D01*
X119042642Y-107039026D01*
X119045291Y-107054789D01*
X119146314Y-107330919D01*
X119299267Y-107582035D01*
X119498271Y-107798486D01*
X119703795Y-107948657D01*
X119660299Y-107971784D01*
X119433647Y-108156637D01*
X119247216Y-108381994D01*
X119108108Y-108639269D01*
X119021621Y-108918665D01*
X118991049Y-109209538D01*
X116280000Y-109209538D01*
X116280000Y-87067470D01*
X128403613Y-87067470D01*
X128444467Y-87337329D01*
X128537183Y-87594032D01*
X128597674Y-87707201D01*
X128836599Y-87772796D01*
X129614395Y-86995000D01*
X129973605Y-86995000D01*
X130751401Y-87772796D01*
X130990326Y-87707201D01*
X131106283Y-87460125D01*
X131171809Y-87195173D01*
X131184387Y-86922530D01*
X131143533Y-86652671D01*
X131050817Y-86395968D01*
X130990326Y-86282799D01*
X130751401Y-86217204D01*
X129973605Y-86995000D01*
X129614395Y-86995000D01*
X128836599Y-86217204D01*
X128597674Y-86282799D01*
X128481717Y-86529875D01*
X128416191Y-86794827D01*
X128403613Y-87067470D01*
X116280000Y-87067470D01*
X116280000Y-83175943D01*
X120980776Y-83175943D01*
X121067864Y-83650446D01*
X121245458Y-84098997D01*
X121506794Y-84504511D01*
X121841917Y-84851541D01*
X122238063Y-85126870D01*
X122680143Y-85320010D01*
X123151318Y-85423604D01*
X123633641Y-85433708D01*
X124108741Y-85349935D01*
X124558521Y-85175477D01*
X124965849Y-84916978D01*
X125315211Y-84584286D01*
X125593298Y-84190071D01*
X125789520Y-83749351D01*
X125799725Y-83704430D01*
X128405358Y-83704430D01*
X128405358Y-85205570D01*
X128413422Y-85306691D01*
X128466536Y-85478204D01*
X128565330Y-85628129D01*
X128701980Y-85744595D01*
X128865667Y-85818380D01*
X129043430Y-85843642D01*
X129069453Y-85843642D01*
X129016204Y-86037599D01*
X129794000Y-86815395D01*
X130571796Y-86037599D01*
X130518547Y-85843642D01*
X130544570Y-85843642D01*
X130645691Y-85835578D01*
X130817204Y-85782464D01*
X130948643Y-85695852D01*
X130946609Y-85841502D01*
X130995660Y-86108763D01*
X131095689Y-86361406D01*
X131242884Y-86589808D01*
X131431640Y-86785270D01*
X131654766Y-86940347D01*
X131776063Y-86993340D01*
X131734968Y-87008183D01*
X131621799Y-87068674D01*
X131556204Y-87307599D01*
X132334000Y-88085395D01*
X133111796Y-87307599D01*
X133046201Y-87068674D01*
X132890217Y-86995468D01*
X132961745Y-86967724D01*
X133191169Y-86822127D01*
X133387945Y-86634741D01*
X133544575Y-86412702D01*
X133655095Y-86164470D01*
X133715296Y-85899498D01*
X133719629Y-85589138D01*
X133666851Y-85322589D01*
X133563305Y-85071367D01*
X133412935Y-84845042D01*
X133221469Y-84652234D01*
X132996199Y-84500288D01*
X132745707Y-84394991D01*
X132479532Y-84340353D01*
X132207815Y-84338456D01*
X131940903Y-84389372D01*
X131688965Y-84491162D01*
X131461596Y-84639948D01*
X131267456Y-84830064D01*
X131182642Y-84953932D01*
X131182642Y-83704430D01*
X131174578Y-83603309D01*
X131121464Y-83431796D01*
X131022670Y-83281871D01*
X130886020Y-83165405D01*
X130722333Y-83091620D01*
X130544570Y-83066358D01*
X129043430Y-83066358D01*
X128942309Y-83074422D01*
X128770796Y-83127536D01*
X128620871Y-83226330D01*
X128504405Y-83362980D01*
X128430620Y-83526667D01*
X128405358Y-83704430D01*
X125799725Y-83704430D01*
X125896401Y-83278910D01*
X125904096Y-82727886D01*
X125810391Y-82254644D01*
X125626552Y-81808617D01*
X125359580Y-81406791D01*
X125019644Y-81064474D01*
X124619692Y-80794703D01*
X124174959Y-80607754D01*
X123702383Y-80510748D01*
X123219966Y-80507380D01*
X122746082Y-80597779D01*
X122298782Y-80778500D01*
X121895102Y-81042660D01*
X121550420Y-81380198D01*
X121277864Y-81778256D01*
X121087815Y-82221674D01*
X120987512Y-82693561D01*
X120980776Y-83175943D01*
X116280000Y-83175943D01*
X116280000Y-77694249D01*
X116836495Y-77694249D01*
X116930911Y-78208682D01*
X117123450Y-78694979D01*
X117406777Y-79134616D01*
X117770101Y-79510850D01*
X118199583Y-79809347D01*
X118678864Y-80018740D01*
X119189689Y-80131052D01*
X119712600Y-80142006D01*
X120227679Y-80051183D01*
X120715309Y-79862044D01*
X121156914Y-79581793D01*
X121535674Y-79221104D01*
X121837163Y-78793717D01*
X122049897Y-78315909D01*
X122165772Y-77805881D01*
X122174114Y-77208487D01*
X122169274Y-77184040D01*
X139578091Y-77184040D01*
X139672930Y-77448881D01*
X139817615Y-77690131D01*
X140006586Y-77898519D01*
X140183529Y-78029678D01*
X140159777Y-78034403D01*
X140044215Y-78082270D01*
X139940211Y-78151763D01*
X139851763Y-78240211D01*
X139782270Y-78344215D01*
X139734403Y-78459777D01*
X139710000Y-78582458D01*
X139710000Y-79109250D01*
X139868750Y-79268000D01*
X140843000Y-79268000D01*
X140843000Y-78168750D01*
X140801800Y-78127550D01*
X140843000Y-78104915D01*
X140843000Y-76962000D01*
X139699376Y-76962000D01*
X139578091Y-77184040D01*
X122169274Y-77184040D01*
X122072524Y-76695423D01*
X121986190Y-76485960D01*
X139578091Y-76485960D01*
X139699376Y-76708000D01*
X140843000Y-76708000D01*
X140843000Y-75565085D01*
X140620961Y-75443096D01*
X140486913Y-75483754D01*
X140232580Y-75603963D01*
X140006586Y-75771481D01*
X139817615Y-75979869D01*
X139672930Y-76221119D01*
X139578091Y-76485960D01*
X121986190Y-76485960D01*
X121873215Y-76211861D01*
X121583777Y-75776222D01*
X121215235Y-75405098D01*
X120781627Y-75112626D01*
X120299469Y-74909946D01*
X119787126Y-74804777D01*
X119264113Y-74801125D01*
X118750352Y-74899131D01*
X118265411Y-75095059D01*
X117827762Y-75381449D01*
X117454074Y-75747391D01*
X117158582Y-76178946D01*
X116952541Y-76659678D01*
X116843797Y-77171274D01*
X116836495Y-77694249D01*
X116280000Y-77694249D01*
X116280000Y-76869719D01*
X116286850Y-76799858D01*
X118583228Y-74388661D01*
X118760773Y-74370000D01*
X180940281Y-74370000D01*
X181152101Y-74390769D01*
G36*
X141097000Y-112903000D02*
X141117000Y-112903000D01*
X141117000Y-113157000D01*
X141097000Y-113157000D01*
X141097000Y-114299915D01*
X141138200Y-114322550D01*
X141097000Y-114363750D01*
X141097000Y-115463000D01*
X142071250Y-115463000D01*
X142230000Y-115304250D01*
X142230000Y-114777458D01*
X142205597Y-114654777D01*
X142157730Y-114539215D01*
X142088237Y-114435211D01*
X141999789Y-114346763D01*
X141895785Y-114277270D01*
X141780223Y-114229403D01*
X141756471Y-114224678D01*
X141933414Y-114093519D01*
X142122385Y-113885131D01*
X142239593Y-113689696D01*
X142314758Y-113831060D01*
X142491766Y-114048093D01*
X142707558Y-114226612D01*
X142953915Y-114359817D01*
X143221453Y-114442633D01*
X143499982Y-114471908D01*
X143778892Y-114446525D01*
X144047560Y-114367452D01*
X144295753Y-114237700D01*
X144514017Y-114062211D01*
X144694038Y-113847671D01*
X144780228Y-113690891D01*
X144854758Y-113831060D01*
X145031766Y-114048093D01*
X145247558Y-114226612D01*
X145493915Y-114359817D01*
X145761453Y-114442633D01*
X146039982Y-114471908D01*
X146318892Y-114446525D01*
X146587560Y-114367452D01*
X146835753Y-114237700D01*
X147054017Y-114062211D01*
X147234038Y-113847671D01*
X147320228Y-113690891D01*
X147394758Y-113831060D01*
X147571766Y-114048093D01*
X147787558Y-114226612D01*
X148033915Y-114359817D01*
X148301453Y-114442633D01*
X148579982Y-114471908D01*
X148616625Y-114468573D01*
X143836181Y-119249017D01*
X143798547Y-119237367D01*
X143520018Y-119208092D01*
X143241108Y-119233475D01*
X142972440Y-119312548D01*
X142724247Y-119442300D01*
X142505983Y-119617789D01*
X142325962Y-119832329D01*
X142239772Y-119989109D01*
X142165242Y-119848940D01*
X141988234Y-119631907D01*
X141855000Y-119521686D01*
X141855000Y-119420806D01*
X141867634Y-119416894D01*
X142017559Y-119318100D01*
X142134025Y-119181450D01*
X142207810Y-119017763D01*
X142233072Y-118840000D01*
X142233072Y-117340000D01*
X142225008Y-117238879D01*
X142171894Y-117067366D01*
X142073100Y-116917441D01*
X141985503Y-116842783D01*
X141999789Y-116833237D01*
X142088237Y-116744789D01*
X142157730Y-116640785D01*
X142205597Y-116525223D01*
X142230000Y-116402542D01*
X142230000Y-115875750D01*
X142071250Y-115717000D01*
X141097000Y-115717000D01*
X141097000Y-115737000D01*
X140843000Y-115737000D01*
X140843000Y-115717000D01*
X140823000Y-115717000D01*
X140823000Y-115463000D01*
X140843000Y-115463000D01*
X140843000Y-114363750D01*
X140801800Y-114322550D01*
X140843000Y-114299915D01*
X140843000Y-113157000D01*
X140823000Y-113157000D01*
X140823000Y-112903000D01*
X140843000Y-112903000D01*
X140843000Y-112883000D01*
X141097000Y-112883000D01*
X141097000Y-112903000D01*
X141097000Y-112903000D01*
G37*
X141097000Y-112903000D02*
X141117000Y-112903000D01*
X141117000Y-113157000D01*
X141097000Y-113157000D01*
X141097000Y-114299915D01*
X141138200Y-114322550D01*
X141097000Y-114363750D01*
X141097000Y-115463000D01*
X142071250Y-115463000D01*
X142230000Y-115304250D01*
X142230000Y-114777458D01*
X142205597Y-114654777D01*
X142157730Y-114539215D01*
X142088237Y-114435211D01*
X141999789Y-114346763D01*
X141895785Y-114277270D01*
X141780223Y-114229403D01*
X141756471Y-114224678D01*
X141933414Y-114093519D01*
X142122385Y-113885131D01*
X142239593Y-113689696D01*
X142314758Y-113831060D01*
X142491766Y-114048093D01*
X142707558Y-114226612D01*
X142953915Y-114359817D01*
X143221453Y-114442633D01*
X143499982Y-114471908D01*
X143778892Y-114446525D01*
X144047560Y-114367452D01*
X144295753Y-114237700D01*
X144514017Y-114062211D01*
X144694038Y-113847671D01*
X144780228Y-113690891D01*
X144854758Y-113831060D01*
X145031766Y-114048093D01*
X145247558Y-114226612D01*
X145493915Y-114359817D01*
X145761453Y-114442633D01*
X146039982Y-114471908D01*
X146318892Y-114446525D01*
X146587560Y-114367452D01*
X146835753Y-114237700D01*
X147054017Y-114062211D01*
X147234038Y-113847671D01*
X147320228Y-113690891D01*
X147394758Y-113831060D01*
X147571766Y-114048093D01*
X147787558Y-114226612D01*
X148033915Y-114359817D01*
X148301453Y-114442633D01*
X148579982Y-114471908D01*
X148616625Y-114468573D01*
X143836181Y-119249017D01*
X143798547Y-119237367D01*
X143520018Y-119208092D01*
X143241108Y-119233475D01*
X142972440Y-119312548D01*
X142724247Y-119442300D01*
X142505983Y-119617789D01*
X142325962Y-119832329D01*
X142239772Y-119989109D01*
X142165242Y-119848940D01*
X141988234Y-119631907D01*
X141855000Y-119521686D01*
X141855000Y-119420806D01*
X141867634Y-119416894D01*
X142017559Y-119318100D01*
X142134025Y-119181450D01*
X142207810Y-119017763D01*
X142233072Y-118840000D01*
X142233072Y-117340000D01*
X142225008Y-117238879D01*
X142171894Y-117067366D01*
X142073100Y-116917441D01*
X141985503Y-116842783D01*
X141999789Y-116833237D01*
X142088237Y-116744789D01*
X142157730Y-116640785D01*
X142205597Y-116525223D01*
X142230000Y-116402542D01*
X142230000Y-115875750D01*
X142071250Y-115717000D01*
X141097000Y-115717000D01*
X141097000Y-115737000D01*
X140843000Y-115737000D01*
X140843000Y-115717000D01*
X140823000Y-115717000D01*
X140823000Y-115463000D01*
X140843000Y-115463000D01*
X140843000Y-114363750D01*
X140801800Y-114322550D01*
X140843000Y-114299915D01*
X140843000Y-113157000D01*
X140823000Y-113157000D01*
X140823000Y-112903000D01*
X140843000Y-112903000D01*
X140843000Y-112883000D01*
X141097000Y-112883000D01*
X141097000Y-112903000D01*
G36*
X152462300Y-107465753D02*
X152637789Y-107684017D01*
X152852329Y-107864038D01*
X153009109Y-107950228D01*
X152868940Y-108024758D01*
X152651907Y-108201766D01*
X152473388Y-108417558D01*
X152340183Y-108663915D01*
X152257367Y-108931453D01*
X152228092Y-109209982D01*
X152253475Y-109488892D01*
X152270036Y-109545162D01*
X149695856Y-112119342D01*
X149608234Y-112011907D01*
X149392442Y-111833388D01*
X149146085Y-111700183D01*
X148878547Y-111617367D01*
X148600018Y-111588092D01*
X148321108Y-111613475D01*
X148052440Y-111692548D01*
X147804247Y-111822300D01*
X147585983Y-111997789D01*
X147405962Y-112212329D01*
X147319772Y-112369109D01*
X147245242Y-112228940D01*
X147068234Y-112011907D01*
X146852442Y-111833388D01*
X146606085Y-111700183D01*
X146338547Y-111617367D01*
X146060018Y-111588092D01*
X145781108Y-111613475D01*
X145512440Y-111692548D01*
X145264247Y-111822300D01*
X145045983Y-111997789D01*
X144865962Y-112212329D01*
X144779772Y-112369109D01*
X144705242Y-112228940D01*
X144528234Y-112011907D01*
X144312442Y-111833388D01*
X144066085Y-111700183D01*
X143798547Y-111617367D01*
X143520018Y-111588092D01*
X143241108Y-111613475D01*
X142972440Y-111692548D01*
X142724247Y-111822300D01*
X142505983Y-111997789D01*
X142325962Y-112212329D01*
X142239344Y-112369888D01*
X142122385Y-112174869D01*
X141933414Y-111966481D01*
X141707420Y-111798963D01*
X141453087Y-111678754D01*
X141319039Y-111638096D01*
X141097002Y-111760084D01*
X141097002Y-111614577D01*
X141595790Y-111115789D01*
X141647696Y-111052598D01*
X141700225Y-110989996D01*
X141702466Y-110985919D01*
X141705421Y-110982322D01*
X141744043Y-110910292D01*
X141783435Y-110838639D01*
X141784843Y-110834200D01*
X141787041Y-110830101D01*
X141810927Y-110751974D01*
X141835661Y-110674002D01*
X141836180Y-110669374D01*
X141837540Y-110664926D01*
X141845794Y-110583661D01*
X141854914Y-110502357D01*
X141854977Y-110493253D01*
X141854994Y-110493089D01*
X141854980Y-110492936D01*
X141855000Y-110490000D01*
X141855000Y-109712903D01*
X141974017Y-109617211D01*
X142154038Y-109402671D01*
X142240228Y-109245891D01*
X142314758Y-109386060D01*
X142491766Y-109603093D01*
X142707558Y-109781612D01*
X142953915Y-109914817D01*
X143221453Y-109997633D01*
X143499982Y-110026908D01*
X143778892Y-110001525D01*
X144047560Y-109922452D01*
X144295753Y-109792700D01*
X144514017Y-109617211D01*
X144694038Y-109402671D01*
X144780228Y-109245891D01*
X144854758Y-109386060D01*
X145031766Y-109603093D01*
X145247558Y-109781612D01*
X145493915Y-109914817D01*
X145761453Y-109997633D01*
X146039982Y-110026908D01*
X146318892Y-110001525D01*
X146587560Y-109922452D01*
X146835753Y-109792700D01*
X147054017Y-109617211D01*
X147234038Y-109402671D01*
X147320228Y-109245891D01*
X147394758Y-109386060D01*
X147571766Y-109603093D01*
X147787558Y-109781612D01*
X148033915Y-109914817D01*
X148301453Y-109997633D01*
X148579982Y-110026908D01*
X148858892Y-110001525D01*
X149127560Y-109922452D01*
X149375753Y-109792700D01*
X149594017Y-109617211D01*
X149774038Y-109402671D01*
X149908959Y-109157250D01*
X149993642Y-108890296D01*
X150024860Y-108611979D01*
X150025000Y-108591943D01*
X150025000Y-108578057D01*
X149997671Y-108299331D01*
X149916724Y-108031221D01*
X149785242Y-107783940D01*
X149608234Y-107566907D01*
X149454830Y-107440000D01*
X152448837Y-107440000D01*
X152462300Y-107465753D01*
X152462300Y-107465753D01*
G37*
X152462300Y-107465753D02*
X152637789Y-107684017D01*
X152852329Y-107864038D01*
X153009109Y-107950228D01*
X152868940Y-108024758D01*
X152651907Y-108201766D01*
X152473388Y-108417558D01*
X152340183Y-108663915D01*
X152257367Y-108931453D01*
X152228092Y-109209982D01*
X152253475Y-109488892D01*
X152270036Y-109545162D01*
X149695856Y-112119342D01*
X149608234Y-112011907D01*
X149392442Y-111833388D01*
X149146085Y-111700183D01*
X148878547Y-111617367D01*
X148600018Y-111588092D01*
X148321108Y-111613475D01*
X148052440Y-111692548D01*
X147804247Y-111822300D01*
X147585983Y-111997789D01*
X147405962Y-112212329D01*
X147319772Y-112369109D01*
X147245242Y-112228940D01*
X147068234Y-112011907D01*
X146852442Y-111833388D01*
X146606085Y-111700183D01*
X146338547Y-111617367D01*
X146060018Y-111588092D01*
X145781108Y-111613475D01*
X145512440Y-111692548D01*
X145264247Y-111822300D01*
X145045983Y-111997789D01*
X144865962Y-112212329D01*
X144779772Y-112369109D01*
X144705242Y-112228940D01*
X144528234Y-112011907D01*
X144312442Y-111833388D01*
X144066085Y-111700183D01*
X143798547Y-111617367D01*
X143520018Y-111588092D01*
X143241108Y-111613475D01*
X142972440Y-111692548D01*
X142724247Y-111822300D01*
X142505983Y-111997789D01*
X142325962Y-112212329D01*
X142239344Y-112369888D01*
X142122385Y-112174869D01*
X141933414Y-111966481D01*
X141707420Y-111798963D01*
X141453087Y-111678754D01*
X141319039Y-111638096D01*
X141097002Y-111760084D01*
X141097002Y-111614577D01*
X141595790Y-111115789D01*
X141647696Y-111052598D01*
X141700225Y-110989996D01*
X141702466Y-110985919D01*
X141705421Y-110982322D01*
X141744043Y-110910292D01*
X141783435Y-110838639D01*
X141784843Y-110834200D01*
X141787041Y-110830101D01*
X141810927Y-110751974D01*
X141835661Y-110674002D01*
X141836180Y-110669374D01*
X141837540Y-110664926D01*
X141845794Y-110583661D01*
X141854914Y-110502357D01*
X141854977Y-110493253D01*
X141854994Y-110493089D01*
X141854980Y-110492936D01*
X141855000Y-110490000D01*
X141855000Y-109712903D01*
X141974017Y-109617211D01*
X142154038Y-109402671D01*
X142240228Y-109245891D01*
X142314758Y-109386060D01*
X142491766Y-109603093D01*
X142707558Y-109781612D01*
X142953915Y-109914817D01*
X143221453Y-109997633D01*
X143499982Y-110026908D01*
X143778892Y-110001525D01*
X144047560Y-109922452D01*
X144295753Y-109792700D01*
X144514017Y-109617211D01*
X144694038Y-109402671D01*
X144780228Y-109245891D01*
X144854758Y-109386060D01*
X145031766Y-109603093D01*
X145247558Y-109781612D01*
X145493915Y-109914817D01*
X145761453Y-109997633D01*
X146039982Y-110026908D01*
X146318892Y-110001525D01*
X146587560Y-109922452D01*
X146835753Y-109792700D01*
X147054017Y-109617211D01*
X147234038Y-109402671D01*
X147320228Y-109245891D01*
X147394758Y-109386060D01*
X147571766Y-109603093D01*
X147787558Y-109781612D01*
X148033915Y-109914817D01*
X148301453Y-109997633D01*
X148579982Y-110026908D01*
X148858892Y-110001525D01*
X149127560Y-109922452D01*
X149375753Y-109792700D01*
X149594017Y-109617211D01*
X149774038Y-109402671D01*
X149908959Y-109157250D01*
X149993642Y-108890296D01*
X150024860Y-108611979D01*
X150025000Y-108591943D01*
X150025000Y-108578057D01*
X149997671Y-108299331D01*
X149916724Y-108031221D01*
X149785242Y-107783940D01*
X149608234Y-107566907D01*
X149454830Y-107440000D01*
X152448837Y-107440000D01*
X152462300Y-107465753D01*
G36*
X141097000Y-100838000D02*
X141117000Y-100838000D01*
X141117000Y-101092000D01*
X141097000Y-101092000D01*
X141097000Y-102234915D01*
X141138200Y-102257550D01*
X141097000Y-102298750D01*
X141097000Y-103398000D01*
X142071250Y-103398000D01*
X142230000Y-103239250D01*
X142230000Y-102712458D01*
X142205597Y-102589777D01*
X142157730Y-102474215D01*
X142088237Y-102370211D01*
X141999789Y-102281763D01*
X141895785Y-102212270D01*
X141780223Y-102164403D01*
X141756471Y-102159678D01*
X141933414Y-102028519D01*
X142122385Y-101820131D01*
X142239593Y-101624696D01*
X142314758Y-101766060D01*
X142491766Y-101983093D01*
X142707558Y-102161612D01*
X142953915Y-102294817D01*
X143221453Y-102377633D01*
X143499982Y-102406908D01*
X143778892Y-102381525D01*
X144047560Y-102302452D01*
X144295753Y-102172700D01*
X144514017Y-101997211D01*
X144694038Y-101782671D01*
X144780228Y-101625891D01*
X144854758Y-101766060D01*
X145031766Y-101983093D01*
X145247558Y-102161612D01*
X145493915Y-102294817D01*
X145761453Y-102377633D01*
X146039982Y-102406908D01*
X146318892Y-102381525D01*
X146587560Y-102302452D01*
X146835753Y-102172700D01*
X147054017Y-101997211D01*
X147234038Y-101782671D01*
X147320228Y-101625891D01*
X147394758Y-101766060D01*
X147571766Y-101983093D01*
X147787558Y-102161612D01*
X148033915Y-102294817D01*
X148301453Y-102377633D01*
X148579982Y-102406908D01*
X148858892Y-102381525D01*
X149127560Y-102302452D01*
X149375753Y-102172700D01*
X149594017Y-101997211D01*
X149774038Y-101782671D01*
X149805743Y-101725000D01*
X152240380Y-101725000D01*
X152253475Y-101868892D01*
X152332548Y-102137560D01*
X152462300Y-102385753D01*
X152637789Y-102604017D01*
X152852329Y-102784038D01*
X153009109Y-102870228D01*
X152868940Y-102944758D01*
X152651907Y-103121766D01*
X152473388Y-103337558D01*
X152450440Y-103380000D01*
X147955000Y-103380000D01*
X147885123Y-103386851D01*
X147815197Y-103392969D01*
X147811359Y-103394084D01*
X147807382Y-103394474D01*
X147740179Y-103414764D01*
X147672760Y-103434351D01*
X147669212Y-103436190D01*
X147665387Y-103437345D01*
X147603390Y-103470309D01*
X147541074Y-103502611D01*
X147537953Y-103505103D01*
X147534422Y-103506980D01*
X147480007Y-103551359D01*
X147425154Y-103595148D01*
X147419594Y-103600631D01*
X147419478Y-103600726D01*
X147419389Y-103600834D01*
X147417599Y-103602599D01*
X143836181Y-107184017D01*
X143798547Y-107172367D01*
X143520018Y-107143092D01*
X143241108Y-107168475D01*
X142972440Y-107247548D01*
X142724247Y-107377300D01*
X142505983Y-107552789D01*
X142325962Y-107767329D01*
X142239772Y-107924109D01*
X142165242Y-107783940D01*
X141988234Y-107566907D01*
X141855000Y-107456686D01*
X141855000Y-107355806D01*
X141867634Y-107351894D01*
X142017559Y-107253100D01*
X142134025Y-107116450D01*
X142207810Y-106952763D01*
X142233072Y-106775000D01*
X142233072Y-105275000D01*
X142225008Y-105173879D01*
X142171894Y-105002366D01*
X142073100Y-104852441D01*
X141985503Y-104777783D01*
X141999789Y-104768237D01*
X142088237Y-104679789D01*
X142157730Y-104575785D01*
X142205597Y-104460223D01*
X142230000Y-104337542D01*
X142230000Y-103810750D01*
X142071250Y-103652000D01*
X141097000Y-103652000D01*
X141097000Y-103672000D01*
X140843000Y-103672000D01*
X140843000Y-103652000D01*
X140823000Y-103652000D01*
X140823000Y-103398000D01*
X140843000Y-103398000D01*
X140843000Y-102298750D01*
X140801800Y-102257550D01*
X140843000Y-102234915D01*
X140843000Y-101092000D01*
X140823000Y-101092000D01*
X140823000Y-100838000D01*
X140843000Y-100838000D01*
X140843000Y-100818000D01*
X141097000Y-100818000D01*
X141097000Y-100838000D01*
X141097000Y-100838000D01*
G37*
X141097000Y-100838000D02*
X141117000Y-100838000D01*
X141117000Y-101092000D01*
X141097000Y-101092000D01*
X141097000Y-102234915D01*
X141138200Y-102257550D01*
X141097000Y-102298750D01*
X141097000Y-103398000D01*
X142071250Y-103398000D01*
X142230000Y-103239250D01*
X142230000Y-102712458D01*
X142205597Y-102589777D01*
X142157730Y-102474215D01*
X142088237Y-102370211D01*
X141999789Y-102281763D01*
X141895785Y-102212270D01*
X141780223Y-102164403D01*
X141756471Y-102159678D01*
X141933414Y-102028519D01*
X142122385Y-101820131D01*
X142239593Y-101624696D01*
X142314758Y-101766060D01*
X142491766Y-101983093D01*
X142707558Y-102161612D01*
X142953915Y-102294817D01*
X143221453Y-102377633D01*
X143499982Y-102406908D01*
X143778892Y-102381525D01*
X144047560Y-102302452D01*
X144295753Y-102172700D01*
X144514017Y-101997211D01*
X144694038Y-101782671D01*
X144780228Y-101625891D01*
X144854758Y-101766060D01*
X145031766Y-101983093D01*
X145247558Y-102161612D01*
X145493915Y-102294817D01*
X145761453Y-102377633D01*
X146039982Y-102406908D01*
X146318892Y-102381525D01*
X146587560Y-102302452D01*
X146835753Y-102172700D01*
X147054017Y-101997211D01*
X147234038Y-101782671D01*
X147320228Y-101625891D01*
X147394758Y-101766060D01*
X147571766Y-101983093D01*
X147787558Y-102161612D01*
X148033915Y-102294817D01*
X148301453Y-102377633D01*
X148579982Y-102406908D01*
X148858892Y-102381525D01*
X149127560Y-102302452D01*
X149375753Y-102172700D01*
X149594017Y-101997211D01*
X149774038Y-101782671D01*
X149805743Y-101725000D01*
X152240380Y-101725000D01*
X152253475Y-101868892D01*
X152332548Y-102137560D01*
X152462300Y-102385753D01*
X152637789Y-102604017D01*
X152852329Y-102784038D01*
X153009109Y-102870228D01*
X152868940Y-102944758D01*
X152651907Y-103121766D01*
X152473388Y-103337558D01*
X152450440Y-103380000D01*
X147955000Y-103380000D01*
X147885123Y-103386851D01*
X147815197Y-103392969D01*
X147811359Y-103394084D01*
X147807382Y-103394474D01*
X147740179Y-103414764D01*
X147672760Y-103434351D01*
X147669212Y-103436190D01*
X147665387Y-103437345D01*
X147603390Y-103470309D01*
X147541074Y-103502611D01*
X147537953Y-103505103D01*
X147534422Y-103506980D01*
X147480007Y-103551359D01*
X147425154Y-103595148D01*
X147419594Y-103600631D01*
X147419478Y-103600726D01*
X147419389Y-103600834D01*
X147417599Y-103602599D01*
X143836181Y-107184017D01*
X143798547Y-107172367D01*
X143520018Y-107143092D01*
X143241108Y-107168475D01*
X142972440Y-107247548D01*
X142724247Y-107377300D01*
X142505983Y-107552789D01*
X142325962Y-107767329D01*
X142239772Y-107924109D01*
X142165242Y-107783940D01*
X141988234Y-107566907D01*
X141855000Y-107456686D01*
X141855000Y-107355806D01*
X141867634Y-107351894D01*
X142017559Y-107253100D01*
X142134025Y-107116450D01*
X142207810Y-106952763D01*
X142233072Y-106775000D01*
X142233072Y-105275000D01*
X142225008Y-105173879D01*
X142171894Y-105002366D01*
X142073100Y-104852441D01*
X141985503Y-104777783D01*
X141999789Y-104768237D01*
X142088237Y-104679789D01*
X142157730Y-104575785D01*
X142205597Y-104460223D01*
X142230000Y-104337542D01*
X142230000Y-103810750D01*
X142071250Y-103652000D01*
X141097000Y-103652000D01*
X141097000Y-103672000D01*
X140843000Y-103672000D01*
X140843000Y-103652000D01*
X140823000Y-103652000D01*
X140823000Y-103398000D01*
X140843000Y-103398000D01*
X140843000Y-102298750D01*
X140801800Y-102257550D01*
X140843000Y-102234915D01*
X140843000Y-101092000D01*
X140823000Y-101092000D01*
X140823000Y-100838000D01*
X140843000Y-100838000D01*
X140843000Y-100818000D01*
X141097000Y-100818000D01*
X141097000Y-100838000D01*
G36*
X141097000Y-88773000D02*
X141117000Y-88773000D01*
X141117000Y-89027000D01*
X141097000Y-89027000D01*
X141097000Y-90169915D01*
X141138200Y-90192550D01*
X141097000Y-90233750D01*
X141097000Y-91333000D01*
X142071250Y-91333000D01*
X142230000Y-91174250D01*
X142230000Y-90647458D01*
X142205597Y-90524777D01*
X142157730Y-90409215D01*
X142088237Y-90305211D01*
X141999789Y-90216763D01*
X141895785Y-90147270D01*
X141780223Y-90099403D01*
X141756471Y-90094678D01*
X141933414Y-89963519D01*
X142122385Y-89755131D01*
X142239593Y-89559696D01*
X142314758Y-89701060D01*
X142491766Y-89918093D01*
X142707558Y-90096612D01*
X142953915Y-90229817D01*
X143221453Y-90312633D01*
X143499982Y-90341908D01*
X143778892Y-90316525D01*
X144047560Y-90237452D01*
X144295753Y-90107700D01*
X144514017Y-89932211D01*
X144694038Y-89717671D01*
X144780228Y-89560891D01*
X144854758Y-89701060D01*
X145031766Y-89918093D01*
X145247558Y-90096612D01*
X145493915Y-90229817D01*
X145761453Y-90312633D01*
X146039982Y-90341908D01*
X146318892Y-90316525D01*
X146587560Y-90237452D01*
X146835753Y-90107700D01*
X147054017Y-89932211D01*
X147234038Y-89717671D01*
X147320228Y-89560891D01*
X147394758Y-89701060D01*
X147571766Y-89918093D01*
X147787558Y-90096612D01*
X148033915Y-90229817D01*
X148301453Y-90312633D01*
X148579982Y-90341908D01*
X148616625Y-90338573D01*
X143836181Y-95119017D01*
X143798547Y-95107367D01*
X143520018Y-95078092D01*
X143241108Y-95103475D01*
X142972440Y-95182548D01*
X142724247Y-95312300D01*
X142505983Y-95487789D01*
X142325962Y-95702329D01*
X142239772Y-95859109D01*
X142165242Y-95718940D01*
X141988234Y-95501907D01*
X141855000Y-95391686D01*
X141855000Y-95290806D01*
X141867634Y-95286894D01*
X142017559Y-95188100D01*
X142134025Y-95051450D01*
X142207810Y-94887763D01*
X142233072Y-94710000D01*
X142233072Y-93210000D01*
X142225008Y-93108879D01*
X142171894Y-92937366D01*
X142073100Y-92787441D01*
X141985503Y-92712783D01*
X141999789Y-92703237D01*
X142088237Y-92614789D01*
X142157730Y-92510785D01*
X142205597Y-92395223D01*
X142230000Y-92272542D01*
X142230000Y-91745750D01*
X142071250Y-91587000D01*
X141097000Y-91587000D01*
X141097000Y-91607000D01*
X140843000Y-91607000D01*
X140843000Y-91587000D01*
X140823000Y-91587000D01*
X140823000Y-91333000D01*
X140843000Y-91333000D01*
X140843000Y-90233750D01*
X140801800Y-90192550D01*
X140843000Y-90169915D01*
X140843000Y-89027000D01*
X140823000Y-89027000D01*
X140823000Y-88773000D01*
X140843000Y-88773000D01*
X140843000Y-88753000D01*
X141097000Y-88753000D01*
X141097000Y-88773000D01*
X141097000Y-88773000D01*
G37*
X141097000Y-88773000D02*
X141117000Y-88773000D01*
X141117000Y-89027000D01*
X141097000Y-89027000D01*
X141097000Y-90169915D01*
X141138200Y-90192550D01*
X141097000Y-90233750D01*
X141097000Y-91333000D01*
X142071250Y-91333000D01*
X142230000Y-91174250D01*
X142230000Y-90647458D01*
X142205597Y-90524777D01*
X142157730Y-90409215D01*
X142088237Y-90305211D01*
X141999789Y-90216763D01*
X141895785Y-90147270D01*
X141780223Y-90099403D01*
X141756471Y-90094678D01*
X141933414Y-89963519D01*
X142122385Y-89755131D01*
X142239593Y-89559696D01*
X142314758Y-89701060D01*
X142491766Y-89918093D01*
X142707558Y-90096612D01*
X142953915Y-90229817D01*
X143221453Y-90312633D01*
X143499982Y-90341908D01*
X143778892Y-90316525D01*
X144047560Y-90237452D01*
X144295753Y-90107700D01*
X144514017Y-89932211D01*
X144694038Y-89717671D01*
X144780228Y-89560891D01*
X144854758Y-89701060D01*
X145031766Y-89918093D01*
X145247558Y-90096612D01*
X145493915Y-90229817D01*
X145761453Y-90312633D01*
X146039982Y-90341908D01*
X146318892Y-90316525D01*
X146587560Y-90237452D01*
X146835753Y-90107700D01*
X147054017Y-89932211D01*
X147234038Y-89717671D01*
X147320228Y-89560891D01*
X147394758Y-89701060D01*
X147571766Y-89918093D01*
X147787558Y-90096612D01*
X148033915Y-90229817D01*
X148301453Y-90312633D01*
X148579982Y-90341908D01*
X148616625Y-90338573D01*
X143836181Y-95119017D01*
X143798547Y-95107367D01*
X143520018Y-95078092D01*
X143241108Y-95103475D01*
X142972440Y-95182548D01*
X142724247Y-95312300D01*
X142505983Y-95487789D01*
X142325962Y-95702329D01*
X142239772Y-95859109D01*
X142165242Y-95718940D01*
X141988234Y-95501907D01*
X141855000Y-95391686D01*
X141855000Y-95290806D01*
X141867634Y-95286894D01*
X142017559Y-95188100D01*
X142134025Y-95051450D01*
X142207810Y-94887763D01*
X142233072Y-94710000D01*
X142233072Y-93210000D01*
X142225008Y-93108879D01*
X142171894Y-92937366D01*
X142073100Y-92787441D01*
X141985503Y-92712783D01*
X141999789Y-92703237D01*
X142088237Y-92614789D01*
X142157730Y-92510785D01*
X142205597Y-92395223D01*
X142230000Y-92272542D01*
X142230000Y-91745750D01*
X142071250Y-91587000D01*
X141097000Y-91587000D01*
X141097000Y-91607000D01*
X140843000Y-91607000D01*
X140843000Y-91587000D01*
X140823000Y-91587000D01*
X140823000Y-91333000D01*
X140843000Y-91333000D01*
X140843000Y-90233750D01*
X140801800Y-90192550D01*
X140843000Y-90169915D01*
X140843000Y-89027000D01*
X140823000Y-89027000D01*
X140823000Y-88773000D01*
X140843000Y-88773000D01*
X140843000Y-88753000D01*
X141097000Y-88753000D01*
X141097000Y-88773000D01*
G36*
X152462300Y-83970753D02*
X152637789Y-84189017D01*
X152852329Y-84369038D01*
X153009109Y-84455228D01*
X152868940Y-84529758D01*
X152651907Y-84706766D01*
X152473388Y-84922558D01*
X152340183Y-85168915D01*
X152257367Y-85436453D01*
X152228092Y-85714982D01*
X152253475Y-85993892D01*
X152270036Y-86050162D01*
X150180198Y-88140000D01*
X149807074Y-88140000D01*
X149785242Y-88098940D01*
X149608234Y-87881907D01*
X149392442Y-87703388D01*
X149146085Y-87570183D01*
X148878547Y-87487367D01*
X148600018Y-87458092D01*
X148321108Y-87483475D01*
X148052440Y-87562548D01*
X147804247Y-87692300D01*
X147585983Y-87867789D01*
X147405962Y-88082329D01*
X147319772Y-88239109D01*
X147245242Y-88098940D01*
X147068234Y-87881907D01*
X146852442Y-87703388D01*
X146606085Y-87570183D01*
X146338547Y-87487367D01*
X146060018Y-87458092D01*
X145781108Y-87483475D01*
X145512440Y-87562548D01*
X145264247Y-87692300D01*
X145045983Y-87867789D01*
X144865962Y-88082329D01*
X144779772Y-88239109D01*
X144705242Y-88098940D01*
X144528234Y-87881907D01*
X144312442Y-87703388D01*
X144066085Y-87570183D01*
X143798547Y-87487367D01*
X143520018Y-87458092D01*
X143241108Y-87483475D01*
X142972440Y-87562548D01*
X142724247Y-87692300D01*
X142505983Y-87867789D01*
X142325962Y-88082329D01*
X142239344Y-88239888D01*
X142122385Y-88044869D01*
X141933414Y-87836481D01*
X141707420Y-87668963D01*
X141453087Y-87548754D01*
X141319039Y-87508096D01*
X141097002Y-87630084D01*
X141097002Y-87484577D01*
X141595790Y-86985789D01*
X141647696Y-86922598D01*
X141700225Y-86859996D01*
X141702466Y-86855919D01*
X141705421Y-86852322D01*
X141744043Y-86780292D01*
X141783435Y-86708639D01*
X141784843Y-86704200D01*
X141787041Y-86700101D01*
X141810927Y-86621974D01*
X141835661Y-86544002D01*
X141836180Y-86539374D01*
X141837540Y-86534926D01*
X141845794Y-86453661D01*
X141854914Y-86372357D01*
X141854977Y-86363253D01*
X141854994Y-86363089D01*
X141854980Y-86362936D01*
X141855000Y-86360000D01*
X141855000Y-85582903D01*
X141974017Y-85487211D01*
X142154038Y-85272671D01*
X142240228Y-85115891D01*
X142314758Y-85256060D01*
X142491766Y-85473093D01*
X142707558Y-85651612D01*
X142953915Y-85784817D01*
X143221453Y-85867633D01*
X143499982Y-85896908D01*
X143778892Y-85871525D01*
X144047560Y-85792452D01*
X144295753Y-85662700D01*
X144514017Y-85487211D01*
X144694038Y-85272671D01*
X144780228Y-85115891D01*
X144854758Y-85256060D01*
X145031766Y-85473093D01*
X145247558Y-85651612D01*
X145493915Y-85784817D01*
X145761453Y-85867633D01*
X146039982Y-85896908D01*
X146318892Y-85871525D01*
X146587560Y-85792452D01*
X146835753Y-85662700D01*
X147054017Y-85487211D01*
X147234038Y-85272671D01*
X147320228Y-85115891D01*
X147394758Y-85256060D01*
X147571766Y-85473093D01*
X147787558Y-85651612D01*
X148033915Y-85784817D01*
X148301453Y-85867633D01*
X148579982Y-85896908D01*
X148858892Y-85871525D01*
X149127560Y-85792452D01*
X149375753Y-85662700D01*
X149594017Y-85487211D01*
X149774038Y-85272671D01*
X149908959Y-85027250D01*
X149993642Y-84760296D01*
X150024860Y-84481979D01*
X150025000Y-84461943D01*
X150025000Y-84448057D01*
X149997671Y-84169331D01*
X149929942Y-83945000D01*
X152448837Y-83945000D01*
X152462300Y-83970753D01*
X152462300Y-83970753D01*
G37*
X152462300Y-83970753D02*
X152637789Y-84189017D01*
X152852329Y-84369038D01*
X153009109Y-84455228D01*
X152868940Y-84529758D01*
X152651907Y-84706766D01*
X152473388Y-84922558D01*
X152340183Y-85168915D01*
X152257367Y-85436453D01*
X152228092Y-85714982D01*
X152253475Y-85993892D01*
X152270036Y-86050162D01*
X150180198Y-88140000D01*
X149807074Y-88140000D01*
X149785242Y-88098940D01*
X149608234Y-87881907D01*
X149392442Y-87703388D01*
X149146085Y-87570183D01*
X148878547Y-87487367D01*
X148600018Y-87458092D01*
X148321108Y-87483475D01*
X148052440Y-87562548D01*
X147804247Y-87692300D01*
X147585983Y-87867789D01*
X147405962Y-88082329D01*
X147319772Y-88239109D01*
X147245242Y-88098940D01*
X147068234Y-87881907D01*
X146852442Y-87703388D01*
X146606085Y-87570183D01*
X146338547Y-87487367D01*
X146060018Y-87458092D01*
X145781108Y-87483475D01*
X145512440Y-87562548D01*
X145264247Y-87692300D01*
X145045983Y-87867789D01*
X144865962Y-88082329D01*
X144779772Y-88239109D01*
X144705242Y-88098940D01*
X144528234Y-87881907D01*
X144312442Y-87703388D01*
X144066085Y-87570183D01*
X143798547Y-87487367D01*
X143520018Y-87458092D01*
X143241108Y-87483475D01*
X142972440Y-87562548D01*
X142724247Y-87692300D01*
X142505983Y-87867789D01*
X142325962Y-88082329D01*
X142239344Y-88239888D01*
X142122385Y-88044869D01*
X141933414Y-87836481D01*
X141707420Y-87668963D01*
X141453087Y-87548754D01*
X141319039Y-87508096D01*
X141097002Y-87630084D01*
X141097002Y-87484577D01*
X141595790Y-86985789D01*
X141647696Y-86922598D01*
X141700225Y-86859996D01*
X141702466Y-86855919D01*
X141705421Y-86852322D01*
X141744043Y-86780292D01*
X141783435Y-86708639D01*
X141784843Y-86704200D01*
X141787041Y-86700101D01*
X141810927Y-86621974D01*
X141835661Y-86544002D01*
X141836180Y-86539374D01*
X141837540Y-86534926D01*
X141845794Y-86453661D01*
X141854914Y-86372357D01*
X141854977Y-86363253D01*
X141854994Y-86363089D01*
X141854980Y-86362936D01*
X141855000Y-86360000D01*
X141855000Y-85582903D01*
X141974017Y-85487211D01*
X142154038Y-85272671D01*
X142240228Y-85115891D01*
X142314758Y-85256060D01*
X142491766Y-85473093D01*
X142707558Y-85651612D01*
X142953915Y-85784817D01*
X143221453Y-85867633D01*
X143499982Y-85896908D01*
X143778892Y-85871525D01*
X144047560Y-85792452D01*
X144295753Y-85662700D01*
X144514017Y-85487211D01*
X144694038Y-85272671D01*
X144780228Y-85115891D01*
X144854758Y-85256060D01*
X145031766Y-85473093D01*
X145247558Y-85651612D01*
X145493915Y-85784817D01*
X145761453Y-85867633D01*
X146039982Y-85896908D01*
X146318892Y-85871525D01*
X146587560Y-85792452D01*
X146835753Y-85662700D01*
X147054017Y-85487211D01*
X147234038Y-85272671D01*
X147320228Y-85115891D01*
X147394758Y-85256060D01*
X147571766Y-85473093D01*
X147787558Y-85651612D01*
X148033915Y-85784817D01*
X148301453Y-85867633D01*
X148579982Y-85896908D01*
X148858892Y-85871525D01*
X149127560Y-85792452D01*
X149375753Y-85662700D01*
X149594017Y-85487211D01*
X149774038Y-85272671D01*
X149908959Y-85027250D01*
X149993642Y-84760296D01*
X150024860Y-84481979D01*
X150025000Y-84461943D01*
X150025000Y-84448057D01*
X149997671Y-84169331D01*
X149929942Y-83945000D01*
X152448837Y-83945000D01*
X152462300Y-83970753D01*
M02*
