G04 #@! TF.FileFunction,Soldermask,Top*
%FSLAX46Y46*%
G04 Gerber Fmt 4.6, Leading zero omitted, Abs format (unit mm)*
G04 Created by KiCad (PCBNEW 4.0.6) date Tuesday, 06 June 2017 'AMt' 07:55:03*
%MOMM*%
%LPD*%
G01*
G04 APERTURE LIST*
%ADD10C,0.100000*%
%ADD11C,4.464000*%
%ADD12R,2.432000X2.127200*%
%ADD13O,2.432000X2.127200*%
%ADD14R,2.127200X2.127200*%
%ADD15O,2.127200X2.127200*%
%ADD16R,1.600000X1.300000*%
%ADD17O,2.000000X2.000000*%
%ADD18C,4.049980*%
%ADD19R,1.901140X1.901140*%
%ADD20C,1.901140*%
G04 APERTURE END LIST*
D10*
D11*
X180340000Y-77470000D03*
X180213000Y-120015000D03*
X119634000Y-120142000D03*
D12*
X120650000Y-101600000D03*
D13*
X120650000Y-104140000D03*
X120650000Y-106680000D03*
X120650000Y-109220000D03*
X120650000Y-111760000D03*
X120650000Y-114300000D03*
D14*
X172974000Y-78105000D03*
D15*
X175514000Y-78105000D03*
X172974000Y-80645000D03*
X175514000Y-80645000D03*
X172974000Y-83185000D03*
X175514000Y-83185000D03*
X172974000Y-85725000D03*
X175514000Y-85725000D03*
X172974000Y-88265000D03*
X175514000Y-88265000D03*
X172974000Y-90805000D03*
X175514000Y-90805000D03*
X172974000Y-93345000D03*
X175514000Y-93345000D03*
X172974000Y-95885000D03*
X175514000Y-95885000D03*
X172974000Y-98425000D03*
X175514000Y-98425000D03*
X172974000Y-100965000D03*
X175514000Y-100965000D03*
X172974000Y-103505000D03*
X175514000Y-103505000D03*
X172974000Y-106045000D03*
X175514000Y-106045000D03*
D16*
X169502000Y-78105000D03*
X167302000Y-78105000D03*
X169502000Y-80645000D03*
X167302000Y-80645000D03*
X169502000Y-83185000D03*
X167302000Y-83185000D03*
X169502000Y-85725000D03*
X167302000Y-85725000D03*
X169502000Y-88265000D03*
X167302000Y-88265000D03*
X169502000Y-90805000D03*
X167302000Y-90805000D03*
X169502000Y-93345000D03*
X167302000Y-93345000D03*
X169502000Y-95885000D03*
X167302000Y-95885000D03*
X169502000Y-98425000D03*
X167302000Y-98425000D03*
X169502000Y-100965000D03*
X167302000Y-100965000D03*
X169502000Y-103505000D03*
X167302000Y-103505000D03*
X169502000Y-106045000D03*
X167302000Y-106045000D03*
D17*
X140970000Y-84455000D03*
X143510000Y-84455000D03*
X146050000Y-84455000D03*
X148590000Y-84455000D03*
X148590000Y-76835000D03*
X146050000Y-76835000D03*
X143510000Y-76835000D03*
X140970000Y-76835000D03*
X140970000Y-96520000D03*
X143510000Y-96520000D03*
X146050000Y-96520000D03*
X148590000Y-96520000D03*
X148590000Y-88900000D03*
X146050000Y-88900000D03*
X143510000Y-88900000D03*
X140970000Y-88900000D03*
X140970000Y-108585000D03*
X143510000Y-108585000D03*
X146050000Y-108585000D03*
X148590000Y-108585000D03*
X148590000Y-100965000D03*
X146050000Y-100965000D03*
X143510000Y-100965000D03*
X140970000Y-100965000D03*
X140970000Y-120650000D03*
X143510000Y-120650000D03*
X146050000Y-120650000D03*
X148590000Y-120650000D03*
X148590000Y-113030000D03*
X146050000Y-113030000D03*
X143510000Y-113030000D03*
X140970000Y-113030000D03*
X153670000Y-78105000D03*
X153670000Y-80645000D03*
X153670000Y-83185000D03*
X153670000Y-85725000D03*
X153670000Y-88265000D03*
X153670000Y-90805000D03*
X153670000Y-93345000D03*
X153670000Y-95885000D03*
X161290000Y-95885000D03*
X161290000Y-93345000D03*
X161290000Y-90805000D03*
X161290000Y-88265000D03*
X161290000Y-85725000D03*
X161290000Y-83185000D03*
X161290000Y-80645000D03*
X161290000Y-78105000D03*
X153670000Y-101600000D03*
X153670000Y-104140000D03*
X153670000Y-106680000D03*
X153670000Y-109220000D03*
X153670000Y-111760000D03*
X153670000Y-114300000D03*
X153670000Y-116840000D03*
X153670000Y-119380000D03*
X161290000Y-119380000D03*
X161290000Y-116840000D03*
X161290000Y-114300000D03*
X161290000Y-111760000D03*
X161290000Y-109220000D03*
X161290000Y-106680000D03*
X161290000Y-104140000D03*
X161290000Y-101600000D03*
D14*
X169545000Y-112141000D03*
D15*
X172085000Y-112141000D03*
X169545000Y-114681000D03*
X172085000Y-114681000D03*
X169545000Y-117221000D03*
X172085000Y-117221000D03*
X169545000Y-119761000D03*
X172085000Y-119761000D03*
D18*
X123444000Y-94838520D03*
X123444000Y-82969100D03*
D19*
X129794000Y-84455000D03*
D20*
X132334000Y-85725000D03*
X129794000Y-86995000D03*
X132334000Y-88265000D03*
X129794000Y-89535000D03*
X132334000Y-90805000D03*
X129794000Y-92075000D03*
X132334000Y-93345000D03*
D11*
X119507000Y-77470000D03*
D16*
X174328000Y-109093000D03*
X172128000Y-109093000D03*
M02*
